<?xml version="1.0" encoding="UTF-8"?><svg id="logo-helefante-es" viewBox="0 0 204.71 77.4"><defs><style>.cls-1{fill:#000000;} .cls-2{fill:#000000;} .cls-3{fill:#000000;}</style></defs><path class="cls-2" d="m52.72,27.07c-.04-1.61-.02-3.21-.11-4.83-.1-1.62-.34-3.23-.77-4.8-.2-.79-.49-1.55-.8-2.3l-.45-1.13-.56-1.08c-1.51-2.86-3.57-5.44-6.08-7.49-2.51-2.06-5.45-3.57-8.57-4.49C29.15-.87,22.12-.08,16.43,3.27c0,0-.41.2-.41.51,0,.22.41.63.41.63l.77.9c.22.24.54.45.87.48.16.02.33,0,.48-.04.16-.04.31-.13.35-.14l.42-.2c.29-.13.57-.26.86-.37,1.16-.47,2.37-.79,3.6-.95,2.47-.33,5.02.03,7.34.9,4.68,1.71,8.3,5.96,9.39,10.83.54,2.44.48,5-.2,7.42-.64,2.42-1.93,4.66-3.93,6.15-.98.75-2.12,1.31-3.31,1.71-.57.18-1.21.27-1.88.46-.66.19-1.29.44-1.9.73-2.42,1.2-4.48,3.09-5.76,5.45v.02s-.01,0-.01,0c-.58,1.42-.97,2.94-.99,4.48-.01.77.06,1.54.23,2.28.18.74.39,1.41.62,1.75.58.87-.61,1.02-1.79-.9-.77-1.45-.91-2.49-1.12-3.06-.16-.42-1.02,0-1.02,0-3.32,1.05-6.35,2.87-9.07,5.04-2.7,2.19-5.16,4.79-6.79,7.95-1.64,3.12-2.71,6.51-3.24,9.99-.53,3.47-.44,7.07.02,10.5v.04s.01.02.01.02c.03.12.05.26.13.44.07.17.23.41.47.55.47.27.84.17.99.19h1.19s2.38.03,2.38.03c.14,0,.53.02.84-.09.31-.1.6-.27.83-.5l.84-.87c.54-.57,1.12-1.08,1.7-1.59,2.37-2,5.06-3.62,8.03-4.46,2.95-.89,6.09-1.03,9.16-.63,3.1.37,6.05,1.34,8.66,2.99,1.3.81,2.53,1.75,3.65,2.83.57.53,1.09,1.1,1.61,1.68.17.16.3.4.79.62.07.03.15.05.24.07.05,0,.1.01.16.01h.04s.15,0,.15,0h.3s1.21,0,1.21,0h1.21c.16,0,.48.01.78-.06.29-.07.57-.19.83-.35.5-.34.87-.84,1.02-1.43.08-.29.11-.6.07-.9-.04-.33-.11-.52-.16-.71-.44-1.57-.87-3.06-1.2-4.61-.67-3.07-.98-6.21-.71-9.32.28-3.17.66-6.33,1.56-9.32l3.01-9.1c1.06-3.02,1.94-6.19,2.31-9.41.19-1.61.29-3.24.24-4.84Zm-20.89,10c-.33-2.31,3.53-1.96,3.6,0-.17,1.96-3.34,2.01-3.6,0Z"></path><path class="cls-1" d="m66.27,74.9c-.59,0-1.11-.14-1.54-.41-.44-.28-.77-.65-1.01-1.13-.24-.48-.36-1.02-.36-1.63s.12-1.15.36-1.63c.24-.48.58-.85,1.02-1.12.44-.27.96-.41,1.55-.41.5,0,.95.11,1.34.33.39.22.69.53.89.93v-3.71h.84v8.64h-.77l-.07-1.09c-.12.21-.28.41-.49.6-.21.19-.46.35-.75.46-.29.12-.63.17-1,.17Zm.06-.73c.42,0,.79-.1,1.11-.31.32-.2.57-.49.75-.85.18-.36.28-.79.28-1.28s-.09-.92-.28-1.28c-.18-.37-.43-.65-.75-.85s-.69-.3-1.11-.3-.77.1-1.1.3-.58.48-.76.85c-.18.36-.27.79-.27,1.29s.09.93.28,1.29c.18.36.44.65.76.85.32.2.68.3,1.09.3Z"></path><path class="cls-1" d="m72.44,67.28c-.17,0-.31-.06-.43-.17-.12-.12-.18-.26-.18-.44s.06-.33.17-.44c.12-.11.26-.16.44-.16.16,0,.3.05.42.16.12.11.18.25.18.44s-.06.32-.17.44-.26.17-.43.17Zm-.42,7.48v-6.05h.84v6.05h-.84Z"></path><path class="cls-1" d="m77.73,74.9c-.48,0-.9-.08-1.27-.24-.36-.16-.66-.39-.88-.69-.22-.3-.35-.66-.4-1.07h.88c.04.23.13.44.27.64.14.19.33.34.57.46.24.11.52.17.85.17.3,0,.55-.04.75-.13.2-.09.34-.21.44-.37.1-.16.15-.33.15-.52,0-.26-.06-.47-.19-.62-.12-.15-.3-.26-.53-.33-.23-.07-.51-.14-.84-.2-.27-.05-.53-.11-.77-.19-.24-.08-.46-.18-.66-.31-.2-.13-.35-.29-.47-.49-.12-.2-.17-.43-.17-.69,0-.34.09-.65.26-.91.17-.26.42-.46.74-.61.32-.15.7-.22,1.13-.22.62,0,1.12.15,1.51.46.39.31.62.76.68,1.35h-.84c-.03-.33-.17-.59-.41-.78-.24-.19-.56-.29-.97-.29s-.71.08-.92.25-.32.39-.32.67c0,.18.06.33.17.46s.28.24.5.33.49.17.81.23c.38.07.74.17,1.06.28.32.12.59.29.79.53.2.24.31.57.31,1,0,.36-.08.68-.26.96-.18.28-.44.5-.77.65s-.73.23-1.19.23Z"></path><path class="cls-1" d="m84.88,74.9c-.56,0-1.05-.13-1.48-.4s-.76-.63-1.01-1.11c-.24-.48-.37-1.03-.37-1.67s.12-1.2.36-1.67c.24-.47.58-.84,1.01-1.1.44-.26.94-.39,1.51-.39s1.08.13,1.49.4.72.61.93,1.03.32.89.32,1.39v.25c0,.08,0,.18-.01.29h-4.97v-.71h4.16c-.02-.62-.22-1.09-.58-1.43s-.82-.5-1.37-.5c-.35,0-.68.08-1,.25-.31.16-.56.4-.75.72-.19.32-.28.71-.28,1.19v.31c0,.54.1,1,.29,1.36.2.36.45.63.76.8.31.18.64.26.98.26.46,0,.83-.1,1.13-.31s.51-.49.64-.85h.83c-.1.35-.26.67-.49.95-.23.28-.52.51-.88.67-.35.16-.76.25-1.22.25Z"></path><path class="cls-1" d="m89.85,74.76v-6.05h.77l.05,1.08c.19-.38.47-.68.83-.9s.77-.32,1.22-.32.87.09,1.21.28c.34.18.61.46.8.83.19.37.29.85.29,1.42v3.66h-.84v-3.56c0-.64-.14-1.12-.42-1.43-.28-.31-.68-.47-1.19-.47-.36,0-.68.09-.97.26-.28.17-.51.42-.67.75-.16.33-.25.73-.25,1.21v3.24h-.84Zm3.37-6.84c-.21,0-.38-.05-.52-.14-.14-.1-.27-.19-.39-.28-.12-.09-.26-.14-.43-.14-.13,0-.24.04-.33.13-.09.09-.15.22-.17.41h-.52c.05-.37.17-.65.35-.83.19-.19.42-.28.7-.28.21,0,.38.05.52.14.14.09.27.19.39.28.12.1.27.14.44.14.14,0,.25-.05.35-.14.1-.09.16-.23.18-.4h.5c-.03.35-.15.63-.35.82-.2.2-.44.29-.72.29Z"></path><path class="cls-1" d="m100.11,74.9c-.55,0-1.05-.13-1.49-.39-.44-.26-.79-.63-1.05-1.1-.26-.48-.38-1.03-.38-1.66s.13-1.22.39-1.69c.26-.47.61-.84,1.06-1.1s.95-.39,1.5-.39,1.08.13,1.52.39c.44.26.79.63,1.04,1.1.26.47.38,1.04.38,1.69s-.13,1.19-.39,1.66c-.26.48-.61.84-1.06,1.1s-.95.39-1.53.39Zm.01-.72c.38,0,.72-.09,1.04-.28.32-.18.57-.46.77-.82s.29-.81.29-1.35-.1-1-.29-1.36c-.19-.36-.45-.63-.76-.81-.32-.18-.66-.27-1.04-.27s-.7.09-1.02.28c-.32.18-.58.45-.77.81-.2.36-.29.81-.29,1.35s.1.99.29,1.35c.19.36.45.64.76.82.32.18.66.28,1.03.28Z"></path><path class="cls-1" d="m109.57,77.4l1.49-3.31h-.32l-2.39-5.38h.91l2.06,4.8,2.17-4.8h.86l-3.91,8.69h-.88Z"></path><path class="cls-1" d="m122.56,74.9c-.55,0-1.05-.13-1.49-.4-.44-.26-.79-.63-1.05-1.11-.26-.48-.38-1.03-.38-1.65s.13-1.21.38-1.67c.26-.47.61-.84,1.05-1.1.44-.27.94-.4,1.49-.4.7,0,1.29.18,1.76.55.47.36.77.85.89,1.45h-.84c-.09-.4-.3-.71-.63-.93s-.73-.33-1.18-.33c-.37,0-.71.09-1.02.27-.31.18-.56.45-.76.81-.19.36-.29.82-.29,1.37,0,.41.06.76.17,1.07.11.3.27.56.46.76s.42.36.66.46c.24.1.5.16.77.16.3,0,.57-.05.82-.15s.47-.25.64-.44c.18-.19.29-.42.35-.7h.84c-.12.58-.42,1.06-.89,1.43-.47.37-1.06.56-1.76.56Z"></path><path class="cls-1" d="m130.15,74.9c-.55,0-1.05-.13-1.49-.39-.44-.26-.79-.63-1.05-1.1-.26-.48-.38-1.03-.38-1.66s.13-1.22.39-1.69c.26-.47.61-.84,1.06-1.1s.95-.39,1.5-.39,1.08.13,1.52.39c.44.26.79.63,1.04,1.1.26.47.38,1.04.38,1.69s-.13,1.19-.39,1.66c-.26.48-.61.84-1.06,1.1s-.95.39-1.53.39Zm.01-.72c.38,0,.72-.09,1.04-.28.32-.18.57-.46.77-.82s.29-.81.29-1.35-.1-1-.29-1.36c-.19-.36-.45-.63-.76-.81-.32-.18-.66-.27-1.04-.27s-.7.09-1.02.28c-.32.18-.58.45-.77.81-.2.36-.29.81-.29,1.35s.1.99.29,1.35c.19.36.45.64.76.82.32.18.66.28,1.03.28Z"></path><path class="cls-1" d="m135.41,74.76v-6.05h.77l.06.91c.18-.34.44-.6.77-.78.33-.18.69-.28,1.09-.28.3,0,.58.04.84.13s.48.22.67.4c.19.18.35.4.47.68.19-.38.47-.67.83-.89.36-.22.75-.32,1.17-.32.46,0,.87.09,1.21.28.34.18.61.46.8.84.19.38.28.85.28,1.43v3.65h-.84v-3.55c0-.64-.13-1.12-.39-1.43-.26-.32-.63-.47-1.11-.47-.32,0-.61.09-.88.26-.26.17-.47.42-.62.74-.15.32-.22.73-.22,1.21v3.25h-.84v-3.55c0-.64-.13-1.12-.4-1.43-.26-.32-.63-.47-1.09-.47-.34,0-.63.09-.89.26s-.47.42-.62.76-.23.74-.23,1.23v3.22h-.84Z"></path><path class="cls-1" d="m148.98,74.9c-.46,0-.86-.09-1.21-.27s-.62-.46-.81-.83c-.19-.38-.29-.85-.29-1.43v-3.66h.84v3.56c0,.64.14,1.12.43,1.43.28.31.68.47,1.18.47.36,0,.68-.09.97-.26.28-.17.51-.42.67-.75.16-.33.25-.73.25-1.21v-3.24h.84v6.05h-.77l-.05-1.08c-.19.38-.47.68-.83.9-.36.22-.77.32-1.22.32Z"></path><path class="cls-1" d="m154.39,74.76v-6.05h.77l.05,1.08c.19-.38.47-.68.83-.9s.77-.32,1.22-.32.87.09,1.21.28c.34.18.61.46.8.83.19.37.29.85.29,1.42v3.66h-.84v-3.56c0-.64-.14-1.12-.42-1.43-.28-.31-.68-.47-1.19-.47-.36,0-.68.09-.97.26-.28.17-.51.42-.67.75-.16.33-.25.73-.25,1.21v3.24h-.84Z"></path><path class="cls-1" d="m162.53,67.28c-.17,0-.31-.06-.43-.17-.12-.12-.18-.26-.18-.44s.06-.33.17-.44c.12-.11.26-.16.44-.16.16,0,.3.05.42.16.12.11.18.25.18.44s-.06.32-.17.44-.26.17-.43.17Zm-.42,7.48v-6.05h.84v6.05h-.84Z"></path><path class="cls-1" d="m168.26,74.9c-.55,0-1.05-.13-1.49-.4-.44-.26-.79-.63-1.05-1.11-.26-.48-.38-1.03-.38-1.65s.13-1.21.38-1.67c.26-.47.61-.84,1.05-1.1.44-.27.94-.4,1.49-.4.7,0,1.29.18,1.76.55.47.36.77.85.89,1.45h-.84c-.09-.4-.3-.71-.63-.93s-.73-.33-1.18-.33c-.37,0-.71.09-1.02.27-.31.18-.56.45-.76.81-.19.36-.29.82-.29,1.37,0,.41.06.76.17,1.07.11.3.27.56.46.76s.42.36.66.46c.24.1.5.16.77.16.3,0,.57-.05.82-.15s.47-.25.64-.44c.18-.19.29-.42.35-.7h.84c-.12.58-.42,1.06-.89,1.43-.47.37-1.06.56-1.76.56Z"></path><path class="cls-1" d="m175.13,74.9c-.49,0-.89-.09-1.22-.26-.32-.18-.56-.4-.72-.68-.16-.28-.23-.59-.23-.92,0-.42.11-.77.32-1.06s.51-.5.9-.65c.39-.14.83-.22,1.34-.22h1.63c0-.39-.06-.72-.18-1-.12-.27-.29-.48-.52-.62-.23-.14-.52-.21-.87-.21-.42,0-.77.1-1.07.31s-.48.51-.55.91h-.88c.05-.42.19-.78.44-1.07.24-.29.55-.51.91-.65.36-.15.75-.22,1.15-.22.55,0,1.01.11,1.36.32.36.21.62.5.79.87s.26.79.26,1.27v3.73h-.77l-.04-1.1c-.08.17-.18.33-.31.48-.12.15-.27.28-.43.4-.16.11-.35.2-.57.27-.22.07-.46.1-.74.1Zm.1-.74c.3,0,.57-.06.8-.18.23-.12.43-.28.6-.48s.3-.43.38-.68c.09-.26.13-.52.13-.78v-.22h-1.57c-.42,0-.76.05-1.02.16-.26.1-.44.24-.55.42-.11.18-.17.38-.17.61s.05.43.16.61c.11.17.27.31.47.4s.46.14.76.14Z"></path><path class="cls-1" d="m183.07,74.9c-.55,0-1.05-.13-1.49-.4-.44-.26-.79-.63-1.05-1.11-.26-.48-.38-1.03-.38-1.65s.13-1.21.38-1.67c.26-.47.61-.84,1.05-1.1.44-.27.94-.4,1.49-.4.7,0,1.29.18,1.76.55.47.36.77.85.89,1.45h-.84c-.09-.4-.3-.71-.63-.93s-.73-.33-1.18-.33c-.37,0-.71.09-1.02.27-.31.18-.56.45-.76.81-.19.36-.29.82-.29,1.37,0,.41.06.76.17,1.07.11.3.27.56.46.76s.42.36.66.46c.24.1.5.16.77.16.3,0,.57-.05.82-.15s.47-.25.64-.44c.18-.19.29-.42.35-.7h.84c-.12.58-.42,1.06-.89,1.43-.47.37-1.06.56-1.76.56Z"></path><path class="cls-1" d="m188.55,67.28c-.17,0-.31-.06-.43-.17-.12-.12-.18-.26-.18-.44s.06-.33.17-.44c.12-.11.26-.16.44-.16.16,0,.3.05.42.16.12.11.18.25.18.44s-.06.32-.17.44-.26.17-.43.17Zm-.42,7.48v-6.05h.84v6.05h-.84Z"></path><path class="cls-1" d="m194.28,74.9c-.55,0-1.05-.13-1.49-.39-.44-.26-.79-.63-1.05-1.1-.26-.48-.38-1.03-.38-1.66s.13-1.22.39-1.69c.26-.47.61-.84,1.06-1.1s.95-.39,1.5-.39,1.08.13,1.52.39c.44.26.79.63,1.04,1.1.26.47.38,1.04.38,1.69s-.13,1.19-.39,1.66c-.26.48-.61.84-1.06,1.1s-.95.39-1.53.39Zm.01-.72c.38,0,.72-.09,1.04-.28.32-.18.57-.46.77-.82s.29-.81.29-1.35-.1-1-.29-1.36c-.19-.36-.45-.63-.76-.81-.32-.18-.66-.27-1.04-.27s-.7.09-1.02.28c-.32.18-.58.45-.77.81-.2.36-.29.81-.29,1.35s.1.99.29,1.35c.19.36.45.64.76.82.32.18.66.28,1.03.28Zm-1.13-5.99l-.08-.6,2.35-1.52.11.73-2.38,1.39Z"></path><path class="cls-1" d="m199.54,74.76v-6.05h.77l.05,1.08c.19-.38.47-.68.83-.9s.77-.32,1.22-.32.87.09,1.21.28c.34.18.61.46.8.83.19.37.29.85.29,1.42v3.66h-.84v-3.56c0-.64-.14-1.12-.42-1.43-.28-.31-.68-.47-1.19-.47-.36,0-.68.09-.97.26-.28.17-.51.42-.67.75-.16.33-.25.73-.25,1.21v3.24h-.84Z"></path><path class="cls-3" d="m65.27,34.07v9.43c1.4-1.4,3.05-2.1,4.95-2.1s3.56.68,4.91,2.03c1.35,1.35,2.03,2.98,2.03,4.88v8.88h-1.97v-8.88c0-1.33-.49-2.49-1.46-3.47-.97-.98-2.15-1.47-3.52-1.47s-2.46.5-3.46,1.49c-.99.99-1.49,2.15-1.49,3.46v8.88h-2.07v-23.12h2.07Z"></path><path class="cls-1" d="m100.71,34.07h2.07v23.12h-2.07v-23.12Z"></path><path class="cls-1" d="m134.03,34.07v1.97c-1.31,0-2.46.48-3.44,1.44-.98.96-1.47,2.08-1.47,3.37v.56h4.91v1.97h-4.91v13.82h-2.07v-16.34c-.02-1.88.66-3.48,2.05-4.81,1.39-1.33,3.03-1.99,4.93-1.97Z"></path><path class="cls-1" d="m153.27,57.19h-2.1v-2.68c-1.6,1.79-3.59,2.68-5.96,2.68-2.21,0-4.1-.77-5.64-2.32-1.55-1.55-2.32-3.42-2.32-5.61s.78-3.99,2.34-5.54c1.56-1.55,3.43-2.32,5.63-2.32s4.02.78,5.62,2.34c1.6,1.56,2.42,3.4,2.44,5.52v7.93Zm-8.06-2c1.6,0,2.99-.58,4.15-1.74,1.16-1.16,1.74-2.56,1.74-4.18s-.59-2.96-1.76-4.13c-1.17-1.17-2.55-1.76-4.13-1.76s-3.02.58-4.17,1.74c-1.15,1.16-1.73,2.55-1.73,4.15s.57,3.05,1.71,4.2c1.14,1.15,2.53,1.73,4.18,1.73Z"></path><path class="cls-1" d="m171.81,48.32v8.88h-1.96v-8.88c0-1.33-.49-2.49-1.46-3.47-.97-.98-2.15-1.47-3.52-1.47s-2.46.5-3.46,1.49c-.99.99-1.49,2.15-1.49,3.46v8.88h-2.07v-15.79h2.07v2.1c1.4-1.4,3.05-2.1,4.95-2.1s3.56.68,4.91,2.03c1.36,1.35,2.03,2.98,2.03,4.88Z"></path><path class="cls-1" d="m183.9,43.37h-4.91v7.05c0,1.29.49,2.41,1.47,3.37.98.96,2.13,1.44,3.44,1.44v1.96c-1.9.02-3.54-.63-4.91-1.96-1.38-1.33-2.07-2.94-2.07-4.81v-16.35h2.07v7.33h4.91v1.97Z"></path><path class="cls-1" d="m204.05,47.23c-.18-.66-.44-1.28-.77-1.85-.08-.13-.15-.26-.23-.39-.37-.56-.81-1.07-1.3-1.53-1.41-1.29-3.28-2.08-5.34-2.08-4.38,0-7.93,3.55-7.93,7.93s3.55,7.93,7.93,7.93c1.65,0,3.18-.51,4.45-1.37l-1.17-1.69c-.95.64-2.1,1.02-3.33,1.02-1.01,0-1.97-.26-2.81-.71-.57-.3-1.08-.71-1.52-1.18l10.15-5.13,1.87-.94Zm-13.13,4.4c-.32-.73-.5-1.52-.5-2.37,0-3.28,2.66-5.94,5.94-5.94,1.54,0,2.93.59,3.99,1.55.45.41.83.89,1.14,1.42l-10.56,5.34Z"></path><path class="cls-1" d="m122.92,47.23c-.18-.66-.44-1.28-.77-1.85-.08-.13-.15-.26-.23-.39-.37-.56-.81-1.07-1.3-1.53-1.41-1.29-3.28-2.08-5.34-2.08-4.38,0-7.93,3.55-7.93,7.93s3.55,7.93,7.93,7.93c1.65,0,3.18-.51,4.45-1.37l-1.17-1.69c-.95.64-2.1,1.02-3.33,1.02-1.02,0-1.97-.26-2.81-.71-.57-.3-1.08-.71-1.52-1.18l10.15-5.13,1.87-.94Zm-13.13,4.4c-.32-.73-.5-1.52-.5-2.37,0-3.28,2.66-5.94,5.94-5.94,1.54,0,2.93.59,3.99,1.55.45.41.83.89,1.14,1.42l-10.56,5.34Z"></path><path class="cls-1" d="m97.31,47.23c-.18-.66-.44-1.28-.77-1.85-.08-.13-.15-.26-.23-.39-.37-.56-.81-1.07-1.3-1.53-1.41-1.29-3.28-2.08-5.34-2.08-4.38,0-7.93,3.55-7.93,7.93s3.55,7.93,7.93,7.93c1.65,0,3.18-.51,4.45-1.37l-1.17-1.69c-.95.64-2.1,1.02-3.33,1.02-1.02,0-1.97-.26-2.81-.71-.57-.3-1.08-.71-1.52-1.18l10.15-5.13,1.87-.94Zm-13.13,4.4c-.32-.73-.5-1.52-.5-2.37,0-3.28,2.66-5.94,5.94-5.94,1.54,0,2.93.59,3.99,1.55.45.41.83.89,1.14,1.42l-10.56,5.34Z"></path></svg>