<?xml version="1.0" encoding="utf-8"?>
<!-- Generator: Adobe Illustrator 21.0.0, SVG Export Plug-In . SVG Version: 6.00 Build 0)  -->
<svg version="1.1" id="Layer_1" xmlns="http://www.w3.org/2000/svg" xmlns:xlink="http://www.w3.org/1999/xlink" x="0px" y="0px"
	 viewBox="0 0 476.4 83.3" style="enable-background:new 0 0 476.4 83.3;" xml:space="preserve">
<style type="text/css">
	.st0{clip-path:url(#SVGID_2_);fill:#325D4B;}
	.st1{clip-path:url(#SVGID_2_);fill:#6FC396;}
	.st2{clip-path:url(#SVGID_2_);fill:#FD5D28;}
	.st3{fill:#5F5450;}
</style>
<g>
	<defs>
		<rect id="SVGID_1_" y="0" width="476.4" height="85.3"/>
	</defs>
	<clipPath id="SVGID_2_">
		<use xlink:href="#SVGID_1_"  style="overflow:visible;"/>
	</clipPath>
	<path class="st0" d="M53.7,43.9l0.7,0.1c-3.1,10-14.6,17.2-26.2,17.1C19.4,61,10.6,57.5,5.5,50.2C2.1,45.4,0,38.8,0,30.3
		c0-9.6,2.3-17,7-22C11.9,3,19.4,0.3,29.3,0c29.7-0.6,28.6,30.1,14.2,30.1c-5.4,0-10.3-4.6-9.8-10.2c0.4-5.3,2.5-6.3,3.9-9.7
		c0.6-1.5,1.1-3.3,0.9-4.7c-0.2-1.4-0.9-2.5-2.7-3.1c-6.8-2.2-14.2,2.6-17.5,8.8C14.7,17.5,14,26,14.3,32.7
		C15.7,60,46.1,59.7,53.7,43.9"/>
	<path class="st0" d="M64.6,17c3.1-2.1,8.2-3.1,15.4-3.2c4.5-0.1,9,0.8,13.5,2.4c2.7,1,4.8,2.5,6.6,4.5c1.8,2,2.6,4.6,2.6,7.9v26.2
		c0.1,1.3,0.8,2.1,2.2,2.5c0.8,0.2,1.5,0.1,2-0.2c0.4-0.3,0.8-0.6,1-0.8c0.3-0.3,0.4-0.4,0.6-0.4c0.1,0,0.2,0,0.3,0.1
		c0.1,0.1,0.1,0.3,0.1,0.3c0,0.1,0,0.2-0.1,0.3c-0.6,1.3-1.6,2.3-2.8,3.1c-1.9,1-4,1.5-6.1,1.4c-3.1-0.1-5.7-1.3-7.9-3.4
		c-1.5-1.6-2.5-3.5-3.1-5.9c-1.1,3.3-2.9,5.7-5.7,7.1c-2.8,1.4-5.9,2.1-9.1,2c-4.1-0.1-7.6-1.3-10.7-3.4c-3.1-2.2-4.5-5.5-4.4-10.1
		c0-3.4,1.4-6.2,4.3-8.4c2.9-2.2,6.6-3.8,11.1-4.9c4.5-1.1,9.3-1.6,14.3-1.7v-8.4c0-3.3-0.8-5.6-2.3-7.1c-1.6-1.4-3.7-2.2-6.4-2.3
		c-1.8-0.1-3.4,0.3-5.2,1c-0.3,0.1-0.7,0.3-1.1,0.6c-0.4,0.3-0.8,0.7-1,1.1c-0.3,0.4-0.2,0.8,0.2,1.1c1.8,1.5,2.8,3.1,3.3,4.8
		c0.8,2.8-0.3,5.4-3.3,7.8c-1.4,0.9-3.2,1.3-5.1,1.3c-2.3-0.1-4.3-0.9-5.7-2.5c-1.5-1.6-2.3-3.5-2.2-5.8C60,21.3,61.5,19.1,64.6,17
		 M88.7,33.5c-5.4-0.3-9.4,0.8-12,3.4c-2.5,2.6-3.8,5.7-4,9.2c-0.1,4.5,1,7.8,3.1,9.7c2.1,1.9,4.3,2.4,6.9,1.5
		c2.6-0.9,4.5-3.3,5.9-7.4V33.5z"/>
	<path class="st0" d="M156,39.7c0.3,3.2,1.2,6.2,2.5,8.7c3.5,6.5,10.2,8.4,16.2,6.8c3.8-1.1,7.4-3.6,9.7-7.3h0.8
		c-2.9,8.1-10.8,12.5-19,12.8c-11.7,0.6-24.1-6.9-24.1-23.5c0-7.4,1.8-13.1,5.6-17.1c3.9-4.1,10-6.2,18.1-6.4
		c12.8-0.3,19.8,6.4,19,13.2c-0.6,4.9-5.2,8.5-10.6,10.6c-6.3,2.4-13.8,2.8-18.2,0.9C155.9,38.9,155.9,39.2,156,39.7 M169.8,30.7
		c1.7-2.3,2.8-4.9,3.2-7.3c0.8-4.8-0.8-7.6-3.4-8.4c-3.1-1-7.4,1.2-10.4,6.9c-1.8,3.8-3.2,9-3.3,15.9
		C162.2,37.8,166.8,34.7,169.8,30.7"/>
	<path class="st1" d="M312.4,39.7c0.3,3.2,1.2,6.2,2.5,8.7c3.5,6.5,10.2,8.4,16.2,6.8c3.8-1.1,7.4-3.6,9.7-7.3h0.8
		c-2.9,8.1-10.8,12.5-19,12.8c-11.7,0.6-24.1-6.9-24.1-23.5c0-7.4,1.8-13.1,5.6-17.1c3.9-4.1,10-6.2,18.1-6.4
		c12.8-0.3,19.8,6.4,19,13.2c-0.6,4.9-5.2,8.5-10.6,10.6c-6.3,2.4-13.8,2.8-18.2,0.9C312.3,38.9,312.3,39.2,312.4,39.7 M326.2,30.7
		c1.7-2.3,2.8-4.9,3.2-7.3c0.8-4.8-0.8-7.6-3.4-8.4c-3.1-1-7.4,1.2-10.4,6.9c-1.8,3.8-3.2,9-3.3,15.9
		C318.6,37.8,323.3,34.7,326.2,30.7"/>
	<path class="st1" d="M437.2,49.4c0,2.5-1.4,4.9-1.2,7.6c0.3,2.1,4.4,3.3,8.3,2.8c3.6-0.5,6.9-2.1,7-6c0.3-7.5-9-10-17-14
		c-7.9-4-11.5-9.5-11.2-14.4c0.4-6.6,6-10.9,16.1-11.5c9.5-0.3,16.1,1.4,19.2,6.7c4.5,7.7-2.9,11.5-8.8,9.4
		c-3.9-1.4-5.4-4.6-3.7-8.9c1.3-3.3,1.6-5.7-3.8-6.4c-4-0.4-10,1.3-9.5,6.8c0.3,2.4,2.9,5.4,7.1,7.8c4.2,2.4,10.3,4.8,14.8,8.3
		c4.8,3.7,7.8,8.5,5.3,15.7c-2.9,6.9-11.9,7.2-16.9,7.4c-3.7,0.2-11-1-15.7-4.1c-3.2-2-4.6-4.7-4.6-7c0-3.2,2.6-5.8,7.3-5.8
		C432.9,43.7,437.2,45.1,437.2,49.4"/>
	<path class="st1" d="M343.5,14c0-0.1,0-0.2,0.1-0.2h24.8c0.3,0,0.5,0.1,0.5,0.3c0,0.6-1.3,0.5-1.7,0.5c-0.8,0.2-1.8,0.5-2.4,1.1
		c-0.8,0.7-1,1.8-0.8,2.8l10.5,30.9l10-35.6h7.9l12.1,35.6l6.3-22.2c0.4-1.3,0.8-2.9,1.3-4.5c0.4-2,1.4-5.4-0.6-7.1
		c-0.7-0.6-1.7-1-3.2-0.8c-0.3,0-0.9,0-0.9-0.5c0-0.5,0.8-0.4,1.1-0.4h11.2c0.3,0,1-0.1,1,0.4c0,0.3-1.1,0.6-2.3,0.9
		c-1.4,0.4-2.4,1.2-3.1,2.2c-0.8,1.1-1.3,2.4-1.8,3.9l-8.4,29.9l-2.3,8.3h-9.6l-11.2-32.7l-6.9,24.4l-2.3,8.3h-9.6l-14-41.1
		c-1.3-2.3-3-2.8-5.3-3.8C343.5,14.4,343.5,14.2,343.5,14"/>
	<path class="st1" d="M303.5,67c-4.9,0-8.9,3.6-8.9,8.1c0,3.3,2.1,6,5,7.3c-0.6,0.1-5.2,0.7-8.3-3.5c-2.2-2.8-1.5-7.7-1.5-11.1
		l0-38.7c0-5.2-0.8-10.1-5.4-13.3c-7.7-5.2-21.5,0.6-24.6,7.8v-9c0-0.3-0.5-0.1-0.7,0l-13.5,3.6l-3.3,0.9c-0.6,0.2-0.8,0.5-0.7,0.8
		c0.1,0.6,1.1,0.8,1.7,1.2c1.4,1.1,2.3,2.8,2.3,5.2v29c-0.1,1.6-1.2,2.8-3.3,3.8c-0.2,0-0.3,0.1-0.4,0.2c-0.3,0.2-0.4,0.4-0.3,0.6
		c0,0.1,0,0.2,0.1,0.2h22.1c0,0,0.1-0.1,0.1-0.2c0-0.2-0.1-0.4-0.3-0.6c-0.2-0.1-0.3-0.2-0.4-0.2c-2.1-0.9-3.2-2.2-3.3-3.7V24.7
		c1-2.3,2.9-4.4,5.2-5.7c2.3-1.3,5-1.5,7.4,0c3.1,1.8,3.3,5.5,3.3,8.8l0,39c0.8,13.3,12.1,16.1,22.8,16.5c3.8,0.1,7.8-0.3,9.9-1.5
		c2.3-1.4,3.9-3.9,3.9-6.7C312.3,70.6,308.3,67,303.5,67"/>
	<path class="st0" d="M114.6,17.9h-6.7v-0.8c2.4,0,4.7-0.2,6.7-0.6c7.9-1.6,12.4-6.3,13.2-14c0.1-0.2,0.2-0.3,0.4-0.3h0.1
		c0.2,0,0.3,0.2,0.3,0.4v14.5H139v0.8h-10.4v33.5c0.5,6.9,6.3,8.4,11.3,5.9l0.5,0.9c-3.8,2.2-8.3,2.8-11.8,2.8h-2.2
		c-6.2-0.3-11.5-3.9-11.9-11.4V17.9z"/>
	<path class="st0" d="M195.5,26.3c-0.1-2.3-0.9-4-2.3-5.1c-0.6-0.4-1.7-0.6-1.8-1.2c0-0.3,0.2-0.6,0.8-0.8l3.3-0.9l13.5-3.7
		c0.2,0,0.7-0.2,0.7,0.1v10.8c2.8-7.8,7.9-11.7,15.4-11.7c2.8,0,5.9,0.3,8.1,2.3c1.7,1.5,2.7,3.7,2.7,6.1c0,4.1-3.5,8.1-7.8,8.1
		c-4.5,0-7.9-3.8-7.9-8.1c0.1-2,1-4.9,0.3-5.7c-0.3-0.3-0.8-0.5-1.5-0.3c-4.7,1.5-7.5,6.9-9.4,12v27.3c0.2,1.6,1.3,2.8,3.3,3.7
		l0.5,0.3c0.3,0.2,0.3,0.3,0.3,0.6V60h-22.2c0-0.1,0-0.1-0.1-0.2c0-0.3,0.1-0.4,0.3-0.6c0.2-0.1,0.3-0.2,0.4-0.3
		c2.2-0.8,3.3-2.1,3.3-3.8V26.3z"/>
	<polygon class="st2" points="476.4,23.3 476.4,0.1 453.2,0.1 	"/>
	<g style="clip-path:url(#SVGID_2_);">
		<rect x="57.3" y="97.7" style="fill:none;" width="354.7" height="22.3"/>
	</g>
</g>
<g>
	<path class="st3" d="M75.9,78.2c-0.1-1.2-0.1-2.7-0.1-3.8h0c-0.3,1-0.7,2.1-1.1,3.3l-1.5,4.3h-0.9l-1.4-4.2c-0.4-1.2-0.8-2.4-1-3.4
		h0c0,1.1-0.1,2.6-0.2,3.9L69.4,82h-1.1l0.6-8.8h1.4l1.5,4.2c0.4,1.1,0.7,2,0.9,3h0c0.2-0.9,0.5-1.8,0.9-3l1.6-4.2h1.4l0.5,8.8h-1.1
		L75.9,78.2z"/>
	<path class="st3" d="M81.6,79.2L80.7,82h-1.2l3-8.8h1.4l3,8.8h-1.2l-0.9-2.8H81.6z M84.5,78.4l-0.9-2.5c-0.2-0.6-0.3-1.1-0.5-1.6h0
		c-0.1,0.5-0.3,1.1-0.4,1.6l-0.9,2.5H84.5z"/>
	<path class="st3" d="M96,81.6c-0.5,0.2-1.5,0.5-2.7,0.5c-1.3,0-2.4-0.3-3.3-1.2c-0.8-0.7-1.2-1.9-1.2-3.3c0-2.6,1.8-4.5,4.7-4.5
		c1,0,1.8,0.2,2.2,0.4l-0.3,0.9c-0.5-0.2-1.1-0.4-1.9-0.4c-2.1,0-3.5,1.3-3.5,3.5c0,2.2,1.3,3.5,3.4,3.5c0.7,0,1.2-0.1,1.5-0.2v-2.6
		h-1.8v-0.9H96V81.6z"/>
	<path class="st3" d="M100.5,79.2L99.6,82h-1.2l3-8.8h1.4l3,8.8h-1.2l-0.9-2.8H100.5z M103.4,78.4l-0.9-2.5
		c-0.2-0.6-0.3-1.1-0.5-1.6h0c-0.1,0.5-0.3,1.1-0.4,1.6l-0.9,2.5H103.4z"/>
	<path class="st3" d="M107.8,81.3l4.9-7.1v0h-4.4v-0.9h5.9v0.7l-4.8,7.1v0h4.9V82h-6.4V81.3z"/>
	<path class="st3" d="M118.1,73.2V82H117v-8.8H118.1z"/>
	<path class="st3" d="M121.4,82v-8.8h1.2l2.8,4.4c0.7,1,1.2,2,1.6,2.8l0,0c-0.1-1.2-0.1-2.2-0.1-3.6v-3.7h1.1V82h-1.1l-2.8-4.4
		c-0.6-1-1.2-2-1.6-2.9l0,0c0.1,1.1,0.1,2.2,0.1,3.6V82H121.4z"/>
	<path class="st3" d="M135.9,77.9h-3.4v3.2h3.8V82h-4.9v-8.8h4.7v0.9h-3.6V77h3.4V77.9z"/>
	<path class="st3" d="M144.4,73.2v3.7h4.2v-3.7h1.1V82h-1.1v-4.1h-4.2V82h-1.1v-8.8H144.4z"/>
	<path class="st3" d="M160.6,77.5c0,3-1.8,4.6-4.1,4.6c-2.3,0-3.9-1.8-3.9-4.4c0-2.8,1.7-4.6,4.1-4.6
		C159,73.1,160.6,74.9,160.6,77.5z M153.8,77.7c0,1.9,1,3.5,2.8,3.5c1.8,0,2.8-1.7,2.8-3.6c0-1.7-0.9-3.6-2.8-3.6
		C154.7,74,153.8,75.7,153.8,77.7z"/>
	<path class="st3" d="M163.4,73.4c0.6-0.1,1.4-0.2,2.2-0.2c1.2,0,2,0.2,2.5,0.7c0.4,0.4,0.7,1,0.7,1.7c0,1.2-0.7,1.9-1.7,2.2v0
		c0.7,0.2,1.1,0.9,1.3,1.8c0.3,1.2,0.5,2.1,0.7,2.4h-1.2c-0.1-0.2-0.3-1-0.6-2.1c-0.3-1.2-0.7-1.7-1.8-1.7h-1.1V82h-1.1V73.4z
		 M164.5,77.3h1.2c1.2,0,2-0.7,2-1.7c0-1.1-0.8-1.6-2-1.6c-0.5,0-0.9,0.1-1.1,0.1V77.3z"/>
	<path class="st3" d="M176.3,77.9h-3.4v3.2h3.8V82h-4.9v-8.8h4.7v0.9h-3.6V77h3.4V77.9z"/>
	<path class="st3" d="M185.6,81.7c-0.4,0.2-1.2,0.4-2.3,0.4c-2.5,0-4.3-1.6-4.3-4.4c0-2.7,1.9-4.6,4.6-4.6c1.1,0,1.8,0.2,2.1,0.4
		l-0.3,0.9c-0.4-0.2-1-0.4-1.8-0.4c-2.1,0-3.4,1.3-3.4,3.6c0,2.1,1.2,3.5,3.4,3.5c0.7,0,1.4-0.1,1.8-0.4L185.6,81.7z"/>
	<path class="st3" d="M189.9,79.2L189,82h-1.2l3-8.8h1.4l3,8.8h-1.2l-0.9-2.8H189.9z M192.8,78.4l-0.9-2.5c-0.2-0.6-0.3-1.1-0.5-1.6
		h0c-0.1,0.5-0.3,1.1-0.4,1.6l-0.9,2.5H192.8z"/>
	<path class="st3" d="M203.3,82v-3.7l-2.8-5h1.3l1.2,2.4c0.3,0.7,0.6,1.2,0.9,1.8h0c0.2-0.6,0.5-1.1,0.9-1.8l1.3-2.4h1.3l-2.9,5V82
		H203.3z"/>
	<path class="st3" d="M215,74.2h-2.7v-1h6.5v1h-2.7V82H215V74.2z"/>
	<path class="st3" d="M222.3,73.2v5.2c0,2,0.9,2.8,2,2.8c1.3,0,2.1-0.9,2.1-2.8v-5.2h1.1v5.1c0,2.7-1.4,3.8-3.3,3.8
		c-1.8,0-3.1-1-3.1-3.7v-5.2H222.3z"/>
	<path class="st3" d="M230.9,73.4c0.6-0.1,1.4-0.2,2.2-0.2c1.2,0,2,0.2,2.5,0.7c0.4,0.4,0.7,1,0.7,1.7c0,1.2-0.7,1.9-1.7,2.2v0
		c0.7,0.2,1.1,0.9,1.3,1.8c0.3,1.2,0.5,2.1,0.7,2.4h-1.2c-0.1-0.2-0.3-1-0.6-2.1c-0.3-1.2-0.7-1.7-1.8-1.7H232V82h-1.1V73.4z
		 M232,77.3h1.2c1.2,0,2-0.7,2-1.7c0-1.1-0.8-1.6-2-1.6c-0.5,0-0.9,0.1-1.1,0.1V77.3z"/>
	<path class="st3" d="M240.4,73.2V82h-1.1v-8.8H240.4z"/>
	<path class="st3" d="M243.6,80.6c0.5,0.3,1.2,0.6,2,0.6c1.2,0,1.8-0.6,1.8-1.5c0-0.8-0.5-1.3-1.7-1.7c-1.4-0.5-2.3-1.2-2.3-2.5
		c0-1.4,1.1-2.4,2.8-2.4c0.9,0,1.5,0.2,1.9,0.4l-0.3,0.9c-0.3-0.2-0.9-0.4-1.7-0.4c-1.2,0-1.7,0.7-1.7,1.3c0,0.8,0.5,1.2,1.7,1.7
		c1.5,0.6,2.2,1.3,2.2,2.6c0,1.4-1,2.5-3.1,2.5c-0.8,0-1.8-0.2-2.2-0.6L243.6,80.6z"/>
	<path class="st3" d="M258.9,78.2c-0.1-1.2-0.1-2.7-0.1-3.8h0c-0.3,1-0.7,2.1-1.1,3.3l-1.5,4.3h-0.9l-1.4-4.2
		c-0.4-1.2-0.8-2.4-1-3.4h0c0,1.1-0.1,2.6-0.2,3.9l-0.2,3.8h-1.1l0.6-8.8h1.4l1.5,4.2c0.4,1.1,0.7,2,0.9,3h0c0.2-0.9,0.5-1.8,0.9-3
		l1.6-4.2h1.4l0.5,8.8h-1.1L258.9,78.2z"/>
	<path class="st3" d="M270.8,77.5c0,3-1.8,4.6-4.1,4.6c-2.3,0-3.9-1.8-3.9-4.4c0-2.8,1.7-4.6,4.1-4.6
		C269.3,73.1,270.8,74.9,270.8,77.5z M264,77.7c0,1.9,1,3.5,2.8,3.5c1.8,0,2.8-1.7,2.8-3.6c0-1.7-0.9-3.6-2.8-3.6
		C265,74,264,75.7,264,77.7z"/>
	<path class="st3" d="M327.4,81.6c-0.5,0.2-1.5,0.5-2.7,0.5c-1.3,0-2.4-0.3-3.3-1.2c-0.8-0.7-1.2-1.9-1.2-3.3c0-2.6,1.8-4.5,4.7-4.5
		c1,0,1.8,0.2,2.2,0.4l-0.3,0.9c-0.5-0.2-1.1-0.4-1.9-0.4c-2.1,0-3.5,1.3-3.5,3.5c0,2.2,1.3,3.5,3.4,3.5c0.7,0,1.2-0.1,1.5-0.2v-2.6
		h-1.8v-0.9h2.9V81.6z"/>
	<path class="st3" d="M332,79.2L331,82h-1.2l3-8.8h1.4l3,8.8H336l-0.9-2.8H332z M334.8,78.4l-0.9-2.5c-0.2-0.6-0.3-1.1-0.5-1.6h0
		c-0.1,0.5-0.3,1.1-0.4,1.6l-0.9,2.5H334.8z"/>
	<path class="st3" d="M339.7,80.6c0.5,0.3,1.2,0.6,2,0.6c1.2,0,1.8-0.6,1.8-1.5c0-0.8-0.5-1.3-1.7-1.7c-1.4-0.5-2.3-1.2-2.3-2.5
		c0-1.4,1.1-2.4,2.8-2.4c0.9,0,1.5,0.2,1.9,0.4l-0.3,0.9c-0.3-0.2-0.9-0.4-1.7-0.4c-1.2,0-1.7,0.7-1.7,1.3c0,0.8,0.5,1.2,1.7,1.7
		c1.5,0.6,2.2,1.3,2.2,2.6c0,1.4-1,2.5-3.1,2.5c-0.8,0-1.8-0.2-2.2-0.6L339.7,80.6z"/>
	<path class="st3" d="M349.3,74.2h-2.7v-1h6.5v1h-2.7V82h-1.1V74.2z"/>
	<path class="st3" d="M355.5,73.4c0.6-0.1,1.4-0.2,2.2-0.2c1.2,0,2,0.2,2.5,0.7c0.4,0.4,0.7,1,0.7,1.7c0,1.2-0.7,1.9-1.7,2.2v0
		c0.7,0.2,1.1,0.9,1.3,1.8c0.3,1.2,0.5,2.1,0.7,2.4H360c-0.1-0.2-0.3-1-0.6-2.1c-0.3-1.2-0.7-1.7-1.8-1.7h-1.1V82h-1.1V73.4z
		 M356.6,77.3h1.2c1.2,0,2-0.7,2-1.7c0-1.1-0.8-1.6-2-1.6c-0.5,0-0.9,0.1-1.1,0.1V77.3z"/>
	<path class="st3" d="M371.3,77.5c0,3-1.8,4.6-4.1,4.6c-2.3,0-3.9-1.8-3.9-4.4c0-2.8,1.7-4.6,4.1-4.6
		C369.8,73.1,371.3,74.9,371.3,77.5z M364.5,77.7c0,1.9,1,3.5,2.8,3.5c1.8,0,2.8-1.7,2.8-3.6c0-1.7-0.9-3.6-2.8-3.6
		C365.5,74,364.5,75.7,364.5,77.7z"/>
	<path class="st3" d="M374.2,82v-8.8h1.2l2.8,4.4c0.7,1,1.2,2,1.6,2.8l0,0c-0.1-1.2-0.1-2.2-0.1-3.6v-3.7h1.1V82h-1.1l-2.8-4.4
		c-0.6-1-1.2-2-1.6-2.9l0,0c0.1,1.1,0.1,2.2,0.1,3.6V82H374.2z"/>
	<path class="st3" d="M391.6,77.5c0,3-1.8,4.6-4.1,4.6c-2.3,0-3.9-1.8-3.9-4.4c0-2.8,1.7-4.6,4.1-4.6
		C390,73.1,391.6,74.9,391.6,77.5z M384.8,77.7c0,1.9,1,3.5,2.8,3.5c1.8,0,2.8-1.7,2.8-3.6c0-1.7-0.9-3.6-2.8-3.6
		C385.7,74,384.8,75.7,384.8,77.7z M389.5,71.2l-1.7,1.5h-0.9l1.2-1.5H389.5z"/>
	<path class="st3" d="M401.8,78.2c-0.1-1.2-0.1-2.7-0.1-3.8h0c-0.3,1-0.7,2.1-1.1,3.3l-1.5,4.3h-0.9l-1.4-4.2
		c-0.4-1.2-0.8-2.4-1-3.4h0c0,1.1-0.1,2.6-0.2,3.9l-0.2,3.8h-1.1l0.6-8.8h1.4l1.5,4.2c0.4,1.1,0.7,2,0.9,3h0c0.2-0.9,0.5-1.8,0.9-3
		l1.6-4.2h1.4l0.5,8.8H402L401.8,78.2z"/>
	<path class="st3" d="M407.4,73.2V82h-1.1v-8.8H407.4z"/>
	<path class="st3" d="M416.8,81.7c-0.4,0.2-1.2,0.4-2.3,0.4c-2.5,0-4.3-1.6-4.3-4.4c0-2.7,1.9-4.6,4.6-4.6c1.1,0,1.8,0.2,2.1,0.4
		l-0.3,0.9c-0.4-0.2-1-0.4-1.8-0.4c-2.1,0-3.4,1.3-3.4,3.6c0,2.1,1.2,3.5,3.4,3.5c0.7,0,1.4-0.1,1.8-0.4L416.8,81.7z"/>
	<path class="st3" d="M426.8,77.5c0,3-1.8,4.6-4.1,4.6c-2.3,0-3.9-1.8-3.9-4.4c0-2.8,1.7-4.6,4.1-4.6
		C425.3,73.1,426.8,74.9,426.8,77.5z M420,77.7c0,1.9,1,3.5,2.8,3.5c1.8,0,2.8-1.7,2.8-3.6c0-1.7-0.9-3.6-2.8-3.6
		C421,74,420,75.7,420,77.7z"/>
</g>
</svg>
