<?xml version="1.0" encoding="UTF-8"?><svg id="logo-ffuuss" xmlns="http://www.w3.org/2000/svg" viewBox="0 0 92.9 29.98"><path d="M36.18,23.7c-1.39,1.8-2.48,2.56-4.1,2.56-2,0-2.86-1.13-2.86-4.18v-11H19V8.9c0-1.43,0-4.23,5.6-4.85V0A13.7,13.7,0,0,0,17.8,2,7.62,7.62,0,0,0,14.6,8.7v2.35H8V8.9c0-1.43,0-4.23,5.59-4.85V0A13.62,13.62,0,0,0,6.8,2,7.61,7.61,0,0,0,3.59,8.7v2.35H0v3.43H3.59V29.53H8v-15H14.6V29.53H19v-15h5.93v8.16c0,4.67,1.73,7.34,5.68,7.34,2.52,0,4.33-1.24,6-3.16h.11L37,29.53h3.54V11.05H36.18Z" fill="#000000"></path><path d="M55.6,23.7c-1.39,1.8-2.48,2.56-4.1,2.56-2,0-2.86-1.13-2.86-4.18v-11H44.31V22.64C44.31,27.31,46,30,50,30c2.53,0,4.33-1.24,5.95-3.16h.11l.34,2.71h3.54V11.05H55.6Z" fill="#000000"></path><path d="M71.37,18.65c-2-.71-3.84-1.28-3.84-2.74,0-1.17.86-2,2.71-2a6.87,6.87,0,0,1,4.06,1.58l2-2.63a10,10,0,0,0-6.14-2.22c-4.14,0-6.74,2.29-6.74,5.53s2.75,4.48,5.2,5.38c2,.76,3.95,1.43,3.95,3,0,1.28-.94,2.22-2.93,2.22a8.19,8.19,0,0,1-5.12-2.07l-2,2.78a11.7,11.7,0,0,0,7,2.56c4.67,0,7.19-2.56,7.19-5.72C76.67,20.8,73.89,19.59,71.37,18.65Z" fill="#000000"></path><path d="M87.59,18.65c-2-.71-3.84-1.28-3.84-2.74,0-1.17.87-2,2.71-2a6.84,6.84,0,0,1,4.06,1.58l2-2.63a10,10,0,0,0-6.14-2.22c-4.14,0-6.73,2.29-6.73,5.53s2.74,4.48,5.19,5.38c2,.76,4,1.43,4,3,0,1.28-.94,2.22-2.93,2.22a8.22,8.22,0,0,1-5.12-2.07l-2,2.78a11.68,11.68,0,0,0,7,2.56c4.66,0,7.19-2.56,7.19-5.72C92.9,20.8,90.11,19.59,87.59,18.65Z" fill="#000000"></path></svg>