<?xml version="1.0" encoding="UTF-8"?><svg id="b" xmlns="http://www.w3.org/2000/svg" viewBox="0 0 269.45 54.6"><g id="c"><path d="m87.29,31.96c.12,1.6.87,2.92,2.26,3.94,1.38,1.02,3.18,1.53,5.38,1.53,1.96,0,3.56-.37,4.78-1.11,1.22-.74,1.83-1.73,1.83-2.98,0-1.04-.28-1.82-.84-2.35-.56-.52-1.31-.89-2.26-1.11-.94-.22-2.4-.45-4.36-.69-2.69-.32-4.9-.75-6.65-1.29-1.74-.54-3.15-1.4-4.21-2.59-1.06-1.18-1.59-2.78-1.59-4.78,0-1.88.53-3.56,1.59-5.02,1.06-1.46,2.53-2.6,4.39-3.4,1.86-.8,3.98-1.2,6.35-1.2,3.89,0,7.05.86,9.47,2.59,2.43,1.72,3.74,4.15,3.94,7.28h-6.32c-.16-1.4-.86-2.56-2.11-3.46-1.24-.9-2.81-1.35-4.69-1.35s-3.41.36-4.57,1.08c-1.16.72-1.74,1.7-1.74,2.95,0,.92.29,1.61.87,2.08.58.46,1.31.78,2.2.96.88.18,2.31.39,4.27.63,2.65.28,4.87.71,6.68,1.29,1.8.58,3.25,1.5,4.33,2.77,1.08,1.26,1.62,2.98,1.62,5.14,0,1.92-.56,3.62-1.68,5.08-1.12,1.46-2.67,2.59-4.63,3.37-1.97.78-4.17,1.17-6.62,1.17-4.13,0-7.47-.93-10.01-2.8-2.55-1.86-3.86-4.44-3.94-7.73h6.26Z" style="fill:#000000; stroke:#000000; stroke-miterlimit:10; stroke-width:.89px;"/><path d="m117.31,1.05c.4.4.6.92.6,1.56s-.2,1.16-.6,1.56c-.4.4-.92.6-1.56.6-.6,0-1.11-.2-1.53-.6-.42-.4-.63-.92-.63-1.56s.21-1.16.63-1.56c.42-.4.93-.6,1.53-.6.64,0,1.16.2,1.56.6Zm-3.07,10.59h3.07v30.5h-3.07V11.63Z" style="fill:#000000; stroke:#000000; stroke-miterlimit:10; stroke-width:.89px;"/><path d="m131.14,40.5c-2.21-1.32-3.93-3.17-5.17-5.53-1.24-2.37-1.86-5.07-1.86-8.12s.62-5.74,1.86-8.09c1.24-2.35,2.97-4.18,5.17-5.5,2.2-1.32,4.73-1.98,7.58-1.98s5.38.66,7.61,1.98c2.23,1.32,3.96,3.16,5.2,5.5,1.24,2.35,1.86,5.04,1.86,8.09s-.62,5.75-1.86,8.12c-1.24,2.37-2.98,4.21-5.2,5.53-2.23,1.32-4.76,1.98-7.61,1.98s-5.37-.66-7.58-1.98Zm13.59-2.41c1.76-1.08,3.13-2.61,4.09-4.57.96-1.96,1.44-4.19,1.44-6.68s-.48-4.7-1.44-6.65c-.96-1.94-2.33-3.47-4.09-4.57-1.76-1.1-3.77-1.65-6.01-1.65s-4.24.55-5.98,1.65c-1.74,1.1-3.1,2.63-4.06,4.57-.96,1.95-1.44,4.16-1.44,6.65s.48,4.71,1.44,6.68c.96,1.96,2.32,3.49,4.06,4.57,1.74,1.08,3.74,1.62,5.98,1.62s4.25-.54,6.01-1.62Z" style="fill:#000000; stroke:#000000; stroke-miterlimit:10; stroke-width:.89px;"/><path d="m182.36,13.17c2.19,1.26,3.89,3.08,5.11,5.44,1.22,2.37,1.83,5.11,1.83,8.24s-.61,5.75-1.83,8.12c-1.22,2.37-2.93,4.21-5.11,5.53-2.19,1.32-4.66,1.98-7.43,1.98s-5.28-.66-7.31-1.98c-2.03-1.32-3.48-3.13-4.36-5.41v19.07h-3.07V11.63h2.65l.48,6.98c1-2.25,2.5-4.03,4.48-5.35,1.98-1.32,4.36-1.98,7.13-1.98s5.24.63,7.43,1.89Zm-1.68,24.93c1.74-1.08,3.1-2.61,4.06-4.57.96-1.96,1.44-4.19,1.44-6.68s-.48-4.7-1.44-6.65c-.96-1.94-2.32-3.47-4.06-4.57-1.74-1.1-3.74-1.65-5.98-1.65s-4.24.55-5.98,1.65c-1.74,1.1-3.1,2.63-4.06,4.57-.96,1.95-1.44,4.14-1.44,6.59s.48,4.77,1.44,6.74c.96,1.96,2.32,3.49,4.06,4.57,1.74,1.08,3.74,1.62,5.98,1.62s4.24-.54,5.98-1.62Z" style="fill:#000000; stroke:#000000; stroke-miterlimit:10; stroke-width:.89px;"/><path d="m196.85,18.73c1.18-2.37,2.85-4.2,4.99-5.5,2.14-1.3,4.58-1.95,7.31-1.95s5.07.57,7.16,1.71c2.08,1.14,3.74,2.8,4.96,4.96,1.22,2.17,1.87,4.73,1.95,7.7,0,.56-.02.98-.06,1.26h-24.84c-.04.16-.06.4-.06.72.04,2.37.54,4.46,1.5,6.29.96,1.83,2.29,3.25,3.97,4.27,1.68,1.02,3.59,1.53,5.71,1.53,2.49,0,4.65-.69,6.5-2.08,1.84-1.38,3.07-3.26,3.67-5.62h3.13c-.72,3.13-2.26,5.65-4.6,7.58-2.35,1.92-5.16,2.89-8.45,2.89-2.85,0-5.38-.66-7.61-1.98-2.23-1.32-3.95-3.17-5.17-5.53-1.22-2.37-1.83-5.07-1.83-8.12s.59-5.75,1.77-8.12Zm23.19,5.59c-.28-3.29-1.39-5.83-3.34-7.64-1.95-1.8-4.44-2.71-7.49-2.71-1.85,0-3.55.43-5.11,1.29-1.56.86-2.85,2.07-3.85,3.64-1,1.56-1.58,3.37-1.74,5.41h21.53Z" style="fill:#000000; stroke:#000000; stroke-miterlimit:10; stroke-width:.89px;"/><path d="m233.09,1.05c.4.4.6.92.6,1.56s-.2,1.16-.6,1.56c-.4.4-.92.6-1.56.6-.6,0-1.11-.2-1.53-.6-.42-.4-.63-.92-.63-1.56s.21-1.16.63-1.56c.42-.4.93-.6,1.53-.6.64,0,1.16.2,1.56.6Zm-3.07,10.59h3.07v30.5h-3.07V11.63Z" style="fill:#000000; stroke:#000000; stroke-miterlimit:10; stroke-width:.89px;"/><path d="m269,11.63v30.5h-2.65l-.48-6.98c-1,2.21-2.51,3.98-4.51,5.32-2.01,1.34-4.37,2.01-7.1,2.01s-5.24-.64-7.43-1.92c-2.19-1.28-3.89-3.1-5.11-5.44-1.22-2.35-1.83-5.1-1.83-8.27s.61-5.69,1.83-8.06c1.22-2.37,2.93-4.21,5.11-5.53,2.18-1.32,4.66-1.98,7.43-1.98s5.15.65,7.16,1.95c2,1.3,3.49,3.06,4.45,5.26l.48-6.86h2.65Zm-8.51,26.47c1.74-1.08,3.1-2.6,4.06-4.54.96-1.94,1.44-4.16,1.44-6.65s-.48-4.71-1.44-6.68c-.96-1.96-2.32-3.5-4.06-4.6-1.74-1.1-3.74-1.65-5.98-1.65s-4.24.55-5.98,1.65c-1.74,1.1-3.1,2.63-4.06,4.57-.96,1.95-1.44,4.16-1.44,6.65s.48,4.71,1.44,6.68c.96,1.96,2.32,3.49,4.06,4.57,1.74,1.08,3.74,1.62,5.98,1.62s4.24-.54,5.98-1.62Z" style="fill:#000000; stroke:#000000; stroke-miterlimit:10; stroke-width:.89px;"/><rect y="43.76" width="45.73" height="3.45" style="fill:#000000;"/><rect y="24.15" width="45.73" height="3.45" style="fill:#000000;"/><rect y="4.54" width="45.73" height="3.45" style="fill:#000000;"/><rect x="9" y="33.99" width="45.73" height="3.45" style="fill:#000000;"/><rect x="9" y="14.38" width="45.73" height="3.45" style="fill:#000000;"/></g></svg>