<svg viewBox="0 0 128 49" fill="none" xmlns="http://www.w3.org/2000/svg">
<path d="M32.4323 19.3354C33.4318 19.3354 34.3676 19.2081 35.2183 18.9604C36.0761 18.7128 36.8559 18.3025 37.5506 17.7436C38.2524 17.1847 38.8833 16.456 39.4434 15.5575C40.0034 14.659 40.4925 13.5624 40.9108 12.2677H36.8417C36.7566 12.7488 36.5794 13.2157 36.3242 13.6685C36.0619 14.1142 35.7429 14.5104 35.3672 14.85C34.9843 15.1896 34.5519 15.4513 34.0557 15.6494C33.5594 15.8475 33.0419 15.9466 32.489 15.9466C31.7447 15.9466 31.1066 15.8192 30.582 15.5575C30.0575 15.2957 29.625 14.949 29.2847 14.5104C28.9445 14.0718 28.6964 13.5624 28.5333 12.9964C28.3703 12.4233 28.2852 11.822 28.2852 11.1852C28.2852 10.308 28.4057 9.4024 28.6467 8.48267C28.8878 7.56295 29.2564 6.72105 29.7526 5.97112C30.2489 5.22119 30.8798 4.60569 31.6454 4.13168C32.411 3.65767 33.3184 3.41712 34.3534 3.41712C35.3884 3.41712 36.1399 3.70719 36.7566 4.28732C37.3734 4.86746 37.6782 5.7235 37.6782 6.86255H41.7544C41.7686 5.73765 41.5984 4.75426 41.2369 3.89821C40.8754 3.04216 40.3579 2.32761 39.6915 1.74747C39.0251 1.16734 38.2311 0.735778 37.3166 0.438637C36.4022 0.148571 35.4026 0 34.3322 0C32.7726 0 31.3689 0.304216 30.1142 0.905573C28.8594 1.50693 27.796 2.32761 26.9241 3.35345C26.0521 4.37929 25.3787 5.56786 24.9108 6.91207C24.4429 8.25628 24.209 9.68539 24.209 11.1852C24.209 13.8241 24.925 15.8475 26.3499 17.2413C27.7748 18.6421 29.8022 19.3354 32.4323 19.3354Z" fill="black"/>
<path d="M44.4054 17.8216C45.5184 18.7767 47.0142 19.2578 48.8786 19.2578C50.105 19.2578 51.2038 19.0385 52.1609 18.6069C53.1179 18.1753 53.9402 17.5811 54.6137 16.8241C55.2871 16.0671 55.8046 15.1686 56.1591 14.1427C56.5135 13.1169 56.6908 12.0132 56.6908 10.8388C56.6908 9.86954 56.5419 9.03471 56.2371 8.32723C55.9322 7.61975 55.5069 7.03254 54.954 6.56561C54.401 6.09867 53.7417 5.75201 52.969 5.51854C52.1963 5.28507 51.3527 5.17188 50.4382 5.17188C49.2473 5.17188 48.1697 5.39119 47.2198 5.82983C46.2699 6.26847 45.4617 6.86982 44.7953 7.62683C44.129 8.38383 43.6186 9.26818 43.2641 10.2799C42.9096 11.2916 42.7324 12.3669 42.7324 13.506C42.7324 15.4232 43.2925 16.8594 44.4054 17.8145V17.8216ZM46.6527 11.6878C46.8086 11.044 47.0426 10.4426 47.3545 9.89076C47.6664 9.33893 48.0705 8.87906 48.5596 8.5041C49.0488 8.13621 49.6372 7.94519 50.3106 7.94519C51.296 7.94519 51.9907 8.21403 52.4019 8.74464C52.806 9.28233 53.0116 9.99688 53.0116 10.8954C53.0116 11.4614 52.9336 12.0769 52.7776 12.7348C52.6217 13.3928 52.3806 14.0012 52.0616 14.5601C51.7426 15.119 51.3385 15.586 50.8423 15.9609C50.3461 16.3359 49.7577 16.5198 49.0629 16.5198C48.6305 16.5198 48.2477 16.4349 47.9216 16.2722C47.5955 16.1095 47.319 15.8902 47.0922 15.6143C46.8653 15.3383 46.6952 15.02 46.5889 14.6592C46.4754 14.2984 46.4187 13.9163 46.4187 13.5201C46.4187 12.9541 46.4967 12.3457 46.6527 11.6948V11.6878Z" fill="black"/>
<path d="M62.7314 11.7442C62.8164 11.3267 62.9582 10.9093 63.1496 10.4778C63.341 10.0462 63.575 9.6571 63.8656 9.30336C64.1492 8.94962 64.4894 8.65248 64.8793 8.42608C65.2692 8.19261 65.7017 8.07942 66.1908 8.07942C66.68 8.07942 67.0415 8.22091 67.3463 8.49683C67.6512 8.77275 67.8 9.11234 67.8 9.50853C67.8 9.80567 67.7646 10.124 67.6937 10.4636L65.9285 18.9321H69.6361L71.139 11.7583C71.2241 11.3409 71.3658 10.9235 71.5572 10.4919C71.7486 10.0604 71.9826 9.67125 72.2732 9.31751C72.5568 8.96377 72.8971 8.66662 73.287 8.44023C73.6769 8.20676 74.1164 8.09357 74.5984 8.09357C75.0805 8.09357 75.4491 8.23506 75.754 8.51098C76.0588 8.7869 76.2077 9.12649 76.2077 9.52267C76.2077 9.81982 76.1722 10.1382 76.1013 10.4778L74.3361 18.9463H78.0083L78.0366 18.9746L79.5395 11.8008C79.6246 11.3833 79.7664 10.9659 79.9578 10.5344C80.1492 10.1028 80.3831 9.71369 80.6738 9.35995C80.9573 9.00621 81.2976 8.70907 81.6875 8.48268C81.7513 8.44731 81.8151 8.41901 81.8789 8.38363C82.2192 8.22091 82.5949 8.13602 83.0061 8.12894C83.4669 8.12894 83.8497 8.27044 84.1545 8.53928C84.4593 8.8152 84.6082 9.15479 84.6082 9.55097C84.6082 9.84812 84.5727 10.1665 84.5019 10.5061L82.7367 18.9746H86.4584L87.9613 11.8008C88.0464 11.3833 88.1882 10.9659 88.3796 10.5344C88.571 10.1028 88.8049 9.71369 89.0956 9.35995C89.3791 9.00621 89.7194 8.70907 90.1093 8.48268C90.4992 8.24921 90.9387 8.13602 91.4208 8.13602C91.9028 8.13602 92.2715 8.27751 92.5763 8.55343C92.8811 8.82935 93.03 9.16894 93.03 9.56512C93.03 9.86226 92.9945 10.1806 92.9237 10.5202L91.1585 18.9887H94.8448L96.5036 11.1216C96.5887 10.7254 96.6738 10.3151 96.7659 9.89056C96.851 9.46608 96.8935 9.04866 96.8935 8.63833C96.8935 8.07234 96.7801 7.57003 96.5533 7.13847C96.3264 6.70691 96.0287 6.35317 95.6459 6.07725C95.263 5.80134 94.8306 5.59617 94.3344 5.45467C93.8381 5.32025 93.3348 5.2495 92.8173 5.2495C92.3849 5.2495 91.9454 5.3061 91.5058 5.4193C91.0663 5.53249 90.6481 5.68814 90.2511 5.90038C89.8541 6.10555 89.4784 6.35317 89.1381 6.63616C88.8049 6.91208 88.5284 7.21629 88.3087 7.54881C88.2591 7.40731 88.2094 7.27289 88.1385 7.14554C87.9117 6.71398 87.614 6.36024 87.2311 6.08433C86.8483 5.80841 86.4159 5.60324 85.9197 5.46174C85.4234 5.32732 84.9201 5.25658 84.4026 5.25658C83.9702 5.25658 83.5307 5.31317 83.0911 5.42637C82.6516 5.53957 82.2334 5.69521 81.8364 5.90746C81.4394 6.11263 81.0637 6.36024 80.7234 6.64323C80.3973 6.91208 80.1279 7.20922 79.9081 7.53466C79.8585 7.39316 79.8089 7.25167 79.738 7.12432C79.5112 6.69276 79.2134 6.33902 78.8306 6.0631C78.4478 5.78719 78.0154 5.58202 77.5191 5.44052C77.0229 5.3061 76.5196 5.23535 76.0021 5.23535C75.5696 5.23535 75.1301 5.29195 74.6906 5.40515C74.2511 5.51834 73.8328 5.67399 73.4358 5.88623C73.0388 6.0914 72.6631 6.33902 72.3229 6.62201C71.9755 6.905 71.6919 7.22337 71.4651 7.57003C71.3091 6.74228 70.9405 6.148 70.3521 5.78011C69.7637 5.4193 69.0548 5.23535 68.2254 5.23535C67.24 5.23535 66.3468 5.4193 65.5528 5.78011C64.7588 6.14093 64.0854 6.71398 63.5324 7.49221H63.4828L63.9011 5.60324H60.3707L57.5918 18.9887H61.2498L62.7526 11.8149L62.7314 11.7442Z" fill="black"/>
<path d="M100.282 17.8216C101.395 18.7767 102.891 19.2578 104.756 19.2578C105.982 19.2578 107.081 19.0385 108.038 18.6069C108.995 18.1753 109.817 17.5811 110.491 16.8241C111.164 16.0671 111.682 15.1686 112.036 14.1427C112.39 13.1169 112.568 12.0132 112.568 10.8388C112.568 9.86954 112.419 9.03471 112.114 8.32723C111.809 7.61975 111.384 7.03254 110.831 6.56561C110.278 6.09867 109.619 5.75201 108.846 5.51854C108.073 5.28507 107.23 5.17188 106.315 5.17188C105.124 5.17188 104.047 5.39119 103.097 5.82983C102.147 6.26847 101.339 6.86982 100.672 7.62683C100.006 8.38383 99.4955 9.26818 99.1411 10.2799C98.7866 11.2916 98.6094 12.3669 98.6094 13.506C98.6094 15.4232 99.1694 16.8594 100.282 17.8145V17.8216ZM102.53 11.6878C102.686 11.044 102.92 10.4426 103.231 9.89076C103.543 9.33893 103.947 8.87906 104.437 8.5041C104.926 8.13621 105.514 7.94519 106.188 7.94519C107.173 7.94519 107.868 8.21403 108.279 8.74464C108.683 9.28233 108.889 9.99688 108.889 10.8954C108.889 11.4614 108.811 12.0769 108.655 12.7348C108.499 13.3928 108.258 14.0012 107.939 14.5601C107.62 15.119 107.215 15.586 106.719 15.9609C106.223 16.3359 105.635 16.5198 104.94 16.5198C104.507 16.5198 104.125 16.4349 103.799 16.2722C103.472 16.1095 103.196 15.8902 102.969 15.6143C102.742 15.3383 102.572 15.02 102.466 14.6592C102.352 14.2984 102.296 13.9163 102.296 13.5201C102.296 12.9541 102.374 12.3457 102.53 11.6948V11.6878Z" fill="black"/>
<path d="M124.079 5.17211C122.144 5.17211 120.577 5.91497 119.386 7.40067H119.336L119.755 5.53293H116.224L113.445 18.9184H117.103L118.606 11.8012C118.712 11.3343 118.861 10.8815 119.06 10.4287C119.258 9.98297 119.506 9.57971 119.811 9.24012C120.116 8.89345 120.478 8.61754 120.903 8.39822C121.328 8.18597 121.817 8.07278 122.37 8.07278C122.803 8.07278 123.207 8.20012 123.576 8.46189C123.944 8.72366 124.136 9.0491 124.136 9.44529C124.136 9.63631 124.107 9.90515 124.043 10.2447C123.98 10.5914 123.937 10.8673 123.902 11.0725L122.264 18.9184H125.95L127.609 11.0725C127.623 10.9522 127.659 10.7895 127.701 10.5914C127.744 10.3933 127.786 10.1811 127.829 9.95467C127.872 9.72828 127.914 9.50896 127.942 9.29672C127.978 9.08447 127.992 8.90053 127.992 8.76611C127.992 6.36775 126.688 5.16504 124.072 5.16504L124.079 5.17211Z" fill="black"/>
<path d="M28.5406 39.6755L29.9159 33.0251H32.5388L33.1131 30.5631H30.4688L31.2983 26.4951H27.6119L26.7825 30.5631H24.4219L23.8477 33.0251H26.2579L24.7551 40.199C24.7054 40.4395 24.6629 40.673 24.6275 40.8852C24.592 41.1046 24.5778 41.2956 24.5778 41.4654C24.5637 42.0172 24.6487 42.47 24.8472 42.8096C25.0457 43.1563 25.3151 43.4251 25.6483 43.6232C25.9886 43.8213 26.3643 43.9628 26.7896 44.0406C27.215 44.1184 27.6403 44.1609 28.0727 44.1609C28.4697 44.1609 28.8596 44.1467 29.2424 44.1184C29.6252 44.0901 30.001 44.0618 30.3838 44.0265L31.0076 41.2036C30.5752 41.2531 30.1356 41.2814 29.6819 41.2814C29.5402 41.2814 29.3984 41.2814 29.2566 41.2673C29.1077 41.2602 28.973 41.2178 28.8525 41.1541C28.732 41.0833 28.6328 40.9843 28.5548 40.8569C28.4768 40.7296 28.4414 40.5386 28.4414 40.298C28.4414 40.2485 28.4485 40.1636 28.4697 40.0504C28.4839 39.9372 28.5123 39.8169 28.5477 39.6755H28.5406Z" fill="black"/>
<path d="M43.1934 30.2028C42.5908 30.2028 42.045 30.2664 41.5558 30.3938C41.0738 30.5211 40.6484 30.6838 40.2869 30.8749C39.9254 31.0659 39.6134 31.2711 39.3511 31.4974C39.0888 31.7238 38.8904 31.929 38.7557 32.12H38.706L40.0813 25.4697H36.395L32.5527 43.9562H36.2107L37.7136 36.8389C37.8199 36.372 37.9688 35.9192 38.1673 35.4664C38.3658 35.0207 38.6139 34.6174 38.9187 34.2778C39.2235 33.9312 39.5851 33.6553 40.0104 33.4359C40.4358 33.2237 40.9249 33.1105 41.4779 33.1105C41.9103 33.1105 42.3144 33.2378 42.683 33.4996C43.0516 33.7614 43.243 34.0868 43.243 34.483C43.243 34.674 43.2147 34.9429 43.1509 35.2825C43.0871 35.6291 43.0445 35.905 43.0091 36.1102L41.3715 43.9562H45.0578L46.7167 36.1102C46.7308 35.9899 46.7663 35.8272 46.8088 35.6291C46.8514 35.431 46.8939 35.2188 46.9364 34.9924C46.979 34.766 47.0215 34.5467 47.0499 34.3344C47.0853 34.1222 47.0995 33.9453 47.0995 33.8038C47.0995 31.4055 45.7951 30.2028 43.1792 30.2028H43.1934Z" fill="black"/>
<path d="M51.6504 28.4899H55.3651L56.0385 25.4619H52.3309L51.6504 28.4899Z" fill="black"/>
<path d="M48.4121 43.949H52.0984L54.9482 30.5635H51.2406L48.4121 43.949Z" fill="black"/>
<path d="M65.7644 30.2024C63.8291 30.2024 62.2625 30.9452 61.0715 32.4309H61.0219L61.4401 30.5632H57.9098L55.1309 43.9487H58.7888L60.2917 36.8315C60.398 36.3645 60.5469 35.9117 60.7454 35.459C60.9439 35.0132 61.192 34.61 61.4968 34.2704C61.8017 33.9237 62.1632 33.6478 62.5885 33.4285C63.0139 33.2162 63.503 33.1031 64.056 33.1031C64.4884 33.1031 64.8925 33.2304 65.2611 33.4922C65.6298 33.7539 65.8212 34.0794 65.8212 34.4756C65.8212 34.6666 65.7928 34.9354 65.729 35.275C65.6652 35.6217 65.6227 35.8976 65.5872 36.1028L63.9496 43.9487H67.636L69.2948 36.1028C69.309 35.9825 69.3444 35.8198 69.387 35.6217C69.4295 35.4236 69.472 35.2113 69.5146 34.9849C69.5571 34.7586 69.5996 34.5392 69.628 34.327C69.6634 34.1147 69.6776 33.9379 69.6776 33.7964C69.6776 31.398 68.3732 30.1953 65.7574 30.1953L65.7644 30.2024Z" fill="black"/>
<path d="M86.2877 30.5628H81.7436L76.4552 35.5576L76.3985 35.5081L78.5323 25.4619H74.846L70.9824 43.9483H74.6404L75.5478 39.5973L77.4618 37.9701L79.6736 43.9483H83.7144L80.2691 35.6355L86.2877 30.5628Z" fill="black"/>
<path d="M88.6484 28.4899H92.356L93.0295 25.4619H89.3219L88.6484 28.4899Z" fill="black"/>
<path d="M85.4023 43.949H89.0887L91.9385 30.5635H88.2309L85.4023 43.949Z" fill="black"/>
<path d="M102.757 30.2024C100.821 30.2024 99.2546 30.9452 98.0637 32.4309H98.0141L98.4323 30.5632H94.902L92.123 43.9487H95.781L97.2839 36.8315C97.3902 36.3645 97.5391 35.9117 97.7376 35.459C97.9361 35.0132 98.1842 34.61 98.489 34.2704C98.7938 33.9237 99.1554 33.6478 99.5807 33.4285C100.006 33.2162 100.495 33.1031 101.048 33.1031C101.481 33.1031 101.885 33.2304 102.253 33.4922C102.622 33.7539 102.813 34.0794 102.813 34.4756C102.813 34.6666 102.785 34.9354 102.721 35.275C102.657 35.6217 102.615 35.8976 102.579 36.1028L100.942 43.9487H104.628L106.287 36.1028C106.301 35.9825 106.337 35.8198 106.379 35.6217C106.422 35.4236 106.464 35.2113 106.507 34.9849C106.549 34.7586 106.592 34.5392 106.62 34.327C106.656 34.1147 106.67 33.9379 106.67 33.7964C106.67 31.398 105.365 30.1953 102.75 30.1953L102.757 30.2024Z" fill="black"/>
<path d="M119.62 32.6078H119.57C119.188 31.7305 118.642 31.108 117.933 30.7401C117.224 30.3793 116.402 30.1953 115.466 30.1953C114.395 30.1953 113.438 30.4359 112.602 30.9099C111.765 31.3839 111.056 32.0065 110.475 32.7705C109.894 33.5417 109.454 34.4048 109.149 35.3599C108.845 36.315 108.696 37.2913 108.696 38.2747C108.696 39.1025 108.816 39.8524 109.057 40.5174C109.298 41.1825 109.639 41.7555 110.085 42.2366C110.525 42.7177 111.063 43.0927 111.709 43.3473C112.347 43.6091 113.063 43.7365 113.864 43.7365C115.367 43.7365 116.593 43.1068 117.55 41.8475L117.6 41.897C117.408 42.5337 117.217 43.1422 117.025 43.7082C116.834 44.2812 116.6 44.7694 116.324 45.1868C116.047 45.5971 115.714 45.9296 115.324 46.1702C114.934 46.4107 114.445 46.531 113.857 46.531C113.559 46.531 113.268 46.4956 112.978 46.4249C112.68 46.3541 112.417 46.2409 112.184 46.0853C111.95 45.9296 111.765 45.7316 111.624 45.491C111.482 45.2505 111.425 44.9533 111.439 44.6137H107.781C107.781 45.4273 107.951 46.1065 108.285 46.6583C108.625 47.2102 109.064 47.663 109.61 48.0026C110.156 48.3492 110.766 48.5968 111.453 48.7525C112.134 48.9081 112.814 48.986 113.488 48.986C114.594 48.986 115.558 48.8728 116.38 48.6464C117.203 48.42 117.912 48.0804 118.507 47.6134C119.102 47.1465 119.592 46.5522 119.974 45.8235C120.357 45.1019 120.655 44.2388 120.882 43.2342L123.554 30.5491H120.024L119.606 32.5937L119.62 32.6078ZM118.542 37.6309C118.379 38.2323 118.138 38.7841 117.819 39.2723C117.5 39.7675 117.096 40.1708 116.6 40.4891C116.104 40.8075 115.53 40.9702 114.877 40.9702C114.445 40.9702 114.076 40.8924 113.764 40.7368C113.452 40.5811 113.19 40.3689 112.985 40.0859C112.779 39.81 112.623 39.4916 112.531 39.1378C112.439 38.7841 112.389 38.4091 112.389 38.013C112.389 37.4753 112.474 36.9093 112.637 36.315C112.8 35.7207 113.041 35.176 113.353 34.6807C113.665 34.1855 114.055 33.7822 114.523 33.4497C114.991 33.1243 115.537 32.9545 116.161 32.9545C117.061 32.9545 117.727 33.2233 118.16 33.7681C118.592 34.3128 118.805 35.0062 118.805 35.8551C118.805 36.4211 118.72 37.0083 118.557 37.6168L118.542 37.6309Z" fill="black"/>
<path style="mix-blend-mode:multiply" opacity="0.9" d="M12.7674 14.0713H8.96057L7.35844 20.7782H0.864865L0 24.3934H6.49358L4.89145 31.1003H8.69827L10.3004 24.3934H17.0634L17.9282 20.7782H11.1653L12.7674 14.0713Z" fill="url(#paint0_linear_108_704)"/>
<defs>
<linearGradient id="paint0_linear_108_704" x1="0" y1="22.5823" x2="17.9282" y2="22.5823" gradientUnits="userSpaceOnUse">
<stop stop-color="#F1D8EF"/>
<stop offset="0.13" stop-color="#DBC4E0"/>
<stop offset="0.41" stop-color="#A391BA"/>
<stop offset="0.81" stop-color="#4A3F7E"/>
<stop offset="1" stop-color="#1E1760"/>
</linearGradient>
</defs>
</svg>
