<svg id="Capa_1" data-name="Capa 1" xmlns="http://www.w3.org/2000/svg" viewBox="0 0 382.06 194.39"><defs><style>.cls-1{fill:#00365b;}</style></defs><title>Logo_RestaurantsEscriba</title><path class="cls-1" d="M348.3,363h6.21a6.53,6.53,0,0,1,4.78,1.69,5.14,5.14,0,0,1,1.43,3.74v.06a5.19,5.19,0,0,1-4.31,5.25l4.89,7.46H359l-4.58-7.07h-4.13v7.07H348.3Zm5.87,9.36c3,0,4.6-1.48,4.6-3.8v-.05c0-2.39-1.66-3.72-4.39-3.72h-4.13v7.57Z" transform="translate(-230.76 -187.09)"/><path class="cls-1" d="M367,363h11.1v1.79H369v6.35h8.22v1.77H369v6.5h9.28v1.79H367Z" transform="translate(-230.76 -187.09)"/><path class="cls-1" d="M383.14,378.88l1.22-1.49a7.22,7.22,0,0,0,5.12,2.27c2.18,0,3.64-1.33,3.64-3.07v0c0-1.51-.73-2.47-4-3.64-3.77-1.4-5.25-2.75-5.25-5.33v0c0-2.73,2.29-4.81,5.48-4.81a7.91,7.91,0,0,1,5.46,2l-1.17,1.51a6.52,6.52,0,0,0-4.36-1.77c-2.08,0-3.44,1.28-3.44,2.84v.05c0,1.59.81,2.5,4.24,3.74,3.69,1.38,5.05,2.86,5.05,5.28v.05c0,2.92-2.4,5-5.65,5A8.93,8.93,0,0,1,383.14,378.88Z" transform="translate(-230.76 -187.09)"/><path class="cls-1" d="M404.69,364.81h-5.1V363h12.17v1.82h-5.12v16.38h-1.95Z" transform="translate(-230.76 -187.09)"/><path class="cls-1" d="M421.2,362.89h1.92l6.95,18.3H428l-1.77-4.78H418l-1.77,4.78h-2Zm4.37,11.75-3.43-9.23-3.46,9.23Z" transform="translate(-230.76 -187.09)"/><path class="cls-1" d="M434.93,374.4V363h1.95v11.36c0,3.43,1.74,5.33,4.6,5.33s4.55-1.79,4.55-5.25V363h2V374.3c0,4.68-2.63,7.18-6.55,7.18S434.93,379,434.93,374.4Z" transform="translate(-230.76 -187.09)"/><path class="cls-1" d="M454.74,363H461a6.55,6.55,0,0,1,4.79,1.69,5.18,5.18,0,0,1,1.43,3.74v.06a5.2,5.2,0,0,1-4.32,5.25l4.89,7.46H465.4l-4.58-7.07h-4.13v7.07h-1.95Zm5.88,9.36c3,0,4.6-1.48,4.6-3.8v-.05c0-2.39-1.67-3.72-4.4-3.72h-4.13v7.57Z" transform="translate(-230.76 -187.09)"/><path class="cls-1" d="M479,362.89H481l6.94,18.3h-2.08L484,376.41h-8.19l-1.77,4.78h-2Zm4.37,11.75L480,365.41l-3.46,9.23Z" transform="translate(-230.76 -187.09)"/><path class="cls-1" d="M493.53,363h1.85l9.51,14.33V363h1.93v18.2h-1.64l-9.75-14.66v14.66h-1.9Z" transform="translate(-230.76 -187.09)"/><path class="cls-1" d="M517.68,364.81h-5.09V363h12.17v1.82h-5.13v16.38h-2Z" transform="translate(-230.76 -187.09)"/><path class="cls-1" d="M529,378.88l1.22-1.49a7.22,7.22,0,0,0,5.12,2.27c2.19,0,3.64-1.33,3.64-3.07v0c0-1.51-.73-2.47-4-3.64-3.77-1.4-5.25-2.75-5.25-5.33v0c0-2.73,2.29-4.81,5.49-4.81a7.94,7.94,0,0,1,5.46,2l-1.17,1.51a6.56,6.56,0,0,0-4.37-1.77c-2.08,0-3.44,1.28-3.44,2.84v.05c0,1.59.81,2.5,4.24,3.74,3.7,1.38,5,2.86,5,5.28v.05c0,2.92-2.39,5-5.64,5A9,9,0,0,1,529,378.88Z" transform="translate(-230.76 -187.09)"/><path class="cls-1" d="M271.91,315.41c5.71,7.52,19.65,7.94,28.16,8.51a176.12,176.12,0,0,0,31.05-1c9.58-1.06,20-1.94,28.8-6.18,3.48-1.68,3.35-8-.79-8.8-7.23-1.39-14.78,2.44-21.94,3.57A187.06,187.06,0,0,1,310,313.75c-9.21.12-19.51-.09-28.17-3.61-2.69-1.09-2.91-2.93-1.71-5.08,3.39-.5,6.8-.91,10.18-1.26,10.65-1.13,21.37-2.36,32-4,5.81-.9,14.26-2,17.87-7.35,1.91-2.8-2-5.79-4.42-3.69-1.86,1.59-7.17,1.85-9.48,2.32a140,140,0,0,1-14.44,1.68c-6.73.67-13.47,1.31-20.19,2,4.15-2.84,8.07-5.12,9.31-5.83,2.26-1.3,4.59-2.47,6.91-3.61,7.87-.78,15.73-1.6,23.58-2.53,10.5-1.25,20.94-2.67,31.29-4.87,6.87-1.45,14.31-3,15.58-11,.29-1.88-2-2.87-3.47-2.18-8.21,3.95-16.25,5.24-25.21,6.62-7.24,1.12-14.5,2.05-21.77,2.91,4.95-3,10.39-6,14.41-9.77a.72.72,0,0,0-.46-1.24c-3.29-.5-6,1.37-8.76,3-4.29,2.41-8.63,4.76-13,7.09-1.59.86-3.21,1.67-4.84,2.45-8.33,1.07-16.58,2.66-24.92,3.58-6.34.7-12.65,2.06-16.63,7.4-1.28,1.71,1,3.84,2.7,2.93,4.06-2.13,8.72-2.65,13.39-2.9a56.59,56.59,0,0,0-14.62,9.84,162.54,162.54,0,0,0-19.44,4.29c-8.11,2.3-17.77,5.71-23.61,12.08-3.51,3.84.51,10.58,5.52,7.76,8-4.52,15.46-8.72,24.28-11.56,2.42-.79,4.88-1.45,7.36-2A11.74,11.74,0,0,0,271.91,315.41Z" transform="translate(-230.76 -187.09)"/><path class="cls-1" d="M400.81,287.69c5.77,1.77,8.61-7.18,2.84-8.9-7.82-2.35-16.41-3.58-24.29-.82-4.73,1.65-10.08,7.17-5.5,12,4.12,4.35,10.56,4.82,15,8.77,5.13,4.57-7,4.32-8.48,4.32-1.66,0-3.3-.08-5-.24-4.59-.45-1-3.19,1.66-3.44,2.14-.2,2.42-3.45.13-3.45a15.05,15.05,0,0,0-9.42,2.93c-2.78,2.22-1.6,6.93,1,8.67,6.17,4.14,17.21,4.19,23.82,1.22,10-4.48,2.24-15.87-4.36-18.79-1.52-.67-3.07-1.26-4.58-1.91a25.29,25.29,0,0,1-2.88-1.49l.13-.06C386.16,283.58,395.5,286.07,400.81,287.69Z" transform="translate(-230.76 -187.09)"/><path class="cls-1" d="M490.49,311.33c.57,3.31,4.75,3.38,6.49,1.12,2.69-3.51,4.3-8.39,5.91-12.49,1.85-4.75,6.05-7.58,6.7-12.92.43-3.49-3.54-4.42-5.86-2.84-3.64.88-6.35,4.21-9.09,6.76-2.19,2.05-10.28,9-13.84,5.83a10,10,0,0,1-2.34-4c4.68-.74,10.41-2.16,13-6.62,1.86-3.2,2.53-7.18-.19-10.19-7.66-8.51-18.18-5.19-26.13.68a46.78,46.78,0,0,0-4.85,4.15,11.22,11.22,0,0,1-3.1-2.15c-4.76-4.86-12.6,2.45-7.72,7.13a20.57,20.57,0,0,0,3.77,2.84l-.62.74c-3,3.7-7.53,9-7.22,14.1.11,2,3,3.39,4.37,2.34,3.83-2.88,6.9-8.4,9.72-12.06.49-.64,1-1.27,1.51-1.9a42.52,42.52,0,0,0,8.74,1.36c.39,9.37,8.4,13.84,16.78,11.14a28.57,28.57,0,0,0,6.5-3.1C491.24,304.4,489.82,307.53,490.49,311.33Zm-16.71-27.71c-1.24-.12-2.64-.25-4.09-.42a42.68,42.68,0,0,1,5.86-3.91c2.79-1.56,12.54-2.58,10.47,1.79C484.17,285,477,284,473.78,283.62Z" transform="translate(-230.76 -187.09)"/><path class="cls-1" d="M509.94,278.2a17,17,0,0,1,4.31-3.08c2.6-1.33,1-5.25-1.76-4.69a14.93,14.93,0,0,0-6.84,3.13,3.16,3.16,0,1,0,4.29,4.64Z" transform="translate(-230.76 -187.09)"/><path class="cls-1" d="M573.42,272c3.05,1.34,6.88,2.75,10.45,1.5,2.73-.95,3.2-2.69,2.08-4.44s-4.65-2.41-7.44-3a17.51,17.51,0,0,0-6.8-.3l-.24,0c-1.61.19-2.46,1.17-2.18,2.15C569.34,269.52,571.4,271.1,573.42,272Z" transform="translate(-230.76 -187.09)"/><path class="cls-1" d="M445.88,244c-.18-3.8-.44-7.39-2.1-10.79a1.64,1.64,0,0,0-2.95.16c-1.3,3.54-1.21,7.22-1.4,11-.2,4.17-1.12,8.4-.09,12.49a2.87,2.87,0,0,0,5.43.48C446.6,253.28,446.08,248.36,445.88,244Z" transform="translate(-230.76 -187.09)"/><path class="cls-1" d="M427.82,260.24c1.14-4.85-.17-10.72-1.39-15.51-1-4.07-1.71-8.68-4.56-11.68a2,2,0,0,0-3.36.68c-1.49,3.93-.56,8.5.08,12.63.73,4.67.68,9.88,2.37,14.26C422.36,264.23,426.91,264.14,427.82,260.24Z" transform="translate(-230.76 -187.09)"/><path class="cls-1" d="M409.19,259.64c0-3.49-1.44-7.41-2.7-10.6-1.34-3.34-2.62-6.37-5-8.94-1.55-1.68-4.49-.21-4.21,2.23A65.14,65.14,0,0,0,399.51,253c1,3.56,1.73,6.84,4.08,9.65C405.76,265.19,409.23,262.6,409.19,259.64Z" transform="translate(-230.76 -187.09)"/><path class="cls-1" d="M346.49,242.22c4,2.81,7.55-3.09,5.58-6.95-2.25-4.42-5.65-7.43-8.94-10.86-2.66-2.77-8.13-7.57-8.34-12-.36-7.58,18.58-.05,22,1.22,12.28,4.61,24.34,12.54,37.44,13.8,13.68,1.31,23.89-4,33.78-14.09,4.9-5,10.08-11.21,16.61-13.55,6.31-2.26,13.11-2.3,19.69-1.56a124,124,0,0,1,41.11,12c4.67,2.32,13.72,6.76,13.5,13.78-.18,5.51-9.75,10.67-13.72,12.89-6.29,3.53-13.66,4.84-20.13,7.93-4.31,2.06-7.89,8.95-10.7,13.37-1.8,2.84,0,4.7,2,1.87,3.59-4.92,7.58-10.53,12.9-11.78,5.07-1.2,19.94-3.92,24.51-6.47,8.77-4.9,19.67-14.58,14.36-26.32-5.71-12.68-24.43-17.59-35.69-21.47-14.16-4.88-30.08-8.57-44.85-6s-21.92,16.3-34.08,24.05c-24.64,15.71-49.71-16.41-75-15-10.64.61-17.87,10.45-13.05,22C329.55,228.81,338.41,236.61,346.49,242.22Z" transform="translate(-230.76 -187.09)"/><path class="cls-1" d="M558.59,260.59a20.08,20.08,0,0,0,2.61-18.71c-2.48-6.27-7.89-13.34-15.34-13-7.28.37-7.75,11.79-.45,11.36,2.32-.14,4.62,3.17,5.79,4.84,2.34,3.32,1.6,6.64.38,10.19-2.18,6.38-7.7,11-12.17,15.8-3.13,3.34-7.49,6.65-11,10.41-4.48.57-8.63,2.1-10,5.74a1.73,1.73,0,0,0,1.57,2.24,14,14,0,0,0,3.43-.36,13.51,13.51,0,0,0-.86,4.13,2.41,2.41,0,0,0,.22,1.13,34.33,34.33,0,0,0-12.31,3.39c-6.29,3.23-.9,13.28,5.14,9.66,8.1-4.86,19.48-4.29,28.59-6,4.36-.83,14.11-3.41,12.08-10-2.3-7.44-9.76-9.36-16.76-9.93l-.77-.06c1.54-1.21,2.62-2.39,4-3.49C542.67,277.94,554.74,266,558.59,260.59ZM543.9,289.05c2.46.52,8,3.2,3,4.07-6.4,1.12-13,.72-19.45.95a17,17,0,0,1,3.36-5.85c1.94,0,3.9.11,5.76.13A36.59,36.59,0,0,1,543.9,289.05Z" transform="translate(-230.76 -187.09)"/><path class="cls-1" d="M609.19,292.05c-5.36-.07-10.09,3.17-15.4,3.6-6.15.49.23-8.16,1.84-10.22,2.5-3.21-.92-9.21-4.82-6.23a.13.13,0,0,1-.07.05c-6.92-.56-14.76,1.3-21.16,3.4-5.7,1.88-15.16,8.05-9.51,15,4.36,5.38,13.74.64,18.4-1.64q2.25-1.09,4.46-2.31a9.5,9.5,0,0,0,4.22,9.07c3.45,2.55,8.84,1.61,12.67.78A30.42,30.42,0,0,0,611.11,299C614,296.84,613.12,292.11,609.19,292.05Zm-29.68-5.36c-4.09,2.44-9.7,6.29-14.6,6.38a2.59,2.59,0,0,1,.67-1.79c2-2.5,5.33-4,8.18-5.14a52.38,52.38,0,0,1,12.11-3.44C583.79,284.09,581.65,285.41,579.51,286.69Z" transform="translate(-230.76 -187.09)"/><path class="cls-1" d="M419.58,293.13a40.85,40.85,0,0,1,7.3-1.27c4.6-.5,9.44-.42,13.94-1.58,4.85-1.24,3.87-9.42-1.27-8.82-8.77,1-36.38,0-32.26,15.57,1.72,6.47,9.58,8.93,15.39,9.32,3.67.26,7.1-.86,10.5-2,3.12-1.08,5.13-2.4,6.66-5.25a1.21,1.21,0,0,0-1.64-1.64,24.62,24.62,0,0,1-13.73,2.21,16.76,16.76,0,0,1-5.79-1.75,10.26,10.26,0,0,1-2.45-1.9c-.32-.33-.54-1.13-.65-1.1C416.08,294,418.82,293.35,419.58,293.13Z" transform="translate(-230.76 -187.09)"/><path class="cls-1" d="M545.55,318.19c-21,0-42,.27-63,.89-42.74,1.27-85.52,6.28-128.23,11.71-16.15,2-31.18,5-48.51,7.67-7.65,1.17-15.5,2.31-23.16,3.81-6,1.15-12.35,1.35-17.93,4.7-3.29,1.93-1.11,7.52,2.47,8.62,5.82,1.76,21.54-1.29,26.5-2.36,10.84-2.34,18.82-4.21,31-6.66,21.27-4.27,43.21-6.84,64.77-9.84s42.93-5,64.42-7c20.87-2,4.73-.09,25.59-2.81,35.91-4.68,132.3-3.93,129.73-4.49C588.52,318,566.81,318.14,545.55,318.19Z" transform="translate(-230.76 -187.09)"/></svg>