<?xml version="1.0" encoding="UTF-8"?><svg id="b" xmlns="http://www.w3.org/2000/svg" xmlns:xlink="http://www.w3.org/1999/xlink" viewBox="0 0 624.89 200.92"><defs><style>.e{fill:#F8F7F2;}.e,.f,.g,.h{stroke-width:0px;}.f{fill:#DF4661;}.g{fill:#fff;}.h{fill:url(#d);}</style><radialGradient id="d" cx="77.61" cy="77.61" fx="77.61" fy="77.61" r="77.61" gradientTransform="translate(144.06 153.35) rotate(-170.89) scale(1 .83)" gradientUnits="userSpaceOnUse"><stop offset=".34" stop-color="#FFA3B5"/><stop offset=".97" stop-color="#DF4661"/></radialGradient></defs><g id="c"><path class="g" d="M193.75,192.57c-2.49,0-4.59-.55-6.28-1.66-1.69-1.11-2.97-2.64-3.83-4.6s-1.29-4.22-1.29-6.78.43-4.82,1.29-6.78,2.13-3.49,3.83-4.6c1.69-1.11,3.79-1.66,6.28-1.66,2.91,0,5.27.75,7.09,2.26,1.81,1.51,3.05,3.53,3.7,6.05l-2.07.5c-.53-2.1-1.53-3.77-2.98-5-1.46-1.24-3.37-1.85-5.73-1.85-2.05,0-3.76.47-5.12,1.41-1.36.94-2.39,2.24-3.08,3.91-.69,1.67-1.04,3.59-1.05,5.76-.02,2.17.31,4.09,1,5.75.69,1.66,1.73,2.97,3.1,3.91,1.38.95,3.1,1.42,5.15,1.42,2.37,0,4.28-.62,5.73-1.86,1.45-1.24,2.45-2.9,2.98-4.99l2.07.5c-.65,2.53-1.88,4.55-3.7,6.05-1.81,1.51-4.18,2.26-7.09,2.26Z"/><path class="g" d="M208.37,192.05v-18.79h1.83v4.51l-.45-.59c.21-.53.47-1.03.79-1.49.32-.46.65-.83.98-1.12.5-.46,1.08-.81,1.76-1.05.67-.24,1.35-.38,2.03-.42.68-.04,1.31.01,1.86.17v1.9c-.74-.17-1.53-.21-2.37-.1-.83.1-1.62.46-2.35,1.08-.64.56-1.1,1.2-1.39,1.94s-.48,1.51-.56,2.31c-.08.81-.12,1.59-.12,2.36v9.31h-2.02Z"/><path class="g" d="M227.87,192.57c-1.8,0-3.35-.4-4.66-1.21-1.31-.81-2.33-1.95-3.04-3.43s-1.08-3.23-1.08-5.25.36-3.82,1.07-5.31c.71-1.49,1.72-2.64,3.03-3.44s2.86-1.2,4.65-1.2,3.38.41,4.67,1.24c1.29.83,2.28,2.03,2.96,3.59.68,1.57,1,3.45.97,5.65h-2.09v-.7c-.06-2.57-.64-4.53-1.74-5.88-1.1-1.35-2.68-2.02-4.73-2.02s-3.76.7-4.91,2.1c-1.15,1.4-1.73,3.37-1.73,5.92s.58,4.49,1.73,5.88c1.15,1.39,2.78,2.09,4.88,2.09,1.45,0,2.72-.34,3.8-1.02s1.95-1.65,2.58-2.91l1.81.8c-.75,1.62-1.84,2.88-3.27,3.76-1.43.88-3.06,1.32-4.89,1.32ZM220.46,183.23v-1.81h14.84v1.81h-14.84Z"/><path class="g" d="M245.35,192.57c-1.45,0-2.65-.26-3.61-.77s-1.67-1.19-2.15-2.03c-.48-.84-.71-1.75-.71-2.74,0-1.07.22-1.96.67-2.68s1.04-1.3,1.79-1.74c.75-.44,1.57-.77,2.48-.99,1.03-.23,2.15-.43,3.34-.6,1.19-.17,2.33-.32,3.42-.44s1.97-.24,2.65-.33l-.73.44c.05-2.03-.33-3.54-1.14-4.53-.81-.99-2.22-1.49-4.25-1.49-1.43,0-2.6.32-3.52.97-.92.64-1.57,1.64-1.94,2.98l-2.05-.57c.43-1.7,1.29-3.01,2.59-3.93,1.3-.92,2.96-1.37,4.99-1.37,1.73,0,3.18.34,4.36,1.01,1.18.67,2,1.62,2.46,2.83.2.5.33,1.08.4,1.75.07.67.1,1.34.1,2.01v11.71h-1.83v-4.94l.68.17c-.57,1.69-1.56,3-2.97,3.91-1.42.92-3.09,1.37-5.03,1.37ZM245.45,190.73c1.28,0,2.39-.23,3.36-.69.96-.46,1.74-1.1,2.34-1.93.6-.83.98-1.81,1.14-2.93.12-.63.18-1.3.19-2.03s.02-1.27.02-1.62l.87.56c-.75.09-1.66.19-2.71.3-1.05.1-2.12.23-3.21.38-1.09.15-2.08.34-2.96.57-.55.15-1.09.37-1.64.65s-1.01.68-1.37,1.17c-.37.5-.55,1.13-.55,1.9,0,.57.14,1.14.43,1.7.28.57.76,1.04,1.42,1.41.66.37,1.55.56,2.68.56Z"/><path class="g" d="M256.93,175.09v-1.83h12.06v1.83h-12.06ZM268.99,192.05c-1,.22-1.98.3-2.96.25s-1.84-.27-2.6-.66c-.76-.39-1.33-.99-1.71-1.8-.31-.66-.49-1.33-.52-2-.03-.67-.05-1.44-.05-2.31v-17.48h2.02v17.45c0,.79,0,1.44.03,1.96.02.52.14.99.36,1.42.42.8,1.08,1.28,1.98,1.45.9.17,2.06.14,3.46-.08v1.81Z"/><path class="g" d="M272.94,169.47v-2.56h2v2.56h-2ZM272.94,192.05v-18.79h2v18.79h-2Z"/><path class="g" d="M280.16,192.05v-18.79h1.83v4.23h.19v14.56h-2.02ZM293.92,192.05v-9.78c0-1.18-.12-2.24-.36-3.17-.24-.93-.6-1.72-1.08-2.37-.48-.65-1.08-1.14-1.81-1.48-.72-.34-1.58-.5-2.57-.5s-1.9.18-2.65.53-1.36.85-1.84,1.49-.84,1.39-1.08,2.27c-.24.88-.36,1.83-.36,2.86l-1.58-.19c0-2.03.34-3.7,1.03-5.02.69-1.32,1.62-2.29,2.79-2.92,1.17-.63,2.49-.95,3.95-.95,1.03,0,1.96.15,2.77.45.82.3,1.53.73,2.13,1.28.6.55,1.1,1.2,1.5,1.95.39.75.69,1.57.88,2.46.19.89.29,1.83.29,2.8v10.28h-2.02Z"/><path class="g" d="M307.68,192.57c-1.77,0-3.27-.44-4.5-1.31-1.22-.87-2.16-2.06-2.8-3.57-.64-1.5-.97-3.19-.97-5.07s.32-3.53.96-5.03c.64-1.5,1.56-2.68,2.76-3.55s2.65-1.3,4.36-1.3,3.23.43,4.44,1.29,2.12,2.03,2.73,3.52c.61,1.49.92,3.18.92,5.07s-.31,3.57-.92,5.06c-.61,1.5-1.51,2.68-2.68,3.57-1.17.88-2.6,1.32-4.3,1.32ZM307.76,200.92c-.93,0-1.85-.14-2.77-.41-.92-.27-1.78-.71-2.58-1.32-.8-.61-1.48-1.42-2.03-2.43l1.81-1.08c.57,1.16,1.37,1.99,2.42,2.49,1.04.5,2.11.75,3.18.75,1.52,0,2.72-.28,3.61-.84.89-.56,1.52-1.4,1.9-2.52s.57-2.51.57-4.17v-4.92h.21v-13.2h1.83v18.13c0,.56-.01,1.09-.04,1.6s-.08,1.02-.16,1.53c-.21,1.45-.64,2.65-1.29,3.59-.65.95-1.53,1.65-2.64,2.11s-2.45.7-4.03.7ZM307.8,190.66c1.4,0,2.57-.35,3.5-1.05.93-.7,1.63-1.66,2.09-2.87.46-1.21.69-2.58.69-4.11s-.23-2.92-.7-4.12-1.16-2.15-2.09-2.83c-.93-.68-2.08-1.02-3.46-1.02s-2.6.35-3.53,1.05c-.93.7-1.62,1.65-2.07,2.85-.45,1.2-.68,2.56-.68,4.06s.23,2.89.7,4.1c.47,1.21,1.17,2.17,2.09,2.88.92.71,2.07,1.06,3.45,1.06Z"/><path class="g" d="M326.34,175.09v-1.83h10.68v1.83h-10.68ZM329.68,192.05v-20.54c0-.49.03-.95.08-1.39.05-.44.16-.86.33-1.25.17-.39.41-.77.72-1.11.32-.35.69-.61,1.09-.8.4-.19.83-.31,1.28-.37.45-.06.93-.1,1.43-.1h2.42v1.74h-2.24c-1.03,0-1.81.25-2.32.75-.52.5-.77,1.32-.77,2.47v20.61h-2Z"/><path class="g" d="M346.85,192.57c-1.8,0-3.35-.4-4.66-1.21-1.31-.81-2.33-1.95-3.04-3.43-.72-1.48-1.08-3.23-1.08-5.25s.36-3.82,1.07-5.31c.71-1.49,1.72-2.64,3.03-3.44s2.86-1.2,4.65-1.2,3.38.41,4.67,1.24c1.29.83,2.28,2.03,2.96,3.59.68,1.57,1,3.45.97,5.65h-2.09v-.7c-.06-2.57-.64-4.53-1.74-5.88s-2.68-2.02-4.73-2.02-3.76.7-4.91,2.1c-1.15,1.4-1.73,3.37-1.73,5.92s.58,4.49,1.73,5.88c1.15,1.39,2.78,2.09,4.88,2.09,1.45,0,2.72-.34,3.8-1.02s1.95-1.65,2.58-2.91l1.81.8c-.75,1.62-1.84,2.88-3.27,3.76-1.43.88-3.06,1.32-4.89,1.32ZM339.44,183.23v-1.81h14.84v1.81h-14.84Z"/><path class="g" d="M367,192.57c-1.8,0-3.35-.4-4.66-1.21-1.31-.81-2.33-1.95-3.04-3.43s-1.08-3.23-1.08-5.25.36-3.82,1.07-5.31c.71-1.49,1.72-2.64,3.03-3.44s2.86-1.2,4.65-1.2,3.38.41,4.67,1.24c1.29.83,2.28,2.03,2.96,3.59.68,1.57,1,3.45.97,5.65h-2.09v-.7c-.06-2.57-.64-4.53-1.74-5.88-1.1-1.35-2.68-2.02-4.73-2.02s-3.76.7-4.91,2.1c-1.15,1.4-1.73,3.37-1.73,5.92s.58,4.49,1.73,5.88c1.15,1.39,2.78,2.09,4.88,2.09,1.45,0,2.72-.34,3.8-1.02s1.95-1.65,2.58-2.91l1.81.8c-.75,1.62-1.84,2.88-3.27,3.76-1.43.88-3.06,1.32-4.89,1.32ZM359.59,183.23v-1.81h14.84v1.81h-14.84Z"/><path class="g" d="M379.75,192.05v-25.57h2v25.57h-2Z"/><path class="g" d="M387.32,169.47v-2.56h2v2.56h-2ZM387.32,192.05v-18.79h2v18.79h-2Z"/><path class="g" d="M394.53,192.05v-18.79h1.83v4.23h.19v14.56h-2.02ZM408.3,192.05v-9.78c0-1.18-.12-2.24-.36-3.17-.24-.93-.6-1.72-1.08-2.37-.48-.65-1.08-1.14-1.81-1.48-.72-.34-1.58-.5-2.57-.5s-1.9.18-2.65.53-1.36.85-1.84,1.49-.84,1.39-1.08,2.27c-.24.88-.36,1.83-.36,2.86l-1.58-.19c0-2.03.34-3.7,1.03-5.02.69-1.32,1.62-2.29,2.79-2.92,1.17-.63,2.49-.95,3.95-.95,1.03,0,1.96.15,2.77.45.82.3,1.53.73,2.13,1.28.6.55,1.1,1.2,1.5,1.95.39.75.69,1.57.88,2.46.19.89.29,1.83.29,2.8v10.28h-2.02Z"/><path class="g" d="M422.05,192.57c-1.77,0-3.27-.44-4.5-1.31-1.22-.87-2.16-2.06-2.8-3.57-.64-1.5-.97-3.19-.97-5.07s.32-3.53.96-5.03c.64-1.5,1.56-2.68,2.76-3.55s2.65-1.3,4.36-1.3,3.23.43,4.44,1.29c1.21.86,2.12,2.03,2.73,3.52.61,1.49.92,3.18.92,5.07s-.31,3.57-.92,5.06c-.61,1.5-1.51,2.68-2.68,3.57-1.17.88-2.6,1.32-4.3,1.32ZM422.14,200.92c-.93,0-1.85-.14-2.77-.41-.92-.27-1.78-.71-2.58-1.32-.8-.61-1.48-1.42-2.03-2.43l1.81-1.08c.57,1.16,1.37,1.99,2.42,2.49,1.04.5,2.11.75,3.18.75,1.52,0,2.72-.28,3.61-.84.89-.56,1.52-1.4,1.9-2.52s.57-2.51.57-4.17v-4.92h.21v-13.2h1.83v18.13c0,.56-.01,1.09-.04,1.6s-.08,1.02-.16,1.53c-.21,1.45-.64,2.65-1.29,3.59-.65.95-1.53,1.65-2.64,2.11s-2.45.7-4.03.7ZM422.18,190.66c1.4,0,2.57-.35,3.5-1.05.93-.7,1.63-1.66,2.09-2.87.46-1.21.69-2.58.69-4.11s-.23-2.92-.7-4.12-1.16-2.15-2.09-2.83c-.93-.68-2.08-1.02-3.46-1.02s-2.6.35-3.53,1.05c-.93.7-1.62,1.65-2.07,2.85-.45,1.2-.68,2.56-.68,4.06s.23,2.89.7,4.1c.47,1.21,1.17,2.17,2.09,2.88.92.71,2.07,1.06,3.45,1.06Z"/><path class="g" d="M442.09,192.54c-2.17,0-3.96-.46-5.37-1.37-1.41-.92-2.28-2.19-2.62-3.83l2.05-.35c.29,1.11.97,2,2.05,2.66,1.08.66,2.4.99,3.97.99s2.79-.33,3.7-.99c.92-.66,1.37-1.57,1.37-2.71,0-.63-.14-1.14-.43-1.54-.28-.4-.84-.77-1.68-1.1-.83-.34-2.08-.73-3.72-1.18-1.74-.46-3.1-.93-4.08-1.39-.98-.46-1.67-.99-2.07-1.58-.4-.59-.6-1.32-.6-2.17,0-1.03.3-1.94.89-2.72.59-.78,1.42-1.39,2.48-1.84,1.06-.44,2.29-.66,3.68-.66s2.64.23,3.76.69c1.11.46,2.01,1.1,2.7,1.91.68.82,1.08,1.77,1.18,2.84l-2.05.38c-.2-1.21-.81-2.16-1.83-2.86-1.02-.7-2.3-1.06-3.83-1.07-1.45-.02-2.63.26-3.55.86-.92.6-1.37,1.38-1.37,2.36,0,.56.16,1.03.48,1.42.32.39.88.75,1.7,1.07.81.32,1.96.67,3.44,1.04,1.81.46,3.22.94,4.24,1.43,1.01.49,1.73,1.06,2.15,1.71.42.66.63,1.47.63,2.43,0,1.74-.65,3.1-1.94,4.1-1.29.99-3.07,1.49-5.33,1.49Z"/><path class="e" d="M184.05,68.07V11.89h32.77v6.94h-25.82v17.67h21.14v6.94h-21.14v24.62h-6.94Z"/><path class="e" d="M223.84,68.07V11.89h22.2c.55,0,1.2.02,1.95.06.75.04,1.48.12,2.18.25,3.04.47,5.6,1.51,7.67,3.14,2.07,1.63,3.62,3.67,4.66,6.13,1.04,2.46,1.56,5.17,1.56,8.13,0,4.37-1.13,8.14-3.39,11.31-2.26,3.17-5.58,5.16-9.95,5.97l-2.65.43h-17.28v20.75h-6.94ZM230.78,40.72h15.02c.49,0,1.06-.03,1.7-.08.64-.05,1.24-.14,1.81-.27,1.79-.42,3.25-1.18,4.37-2.28,1.12-1.1,1.94-2.41,2.48-3.9.53-1.49.8-3.02.8-4.58s-.27-3.09-.8-4.58c-.53-1.5-1.36-2.8-2.48-3.9-1.12-1.1-2.57-1.87-4.37-2.28-.57-.13-1.18-.22-1.81-.27-.64-.05-1.2-.08-1.7-.08h-15.02v22.24ZM257.27,68.07l-11.08-22.86,6.87-2.11,12.17,24.97h-7.96Z"/><path class="e" d="M269.91,68.07l18.8-56.17h9.67l18.8,56.17h-7.22l-17.59-52.12h2.18l-17.44,52.12h-7.22ZM278.96,54.92v-6.51h29.18v6.51h-29.18Z"/><path class="e" d="M345.39,69.24c-3.85,0-7.36-.67-10.53-2.01-3.17-1.34-5.9-3.28-8.19-5.81s-4.05-5.61-5.29-9.23c-1.24-3.61-1.85-7.68-1.85-12.21,0-5.98,1.07-11.16,3.2-15.53s5.14-7.74,9.01-10.12c3.88-2.38,8.43-3.57,13.65-3.57,6.29,0,11.36,1.47,15.21,4.41,3.85,2.94,6.5,6.93,7.96,11.98l-7.02,1.44c-1.2-3.38-3.13-6.09-5.79-8.11-2.67-2.03-6-3.05-10.01-3.08-4.19-.03-7.67.91-10.43,2.81-2.77,1.9-4.86,4.55-6.26,7.96-1.4,3.41-2.12,7.35-2.15,11.82-.03,4.47.66,8.4,2.07,11.78,1.4,3.38,3.5,6.03,6.3,7.94,2.8,1.91,6.29,2.88,10.47,2.91,3.61.03,6.65-.66,9.11-2.07,2.46-1.4,4.37-3.43,5.73-6.07,1.36-2.64,2.19-5.83,2.48-9.58h-11.94v-5.73h19.27c.08.52.12,1.14.14,1.85.01.72.02,1.2.02,1.46,0,5.12-.96,9.71-2.87,13.75-1.91,4.04-4.73,7.22-8.47,9.54-3.73,2.31-8.34,3.47-13.83,3.47Z"/><path class="e" d="M378.35,68.07V11.89h22.2c.55,0,1.2.02,1.95.06.75.04,1.48.12,2.18.25,3.04.47,5.6,1.51,7.67,3.14,2.07,1.63,3.62,3.67,4.66,6.13,1.04,2.46,1.56,5.17,1.56,8.13,0,4.37-1.13,8.14-3.39,11.31-2.26,3.17-5.58,5.16-9.95,5.97l-2.65.43h-17.28v20.75h-6.94ZM385.29,40.72h15.02c.49,0,1.06-.03,1.7-.08.64-.05,1.24-.14,1.81-.27,1.79-.42,3.25-1.18,4.37-2.28,1.12-1.1,1.94-2.41,2.48-3.9.53-1.49.8-3.02.8-4.58s-.27-3.09-.8-4.58c-.53-1.5-1.36-2.8-2.48-3.9-1.12-1.1-2.57-1.87-4.37-2.28-.57-.13-1.18-.22-1.81-.27-.64-.05-1.2-.08-1.7-.08h-15.02v22.24ZM411.78,68.07l-11.08-22.86,6.87-2.11,12.17,24.97h-7.96Z"/><path class="e" d="M424.42,68.07l18.8-56.17h9.67l18.8,56.17h-7.22l-17.59-52.12h2.18l-17.44,52.12h-7.22ZM433.47,54.92v-6.51h29.18v6.51h-29.18Z"/><path class="e" d="M478.72,68.07V11.89h7.02l29.3,43.89V11.89h7.02v56.17h-7.02l-29.3-43.92v43.92h-7.02Z"/><path class="e" d="M556.08,69.24c-5.59,0-10.34-1.23-14.24-3.71-3.9-2.47-6.87-5.9-8.91-10.3-2.04-4.39-3.06-9.48-3.06-15.25s1.02-10.86,3.06-15.25c2.04-4.39,5.01-7.83,8.91-10.3,3.9-2.47,8.65-3.71,14.24-3.71,6.5,0,11.85,1.65,16.05,4.95,4.2,3.3,7.09,7.75,8.68,13.34l-7.06,1.87c-1.14-4.19-3.19-7.49-6.14-9.91-2.95-2.42-6.79-3.63-11.53-3.63-4.19,0-7.67.95-10.45,2.85-2.78,1.9-4.88,4.55-6.28,7.96-1.4,3.41-2.12,7.35-2.15,11.82-.03,4.47.66,8.41,2.07,11.8,1.4,3.39,3.51,6.05,6.32,7.96,2.81,1.91,6.31,2.87,10.49,2.87,4.73,0,8.58-1.22,11.53-3.65,2.95-2.43,5-5.73,6.14-9.89l7.06,1.87c-1.59,5.59-4.48,10.04-8.68,13.34-4.2,3.3-9.55,4.95-16.05,4.95Z"/><path class="e" d="M589.39,68.07V11.89h35.5v6.59h-28.56v17.59h23.87v6.59h-23.87v18.8h28.56v6.59h-35.5Z"/><path class="f" d="M203.98,144.49c-3.98,0-7.56-.68-10.75-2.03s-5.81-3.28-7.88-5.79c-2.07-2.51-3.41-5.48-4.04-8.91l7.18-1.13c.91,3.54,2.8,6.3,5.68,8.29,2.87,1.99,6.26,2.98,10.16,2.98,2.52,0,4.8-.4,6.83-1.19,2.03-.79,3.65-1.93,4.86-3.41,1.21-1.48,1.81-3.24,1.81-5.27,0-1.22-.22-2.29-.66-3.2-.44-.91-1.03-1.68-1.76-2.3-.73-.62-1.56-1.16-2.5-1.6-.94-.44-1.91-.82-2.93-1.13l-14.32-4.25c-1.56-.44-3.07-1.02-4.52-1.74-1.46-.72-2.76-1.61-3.9-2.69-1.14-1.08-2.05-2.39-2.73-3.92-.68-1.53-1.01-3.34-1.01-5.42,0-3.3.86-6.14,2.59-8.5,1.73-2.37,4.08-4.17,7.04-5.4,2.96-1.23,6.31-1.85,10.03-1.85,3.77.03,7.14.7,10.12,2.01,2.98,1.31,5.45,3.19,7.41,5.64,1.96,2.45,3.28,5.37,3.96,8.78l-7.37,1.29c-.39-2.26-1.25-4.23-2.59-5.89-1.34-1.66-3.01-2.95-5.01-3.84s-4.2-1.36-6.59-1.38c-2.29-.03-4.36.34-6.2,1.11-1.85.77-3.32,1.82-4.41,3.16-1.09,1.34-1.64,2.87-1.64,4.58s.49,3.13,1.48,4.17c.99,1.04,2.2,1.87,3.65,2.48,1.44.61,2.85,1.11,4.23,1.5l10.69,3.08c1.22.34,2.63.81,4.23,1.4s3.15,1.44,4.66,2.52c1.51,1.08,2.76,2.51,3.74,4.29.99,1.78,1.48,4.02,1.48,6.73s-.54,5.11-1.62,7.22c-1.08,2.11-2.58,3.88-4.51,5.31-1.92,1.43-4.16,2.51-6.71,3.24-2.55.73-5.28,1.09-8.19,1.09Z"/><path class="f" d="M256.29,144.49c-5.59,0-10.34-1.23-14.24-3.71-3.9-2.47-6.87-5.9-8.91-10.3-2.04-4.39-3.06-9.48-3.06-15.25s1.02-10.86,3.06-15.25c2.04-4.39,5.01-7.83,8.91-10.3,3.9-2.47,8.65-3.71,14.24-3.71,6.5,0,11.85,1.65,16.05,4.95,4.2,3.3,7.09,7.75,8.68,13.34l-7.06,1.87c-1.14-4.19-3.19-7.49-6.14-9.91-2.95-2.42-6.79-3.63-11.53-3.63-4.19,0-7.67.95-10.45,2.85-2.78,1.9-4.88,4.55-6.28,7.96-1.4,3.41-2.12,7.35-2.15,11.82-.03,4.47.66,8.41,2.07,11.8,1.4,3.39,3.51,6.05,6.32,7.96,2.81,1.91,6.31,2.87,10.49,2.87,4.73,0,8.58-1.22,11.53-3.65,2.95-2.43,5-5.73,6.14-9.89l7.06,1.87c-1.59,5.59-4.48,10.04-8.68,13.34-4.2,3.3-9.55,4.95-16.05,4.95Z"/><path class="f" d="M290.39,143.32v-56.17h6.94v56.17h-6.94Z"/><path class="f" d="M309.03,143.32v-56.17h35.5v6.59h-28.56v17.59h23.87v6.59h-23.87v18.8h28.56v6.59h-35.5Z"/><path class="f" d="M353.89,143.32v-56.17h7.02l29.3,43.89v-43.89h7.02v56.17h-7.02l-29.3-43.92v43.92h-7.02Z"/><path class="f" d="M431.25,144.49c-5.59,0-10.34-1.23-14.24-3.71-3.9-2.47-6.87-5.9-8.91-10.3-2.04-4.39-3.06-9.48-3.06-15.25s1.02-10.86,3.06-15.25c2.04-4.39,5.01-7.83,8.91-10.3,3.9-2.47,8.65-3.71,14.24-3.71,6.5,0,11.85,1.65,16.05,4.95,4.2,3.3,7.09,7.75,8.68,13.34l-7.06,1.87c-1.14-4.19-3.19-7.49-6.14-9.91-2.95-2.42-6.79-3.63-11.53-3.63-4.19,0-7.67.95-10.45,2.85-2.78,1.9-4.88,4.55-6.28,7.96-1.4,3.41-2.12,7.35-2.15,11.82-.03,4.47.66,8.41,2.07,11.8,1.4,3.39,3.51,6.05,6.32,7.96,2.81,1.91,6.31,2.87,10.49,2.87,4.73,0,8.58-1.22,11.53-3.65,2.95-2.43,5-5.73,6.14-9.89l7.06,1.87c-1.59,5.59-4.48,10.04-8.68,13.34-4.2,3.3-9.55,4.95-16.05,4.95Z"/><path class="f" d="M464.56,143.32v-56.17h35.5v6.59h-28.56v17.59h23.87v6.59h-23.87v18.8h28.56v6.59h-35.5Z"/><path class="h" d="M155.21,77.61c0-2.5-1-4.94-2.9-7.27,1.41-2.66,1.92-5.24,1.44-7.69-.5-2.53-2.02-4.79-4.46-6.76.94-2.99.95-5.72-.04-8.1-.94-2.27-2.76-4.11-5.34-5.53.26-2.93-.26-5.46-1.61-7.51-1.42-2.15-3.69-3.66-6.7-4.55-.27-3.12-1.3-5.65-3.12-7.47-1.77-1.77-4.2-2.78-7.19-3.09-.88-2.88-2.35-5.07-4.42-6.46-2.14-1.44-4.82-1.96-7.93-1.62-1.45-2.78-3.37-4.72-5.75-5.7-2.27-.94-4.86-.95-7.68-.13-1.89-2.25-4.05-3.68-6.45-4.17-2.52-.51-5.2.03-7.95,1.52-2.4-2.02-4.92-3.08-7.49-3.08s-4.94,1-7.27,2.9c-2.66-1.41-5.24-1.92-7.69-1.44-2.53.5-4.79,2.02-6.76,4.46-2.99-.94-5.72-.95-8.1.04-2.27.94-4.11,2.76-5.53,5.34-2.93-.26-5.46.26-7.51,1.61-2.15,1.42-3.66,3.69-4.55,6.7-3.12.27-5.65,1.3-7.47,3.12-1.77,1.77-2.78,4.2-3.09,7.19-2.88.88-5.07,2.35-6.46,4.42-1.44,2.14-1.96,4.82-1.62,7.93-2.78,1.45-4.72,3.37-5.7,5.75-.94,2.27-.95,4.86-.13,7.68-2.25,1.89-3.68,4.04-4.17,6.45-.51,2.52.03,5.2,1.52,7.95-2.02,2.4-3.08,4.92-3.08,7.49s1,4.94,2.9,7.27c-1.41,2.66-1.92,5.24-1.44,7.69.5,2.53,2.02,4.79,4.46,6.76-.94,2.99-.95,5.72.04,8.1.94,2.27,2.76,4.12,5.34,5.53-.26,2.92.26,5.46,1.61,7.5,1.42,2.15,3.69,3.67,6.7,4.56.27,3.12,1.3,5.64,3.12,7.46,1.77,1.77,4.2,2.79,7.19,3.1.88,2.87,2.35,5.06,4.42,6.45,1.73,1.16,3.81,1.73,6.18,1.73.57,0,1.15-.04,1.75-.11,1.45,2.78,3.37,4.71,5.75,5.69,1.2.49,2.48.74,3.84.74,1.22,0,2.51-.2,3.84-.59,1.89,2.25,4.04,3.67,6.44,4.16.63.13,1.27.19,1.92.19,1.95,0,3.97-.59,6.04-1.71,2.4,2.01,4.91,3.07,7.49,3.07s4.94-1,7.27-2.9c2,1.06,3.95,1.62,5.84,1.62.63,0,1.25-.06,1.86-.18,2.53-.5,4.79-2.02,6.76-4.46,1.47.46,2.88.71,4.22.71,1.38,0,2.67-.25,3.88-.75,2.26-.94,4.1-2.75,5.52-5.33.48.04.95.07,1.41.07,2.34,0,4.39-.56,6.1-1.7,2.15-1.42,3.66-3.69,4.54-6.69,3.13-.27,5.65-1.31,7.47-3.13,1.76-1.76,2.78-4.19,3.09-7.18,2.88-.88,5.07-2.36,6.46-4.43,1.44-2.14,1.96-4.82,1.62-7.93,2.78-1.45,4.72-3.37,5.7-5.75.94-2.27.95-4.86.13-7.68,2.25-1.89,3.68-4.05,4.17-6.45.51-2.52-.03-5.2-1.52-7.95,2.02-2.4,3.08-4.91,3.08-7.49ZM154.57,77.61c0,2.39-.96,4.71-2.76,6.91-1.3-2.2-3.22-4.44-5.72-6.7,2.6-2.32,4.59-4.63,5.91-6.89,1.67,2.13,2.57,4.37,2.57,6.68ZM134.99,124.8c-2.55.72-5.63.96-9.13.75-.19-2.86-.67-6.02-1.42-9.43.64.02,1.28.03,1.9.03,2.76,0,5.3-.16,7.62-.46.89,3.45,1.24,6.5,1.04,9.11ZM124.52,135.01c-2.53.16-5.44-.19-8.66-1,.36-2.75.5-5.84.43-9.23,3.24.72,6.23,1.17,8.96,1.37.18,3.39-.06,6.37-.73,8.86ZM29.65,125.85c2.86-.19,6.01-.66,9.43-1.42-.08,3.5.06,6.69.42,9.53-3.4.88-6.46,1.23-9.1,1.02-.72-2.55-.96-5.63-.75-9.14ZM21.2,115.86c2.3.3,4.81.46,7.55.46.55,0,1.12-.02,1.69-.03-.72,3.24-1.19,6.24-1.38,8.97-.72.04-1.43.06-2.12.06-2.52,0-4.78-.26-6.74-.79-.16-2.53.19-5.45,1-8.67ZM20.23,30.39c1.94-.54,4.19-.82,6.74-.82.77,0,1.57.03,2.39.08.19,2.86.67,6.01,1.42,9.43-3.5-.08-6.69.05-9.53.42-.88-3.41-1.23-6.47-1.02-9.12ZM30.69,20.2c2.53-.16,5.44.19,8.66,1-.36,2.76-.5,5.85-.42,9.23-3.23-.72-6.24-1.19-8.96-1.38-.18-3.38.06-6.36.73-8.85ZM125.56,29.35c-2.86.19-6.02.67-9.43,1.42.08-3.51-.06-6.7-.42-9.54,2.77-.72,5.31-1.09,7.59-1.09.52,0,1.02.02,1.51.06.72,2.55.96,5.63.76,9.14ZM134,39.34c-2.75-.36-5.84-.5-9.22-.42.72-3.24,1.19-6.24,1.38-8.97.72-.04,1.43-.06,2.12-.06,2.52,0,4.78.26,6.75.79.16,2.5-.19,5.41-1.02,8.66ZM40.36,115.56c2.24-.27,4.54-.63,6.88-1.04.05,2.39.14,4.72.31,6.97-2.71.87-5.32,1.59-7.81,2.17.03-.85.07-1.72.12-2.6.11-1.78.28-3.62.49-5.49ZM39.72,34.29c-.07-1.05-.12-2.06-.15-3.06.97.23,1.96.47,2.97.74,1.72.46,3.49.99,5.28,1.58-.19,2.36-.3,4.8-.36,7.31-2.47-.43-4.89-.8-7.24-1.08-.22-1.87-.4-3.71-.51-5.49ZM106.43,27.8c.23,1.77.41,3.6.55,5.48-2.25.73-4.55,1.55-6.89,2.46-.54-2.45-1.12-4.83-1.76-7.11,2.64-1.47,5.19-2.77,7.65-3.87.16.99.31,2,.45,3.05ZM107.12,113.59c-1.85-.34-3.73-.72-5.65-1.14.27-1.55.52-3.13.75-4.73,1.65.09,3.28.17,4.89.21.04,1.93.04,3.81.01,5.66ZM47.91,107.74c1.66-.04,3.35-.1,5.06-.19.24,1.7.51,3.36.79,5-2,.45-3.97.85-5.89,1.2-.02-1.96-.01-3.96.04-6.01ZM48.09,41.62c1.86.34,3.74.71,5.66,1.14-.27,1.56-.52,3.13-.75,4.74-1.65-.09-3.28-.16-4.89-.21-.04-1.93-.04-3.82-.01-5.66ZM107.3,47.47c-1.67.04-3.35.1-5.06.18-.24-1.69-.51-3.36-.79-5,2-.45,3.97-.86,5.89-1.21.03,1.97.02,3.97-.04,6.02ZM103.12,82.79c-.17.81-.34,1.62-.51,2.43-.31.77-.61,1.54-.93,2.31-.33.81-.67,1.61-1.02,2.41-.48.73-.95,1.46-1.44,2.19-.47.71-.95,1.4-1.43,2.09-.59.6-1.18,1.2-1.77,1.8s-1.24,1.23-1.87,1.84c-.72.49-1.44.98-2.16,1.46-.69.45-1.37.9-2.06,1.34-.77.33-1.54.66-2.32.99-.81.34-1.62.66-2.43.99-.85.18-1.7.36-2.56.52-.84.17-1.68.32-2.52.47-.83,0-1.66.02-2.5.02s-1.69,0-2.54-.02c-.88-.17-1.76-.33-2.65-.51-.8-.16-1.6-.33-2.4-.5-.78-.31-1.56-.62-2.34-.94-.81-.33-1.61-.68-2.41-1.02-.73-.48-1.46-.95-2.19-1.44-.7-.47-1.39-.95-2.09-1.43-.6-.59-1.21-1.18-1.81-1.78s-1.23-1.24-1.83-1.87c-.49-.72-.98-1.44-1.46-2.17-.46-.7-.91-1.4-1.36-2.09-.33-.76-.65-1.51-.97-2.28-.34-.81-.66-1.62-.99-2.42-.18-.85-.36-1.7-.53-2.56-.17-.85-.32-1.68-.47-2.52,0-.83-.02-1.66-.02-2.5s0-1.73.02-2.58c.17-.86.33-1.73.5-2.6.17-.82.34-1.62.52-2.43.31-.77.61-1.54.93-2.31.33-.81.67-1.6,1.01-2.4.48-.73.95-1.46,1.45-2.19.47-.7.94-1.39,1.42-2.08.59-.61,1.18-1.21,1.79-1.82s1.23-1.22,1.85-1.82c.73-.49,1.45-.99,2.18-1.47.68-.45,1.37-.9,2.05-1.34.77-.33,1.54-.66,2.32-.99.82-.34,1.63-.66,2.44-.99.85-.18,1.69-.35,2.54-.52.86-.17,1.71-.32,2.56-.47.82,0,1.64-.01,2.46-.01s1.69,0,2.54.02c.88.17,1.76.32,2.64.5.8.16,1.6.33,2.4.5.78.31,1.56.62,2.34.94.81.33,1.61.68,2.41,1.02.73.48,1.46.95,2.18,1.44.7.47,1.39.95,2.09,1.43.6.59,1.21,1.18,1.81,1.78s1.23,1.25,1.84,1.87c.49.72.97,1.43,1.45,2.16.46.7.91,1.39,1.36,2.09.33.76.65,1.52.97,2.29.34.82.67,1.64,1,2.46.17.84.35,1.68.51,2.53.17.85.32,1.68.47,2.52,0,.83.02,1.66.02,2.5s0,1.73-.02,2.59c-.17.86-.33,1.73-.5,2.59ZM104.26,75.01c0-.28,0-.56,0-.84.1.27.21.54.31.81-.05.29-.1.57-.15.86-.05-.28-.11-.55-.16-.83ZM103.24,69.84c-.05-.23-.09-.45-.14-.68.13.22.27.43.41.65,0,.25.01.49.02.74-.09-.24-.19-.47-.29-.71ZM101.24,65.01c-.11-.25-.21-.51-.32-.76.2.21.39.42.59.62.06.28.13.56.19.84-.15-.23-.3-.47-.46-.7ZM98.35,60.65c-.14-.21-.28-.42-.43-.63.2.14.4.28.6.43.11.23.21.47.31.7-.16-.17-.33-.33-.49-.5ZM94.62,56.92c-.2-.2-.4-.4-.6-.59.26.12.53.23.79.35.17.24.34.48.52.72-.23-.16-.47-.32-.7-.48ZM90.24,53.98c-.2-.13-.39-.26-.59-.39.25.06.5.12.75.18.18.17.35.34.53.51-.23-.1-.46-.2-.7-.29ZM85.41,51.99c-.26-.1-.52-.21-.77-.31.29,0,.57.02.86.03.24.15.48.31.73.46-.27-.06-.54-.11-.81-.17ZM80.29,50.95c-.24-.05-.48-.1-.72-.14.24-.04.48-.08.73-.12.23.09.46.18.69.26-.23,0-.47,0-.7,0ZM75.01,50.95c-.27,0-.55,0-.83,0,.26-.1.52-.2.78-.3.28.05.56.09.85.14-.27.05-.54.1-.8.15ZM69.83,51.97c-.23.05-.46.09-.68.14.22-.14.44-.27.66-.41.24,0,.49-.01.74-.02-.24.09-.47.19-.71.29ZM65.01,53.97c-.25.11-.51.22-.76.33.21-.2.42-.39.63-.59.27-.06.55-.12.83-.19-.23.15-.46.3-.69.45ZM60.65,56.86c-.21.14-.42.28-.63.43.15-.2.29-.4.44-.61.23-.1.46-.2.69-.31-.17.16-.33.33-.5.49ZM56.92,60.59c-.2.2-.4.41-.6.61.12-.27.25-.54.37-.81.23-.17.47-.33.71-.5-.16.23-.32.47-.48.7ZM53.98,64.97c-.13.19-.26.39-.38.58.06-.25.11-.5.17-.75.17-.18.34-.35.5-.53-.1.23-.2.47-.29.7ZM51.99,69.8c-.1.26-.21.52-.31.78,0-.29.02-.57.03-.86.15-.24.31-.48.46-.72-.06.27-.11.54-.17.8ZM50.95,74.93c-.05.25-.1.5-.14.74-.04-.24-.08-.48-.12-.72.09-.24.18-.48.27-.72,0,.23,0,.47,0,.7ZM50.95,80.2c0,.28,0,.56,0,.84-.1-.27-.21-.54-.31-.82.05-.28.1-.57.15-.85.05.27.1.55.16.83ZM51.97,85.37c.05.23.09.46.14.68-.13-.22-.27-.43-.41-.65,0-.25-.01-.49-.02-.74.09.24.19.47.29.71ZM53.98,90.2c.11.25.21.51.32.76-.19-.21-.39-.41-.59-.62-.06-.28-.13-.56-.19-.84.15.23.3.46.45.7ZM56.86,94.56c.14.21.28.42.43.63-.2-.14-.4-.28-.59-.42-.11-.24-.22-.47-.33-.71.16.17.33.33.49.5ZM60.59,98.29c.2.2.4.4.6.59-.27-.12-.53-.24-.8-.36-.17-.23-.33-.47-.5-.71.23.16.46.32.69.47ZM64.97,101.23c.2.13.39.26.59.39-.25-.06-.5-.12-.75-.18-.18-.17-.35-.34-.53-.5.23.1.46.2.7.29ZM69.8,103.22c.26.1.52.21.78.31-.29,0-.57-.02-.86-.03-.24-.15-.48-.31-.72-.46.27.06.54.11.8.17ZM74.97,104.26c.24.05.49.09.73.14-.25.04-.51.09-.76.13-.24-.09-.48-.18-.71-.27.25,0,.49,0,.74,0ZM80.16,104.26c.29,0,.59,0,.88,0-.26.1-.52.2-.78.3-.3-.05-.59-.1-.89-.15.26-.05.53-.1.79-.15ZM85.38,103.24c.23-.05.46-.09.68-.14-.22.14-.44.27-.66.41-.24,0-.49.01-.74.02.24-.09.47-.19.71-.29ZM90.2,101.24c.25-.11.51-.21.76-.32-.21.19-.41.39-.62.58-.28.06-.56.13-.84.19.23-.15.46-.3.69-.45ZM94.56,98.35c.21-.14.42-.28.63-.42-.14.2-.28.4-.42.6-.23.11-.47.21-.7.31.17-.16.33-.33.5-.49ZM98.29,94.62c.2-.2.4-.4.59-.6-.12.27-.24.53-.36.8-.24.17-.48.34-.71.5.16-.23.32-.46.48-.7ZM101.23,90.24c.13-.19.26-.39.38-.58-.06.25-.11.5-.17.75-.17.18-.34.36-.51.54.1-.23.2-.47.3-.7ZM103.22,85.41c.1-.26.21-.52.31-.78,0,.29-.02.57-.03.86-.15.24-.31.48-.46.72.06-.27.11-.54.17-.8ZM104.26,80.28c.05-.25.1-.49.14-.74.04.24.08.48.12.72-.09.24-.18.48-.27.71,0-.23,0-.46,0-.69ZM104.74,77.69c.09-.5.18-1,.27-1.51.17.46.34.92.5,1.37-.18.49-.36.99-.54,1.49-.08-.45-.15-.9-.23-1.35ZM105.22,74.92c.1-.6.19-1.19.29-1.79.33.56.64,1.11.97,1.67-.21.61-.41,1.21-.63,1.82-.21-.57-.41-1.13-.63-1.7ZM104.77,73.72c-.18-.48-.37-.95-.55-1.43-.01-.46-.02-.92-.03-1.37.27.45.55.91.82,1.36-.07.48-.15.96-.23,1.44ZM104.14,69.61c-.02-.65-.05-1.3-.08-1.95.47.52.93,1.04,1.39,1.56-.1.69-.19,1.37-.29,2.06-.34-.56-.67-1.11-1.01-1.67ZM103.46,68.51c-.25-.4-.51-.81-.76-1.21-.11-.5-.22-.99-.33-1.49.34.37.68.74,1.02,1.11.02.53.05,1.06.07,1.59ZM102.08,64.56c-.14-.61-.29-1.21-.44-1.81.53.4,1.06.8,1.59,1.21.04.66.08,1.32.11,1.98-.42-.46-.84-.92-1.26-1.37ZM101.2,63.63c-.35-.37-.7-.74-1.06-1.11-.19-.43-.38-.87-.58-1.3.43.31.86.62,1.28.94.12.49.24.98.36,1.47ZM99.03,60.03c-.27-.59-.55-1.18-.83-1.77.63.3,1.26.61,1.88.91.17.67.35,1.34.52,2.02-.52-.39-1.05-.77-1.58-1.16ZM97.97,59.27c-.37-.27-.75-.53-1.12-.79-.29-.42-.58-.84-.88-1.26.44.2.89.41,1.33.61.22.48.45.96.67,1.44ZM95.23,56.17c-.35-.49-.71-.98-1.06-1.47.62.16,1.24.32,1.86.49.28.58.57,1.16.85,1.74-.55-.25-1.09-.51-1.65-.76ZM94.07,55.65c-.47-.21-.93-.41-1.4-.62-.33-.32-.67-.64-1-.95.52.13,1.03.25,1.54.38.29.39.58.79.86,1.19ZM90.72,53.19c-.48-.45-.96-.88-1.44-1.32.7.04,1.39.08,2.08.12.42.55.83,1.11,1.24,1.67-.63-.16-1.25-.31-1.89-.47ZM89.45,52.89c-.46-.11-.92-.21-1.38-.32-.43-.28-.86-.55-1.29-.82.5.02,1.01.04,1.51.07.39.36.78.71,1.17,1.07ZM85.69,51.07c-.53-.33-1.05-.64-1.58-.97.65-.09,1.3-.18,1.95-.27.49.44.99.87,1.48,1.31-.62-.03-1.24-.06-1.86-.08ZM84.4,51.03c-.51-.01-1.01-.03-1.52-.04-.44-.17-.88-.34-1.32-.51.52-.08,1.04-.16,1.56-.24.43.26.86.52,1.29.79ZM80.33,50.02c-.61-.23-1.21-.44-1.82-.66.65-.23,1.31-.47,1.95-.69.6.35,1.2.7,1.8,1.06-.64.1-1.29.19-1.93.3ZM79.05,50.24c-.45.08-.9.15-1.36.23-.51-.09-1.01-.18-1.52-.27.47-.17.93-.33,1.39-.5.49.18.99.36,1.48.54ZM74.92,49.99c-.6-.1-1.19-.19-1.79-.29.55-.33,1.11-.65,1.66-.97.61.21,1.22.42,1.83.63-.57.21-1.13.41-1.7.63ZM73.71,50.45c-.47.18-.95.36-1.42.55-.46.01-.92.02-1.38.03.45-.28.91-.55,1.36-.82.48.07.96.16,1.44.24ZM69.61,51.07c-.65.02-1.3.05-1.95.08.51-.46,1.03-.92,1.54-1.38.69.1,1.37.19,2.06.29-.55.33-1.11.66-1.66,1ZM68.52,51.75c-.4.25-.81.51-1.21.76-.5.11-1,.22-1.5.33.37-.35.75-.68,1.12-1.02.53-.02,1.06-.05,1.59-.07ZM64.56,53.13c-.6.14-1.2.29-1.8.43.4-.53.79-1.06,1.19-1.58.66-.04,1.32-.08,1.98-.11-.46.42-.92.84-1.37,1.26ZM63.62,54.01c-.37.35-.74.7-1.1,1.05-.43.19-.87.39-1.3.58.31-.43.63-.85.94-1.28.49-.12.98-.24,1.47-.35ZM60.03,56.18c-.59.27-1.18.55-1.76.82.3-.63.6-1.25.9-1.87.67-.18,1.34-.35,2.02-.52-.39.52-.77,1.04-1.16,1.57ZM59.27,57.24c-.27.37-.53.75-.79,1.12-.42.29-.84.58-1.26.88.2-.44.4-.89.61-1.32.48-.23.96-.45,1.44-.67ZM56.17,59.98c-.49.35-.98.71-1.47,1.06.16-.63.33-1.24.49-1.86.58-.28,1.15-.57,1.74-.85-.25.55-.51,1.09-.76,1.65ZM55.65,61.15c-.21.46-.41.93-.62,1.4-.32.33-.63.66-.95,1,.13-.51.25-1.03.38-1.54.39-.29.79-.57,1.19-.86ZM53.19,64.49c-.45.48-.88.96-1.32,1.44.04-.7.08-1.39.12-2.08.56-.42,1.11-.84,1.67-1.26-.16.63-.32,1.26-.47,1.9ZM52.89,65.76c-.11.46-.21.92-.32,1.38-.28.43-.55.86-.82,1.29.02-.5.04-1.01.07-1.51.36-.39.71-.78,1.07-1.17ZM51.07,69.52c-.33.53-.65,1.06-.97,1.59-.09-.66-.18-1.31-.26-1.97.44-.49.87-.99,1.32-1.48-.03.62-.06,1.24-.08,1.86ZM51.03,70.81c-.01.51-.03,1.01-.04,1.52-.17.44-.34.88-.51,1.33-.08-.52-.16-1.04-.24-1.56.26-.43.52-.86.78-1.28ZM50.02,74.88c-.23.61-.45,1.22-.67,1.84-.23-.66-.46-1.31-.69-1.97.35-.6.7-1.2,1.06-1.8.1.64.19,1.28.3,1.93ZM50.24,76.16c.08.45.15.9.23,1.36-.09.5-.18,1.01-.27,1.51-.17-.46-.34-.92-.51-1.38.18-.5.36-.99.54-1.49ZM49.99,80.29c-.1.6-.19,1.2-.29,1.79-.33-.56-.65-1.12-.97-1.67.21-.61.41-1.21.63-1.82.21.57.41,1.13.63,1.7ZM50.44,81.49c.18.48.37.95.55,1.43.01.46.02.92.03,1.37-.27-.45-.55-.9-.82-1.35.07-.48.15-.96.23-1.45ZM51.07,85.6c.02.65.05,1.3.08,1.95-.47-.52-.92-1.04-1.38-1.56.1-.69.19-1.37.29-2.06.34.56.67,1.11,1.01,1.67ZM51.75,86.7c.25.4.51.81.76,1.21.11.5.22.99.33,1.48-.34-.37-.68-.74-1.02-1.11-.02-.53-.05-1.05-.07-1.58ZM53.13,90.65c.14.61.29,1.21.44,1.81-.53-.4-1.06-.8-1.59-1.21-.04-.66-.08-1.32-.11-1.98.42.46.84.92,1.26,1.37ZM54.01,91.59c.35.37.7.74,1.05,1.1.19.43.38.87.58,1.3-.43-.31-.85-.62-1.28-.94-.12-.49-.24-.98-.35-1.47ZM56.18,95.18c.27.59.55,1.18.83,1.77-.63-.3-1.25-.6-1.88-.91-.18-.67-.35-1.34-.52-2.02.52.39,1.05.77,1.58,1.16ZM57.24,95.94c.37.27.75.53,1.12.79.29.42.58.84.88,1.26-.45-.21-.89-.41-1.33-.62-.22-.47-.44-.96-.66-1.43ZM59.98,99.04c.35.49.71.98,1.06,1.47-.62-.16-1.25-.32-1.86-.49-.28-.58-.56-1.16-.84-1.74.55.25,1.09.51,1.64.76ZM61.15,99.56c.46.21.93.41,1.4.62.33.32.67.64,1,.95-.51-.13-1.03-.25-1.54-.38-.29-.39-.58-.79-.86-1.19ZM64.49,102.02c.48.45.96.88,1.44,1.32-.69-.04-1.39-.08-2.07-.12-.42-.56-.84-1.11-1.26-1.67.63.16,1.26.32,1.9.47ZM65.76,102.32c.46.11.92.21,1.38.32.43.28.86.55,1.29.82-.5-.02-1.01-.04-1.51-.07-.39-.36-.78-.71-1.17-1.07ZM69.52,104.14c.53.33,1.06.65,1.59.97-.66.09-1.31.18-1.96.27-.5-.44-.99-.87-1.49-1.32.62.03,1.24.06,1.86.08ZM70.81,104.18c.51.01,1.01.03,1.52.04.44.17.89.34,1.33.51-.52.08-1.04.16-1.56.24-.43-.26-.86-.52-1.29-.79ZM74.86,105.18c.62.23,1.24.45,1.86.68-.66.24-1.31.46-1.97.68-.6-.35-1.19-.69-1.79-1.05.63-.1,1.27-.21,1.9-.31ZM76.16,104.97c.45-.08.91-.14,1.36-.22.51.09,1.02.17,1.52.26-.46.17-.93.34-1.39.51-.5-.18-1-.36-1.5-.54ZM80.32,105.22c.59.1,1.18.2,1.76.3-.55.33-1.1.65-1.65.97-.61-.21-1.22-.41-1.83-.63.57-.21,1.15-.42,1.72-.63ZM81.5,104.76c.47-.18.95-.36,1.42-.55.46-.01.92-.02,1.38-.03-.45.28-.91.55-1.36.82-.47-.07-.96-.16-1.44-.24ZM85.6,104.14c.65-.02,1.3-.05,1.95-.08-.52.47-1.04.92-1.55,1.38-.68-.1-1.37-.19-2.06-.29.55-.33,1.11-.66,1.66-1ZM86.7,103.46c.4-.25.81-.51,1.21-.76.5-.11.99-.22,1.49-.33-.37.34-.74.68-1.11,1.02-.53.02-1.05.05-1.58.07ZM90.65,102.08c.61-.14,1.21-.29,1.81-.44-.4.54-.81,1.06-1.21,1.59-.66.04-1.31.08-1.97.11.46-.42.92-.84,1.37-1.26ZM91.59,101.2c.37-.35.74-.7,1.1-1.05.43-.19.87-.38,1.3-.58-.31.43-.63.85-.94,1.28-.48.12-.97.23-1.46.35ZM95.18,99.03c.59-.27,1.18-.55,1.77-.83-.3.63-.6,1.25-.91,1.88-.67.18-1.34.35-2.02.52.39-.52.77-1.04,1.16-1.57ZM95.94,97.97c.27-.37.53-.75.79-1.12.42-.29.84-.58,1.26-.88-.2.44-.41.89-.61,1.33-.48.22-.96.45-1.44.67ZM99.04,95.23c.49-.35.98-.71,1.47-1.06-.16.63-.33,1.24-.49,1.87-.58.28-1.15.57-1.74.85.25-.55.51-1.09.76-1.65ZM99.56,94.06c.21-.46.41-.93.62-1.4.32-.33.63-.66.95-1-.13.51-.25,1.03-.38,1.54-.39.29-.79.57-1.19.86ZM102.02,90.72c.45-.48.88-.96,1.32-1.44-.04.7-.08,1.39-.12,2.08-.56.42-1.11.84-1.67,1.26.16-.63.32-1.26.47-1.9ZM102.32,89.45c.11-.46.21-.92.32-1.39.28-.43.55-.86.82-1.29-.02.51-.04,1.01-.07,1.51-.35.39-.71.78-1.07,1.17ZM104.14,85.69c.33-.53.65-1.06.97-1.59.09.66.18,1.31.27,1.97-.44.49-.87.99-1.32,1.48.03-.62.06-1.24.08-1.86ZM104.18,84.4c.01-.51.03-1.01.04-1.52.17-.44.34-.88.51-1.33.08.52.16,1.04.24,1.56-.26.43-.52.86-.78,1.28ZM105.19,80.33c.23-.61.45-1.22.67-1.84.24.66.46,1.31.68,1.97-.35.6-.7,1.2-1.06,1.8-.1-.64-.19-1.28-.3-1.93ZM106.2,77.56c.24-.68.47-1.35.71-2.03.42.72.82,1.45,1.23,2.17-.38.68-.77,1.35-1.16,2.03-.25-.73-.51-1.45-.77-2.18ZM107.18,74.73c.29-.85.57-1.69.85-2.53.64.75,1.27,1.51,1.9,2.26-.47.86-.94,1.72-1.43,2.59-.43-.77-.87-1.54-1.32-2.32ZM106.75,73.99c-.36-.62-.72-1.23-1.09-1.85.12-.77.23-1.53.34-2.29.52.59,1.03,1.18,1.54,1.77-.26.79-.52,1.58-.79,2.37ZM106.12,69.02c.12-.85.23-1.71.34-2.55.73.58,1.45,1.16,2.16,1.74-.28.9-.56,1.8-.85,2.7-.54-.63-1.09-1.26-1.65-1.89ZM105.56,68.39c-.51-.58-1.02-1.15-1.55-1.73-.04-.74-.08-1.47-.12-2.21.67.51,1.32,1.03,1.97,1.54-.1.79-.2,1.59-.31,2.39ZM103.85,63.62c-.06-.9-.12-1.79-.18-2.67.89.45,1.76.91,2.63,1.37-.1.98-.22,1.96-.33,2.95-.7-.55-1.4-1.1-2.12-1.64ZM103.18,63.11c-.59-.44-1.17-.89-1.76-1.33-.19-.75-.38-1.5-.57-2.25.73.36,1.44.72,2.16,1.08.06.83.12,1.66.18,2.5ZM100.63,58.72c-.21-.81-.43-1.62-.65-2.43.92.26,1.82.53,2.72.8.09.92.17,1.84.24,2.77-.77-.38-1.53-.77-2.31-1.14ZM99.88,58.35c-.69-.33-1.39-.67-2.09-1-.31-.65-.62-1.29-.93-1.94.81.22,1.61.44,2.41.67.21.75.41,1.51.61,2.27ZM96.48,54.66c-.39-.8-.79-1.6-1.19-2.39.99.08,1.98.17,2.95.26.28.94.55,1.89.82,2.85-.85-.24-1.71-.48-2.58-.71ZM95.67,54.44c-.69-.18-1.38-.37-2.08-.54-.46-.63-.92-1.24-1.38-1.86.78.05,1.57.11,2.34.16.38.74.75,1.48,1.12,2.24ZM91.7,51.37c-.52-.69-1.04-1.36-1.56-2.04.92-.11,1.84-.21,2.75-.31.44.83.88,1.67,1.31,2.52-.83-.06-1.67-.12-2.51-.17ZM90.85,51.32c-.77-.04-1.53-.09-2.31-.13-.55-.5-1.1-.98-1.64-1.47.84-.11,1.66-.2,2.49-.3.49.63.97,1.26,1.46,1.9ZM86.27,49.16c-.67-.59-1.35-1.18-2.02-1.76.95-.31,1.89-.6,2.83-.89.62.76,1.23,1.54,1.84,2.32-.88.11-1.77.22-2.66.34ZM85.43,49.27c-.73.1-1.45.2-2.18.31-.66-.4-1.32-.79-1.98-1.18.76-.26,1.52-.52,2.27-.77.63.54,1.26,1.09,1.89,1.64ZM80.53,47.97c-.73-.42-1.45-.84-2.18-1.25.83-.46,1.66-.91,2.49-1.35.71.59,1.42,1.18,2.13,1.79-.81.27-1.62.54-2.44.82ZM79.74,48.24c-.73.25-1.45.51-2.18.77-.68-.24-1.35-.48-2.03-.71.73-.42,1.45-.83,2.17-1.23.68.39,1.36.77,2.04,1.17ZM74.73,48.03c-.85-.29-1.69-.57-2.53-.85.76-.64,1.51-1.28,2.27-1.9.86.47,1.73.94,2.59,1.43-.77.43-1.55.87-2.32,1.32ZM73.99,48.45c-.62.36-1.24.72-1.86,1.09-.77-.12-1.53-.23-2.29-.34.59-.52,1.18-1.03,1.77-1.54.79.26,1.58.52,2.37.78ZM69.02,49.09c-.85-.12-1.7-.23-2.55-.34.58-.73,1.16-1.45,1.74-2.16.9.28,1.8.56,2.71.85-.63.54-1.26,1.09-1.89,1.65ZM68.38,49.65c-.57.51-1.15,1.02-1.72,1.54-.74.04-1.47.08-2.2.12.51-.66,1.02-1.32,1.53-1.97.79.1,1.59.2,2.39.31ZM63.62,51.36c-.9.06-1.79.12-2.68.18.45-.89.91-1.77,1.37-2.64.97.1,1.96.23,2.94.35-.55.7-1.09,1.4-1.63,2.11ZM63.11,52.03c-.44.59-.89,1.17-1.33,1.76-.75.19-1.5.38-2.24.57.36-.73.72-1.44,1.08-2.16.83-.06,1.66-.12,2.5-.18ZM58.72,54.58c-.81.21-1.62.43-2.43.65.26-.91.53-1.82.8-2.72.92-.09,1.84-.17,2.77-.24-.38.77-.77,1.53-1.14,2.31ZM58.35,55.33c-.33.69-.67,1.39-1,2.09-.65.31-1.29.62-1.94.93.22-.81.44-1.61.67-2.41.75-.21,1.51-.42,2.27-.62ZM54.66,58.73c-.8.39-1.6.79-2.39,1.19.08-.99.16-1.97.26-2.95.94-.28,1.89-.55,2.85-.82-.24.85-.48,1.71-.71,2.58ZM54.44,59.55c-.18.69-.36,1.38-.54,2.08-.63.46-1.24.92-1.86,1.38.05-.78.11-1.56.16-2.34.74-.38,1.48-.75,2.23-1.12ZM51.37,63.51c-.69.52-1.37,1.04-2.04,1.56-.11-.92-.21-1.84-.3-2.76.83-.44,1.66-.88,2.51-1.31-.06.83-.12,1.66-.17,2.5ZM51.32,64.35c-.05.77-.09,1.54-.13,2.31-.5.55-.98,1.09-1.47,1.64-.11-.83-.21-1.66-.31-2.48.63-.49,1.26-.98,1.9-1.47ZM49.16,68.94c-.59.67-1.18,1.35-1.76,2.02-.31-.95-.61-1.89-.9-2.83.77-.62,1.54-1.23,2.32-1.85.11.88.22,1.77.34,2.66ZM49.27,69.78c.1.73.2,1.45.31,2.18-.4.66-.79,1.33-1.18,1.99-.26-.76-.51-1.52-.76-2.28.54-.63,1.09-1.26,1.64-1.89ZM47.97,74.68c-.42.73-.84,1.45-1.25,2.17-.46-.83-.91-1.66-1.35-2.49.59-.71,1.18-1.41,1.78-2.12.27.81.54,1.62.82,2.44ZM48.25,75.47c.25.73.51,1.45.77,2.18-.24.68-.47,1.35-.71,2.03-.42-.72-.82-1.45-1.23-2.17.38-.68.77-1.35,1.16-2.03ZM48.03,80.48c-.29.84-.57,1.69-.85,2.53-.64-.75-1.28-1.51-1.9-2.26.47-.86.94-1.72,1.43-2.59.43.77.87,1.54,1.32,2.32ZM48.45,81.22c.36.62.72,1.24,1.09,1.86-.12.76-.23,1.53-.33,2.29-.52-.59-1.03-1.18-1.54-1.77.26-.79.52-1.58.78-2.37ZM49.09,86.19c-.12.85-.23,1.71-.34,2.55-.73-.58-1.45-1.16-2.16-1.74.28-.9.56-1.8.85-2.71.54.63,1.09,1.26,1.65,1.89ZM49.65,86.82c.51.57,1.02,1.15,1.54,1.72.04.74.08,1.47.12,2.21-.66-.51-1.32-1.02-1.97-1.54.1-.79.2-1.59.31-2.39ZM51.36,91.59c.06.9.12,1.79.18,2.67-.89-.45-1.76-.91-2.63-1.36.1-.98.22-1.96.34-2.95.7.55,1.4,1.09,2.11,1.64ZM52.03,92.1c.59.44,1.17.89,1.76,1.33.19.75.38,1.5.57,2.25-.73-.36-1.44-.72-2.16-1.08-.06-.83-.12-1.66-.18-2.5ZM54.58,96.49c.21.81.43,1.62.65,2.43-.92-.26-1.82-.53-2.72-.8-.09-.92-.17-1.84-.24-2.77.77.38,1.53.77,2.31,1.14ZM55.33,96.86c.69.33,1.39.67,2.09,1,.31.65.62,1.29.93,1.94-.81-.22-1.61-.44-2.41-.67-.21-.75-.42-1.51-.62-2.27ZM58.73,100.55c.39.8.79,1.6,1.19,2.39-.99-.08-1.97-.16-2.95-.26-.28-.94-.55-1.89-.82-2.85.85.24,1.71.48,2.58.71ZM59.54,100.77c.69.18,1.38.37,2.08.54.46.63.92,1.24,1.38,1.86-.78-.05-1.57-.11-2.34-.16-.38-.74-.75-1.48-1.12-2.24ZM63.51,103.84c.52.69,1.04,1.37,1.57,2.05-.93.11-1.84.2-2.76.3-.44-.83-.88-1.67-1.32-2.51.83.06,1.67.12,2.51.17ZM64.36,103.89c.77.04,1.53.09,2.31.13.55.5,1.1.99,1.65,1.47-.83.11-1.66.21-2.48.31-.49-.63-.98-1.26-1.47-1.91ZM68.94,106.05c.67.59,1.34,1.18,2.02,1.76-.95.31-1.89.61-2.82.9-.62-.76-1.23-1.54-1.85-2.32.88-.11,1.76-.22,2.65-.33ZM69.78,105.93c.73-.1,1.45-.2,2.18-.3.66.4,1.33.79,1.99,1.18-.76.26-1.52.51-2.28.76-.63-.54-1.26-1.09-1.89-1.64ZM74.68,107.24c.73.42,1.45.84,2.18,1.25-.83.46-1.66.91-2.49,1.35-.71-.59-1.42-1.18-2.13-1.79.81-.27,1.62-.54,2.44-.82ZM75.48,106.96c.73-.25,1.45-.51,2.18-.77.68.24,1.35.48,2.03.71-.72.42-1.45.82-2.17,1.23-.68-.38-1.36-.77-2.04-1.17ZM80.48,107.18c.85.29,1.69.57,2.53.85-.75.64-1.51,1.28-2.26,1.9-.86-.47-1.72-.94-2.59-1.43.77-.43,1.54-.87,2.32-1.32ZM81.22,106.75c.62-.36,1.23-.72,1.85-1.09.77.12,1.53.22,2.29.33-.59.52-1.19,1.03-1.78,1.54-.79-.26-1.57-.52-2.37-.78ZM86.2,106.12c.85.12,1.7.23,2.54.34-.58.73-1.16,1.45-1.74,2.16-.9-.27-1.8-.56-2.7-.85.63-.55,1.26-1.1,1.9-1.65ZM86.83,105.56c.57-.51,1.15-1.02,1.72-1.54.74-.04,1.47-.08,2.2-.12-.51.66-1.02,1.32-1.54,1.97-.79-.1-1.58-.2-2.38-.31ZM91.59,103.85c.9-.06,1.79-.12,2.67-.18-.45.89-.91,1.77-1.37,2.64-.97-.1-1.96-.23-2.94-.35.55-.7,1.09-1.4,1.63-2.11ZM92.1,103.18c.44-.59.89-1.17,1.33-1.76.75-.19,1.5-.38,2.25-.57-.36.73-.72,1.44-1.08,2.16-.83.06-1.66.12-2.5.18ZM96.49,100.63c.81-.21,1.62-.43,2.43-.65-.26.91-.53,1.82-.8,2.72-.92.09-1.84.17-2.77.24.38-.77.77-1.53,1.14-2.31ZM96.86,99.88c.33-.69.67-1.39,1-2.09.65-.31,1.29-.62,1.94-.93-.22.81-.44,1.61-.67,2.41-.75.21-1.51.42-2.27.62ZM100.55,96.48c.8-.39,1.6-.79,2.39-1.19-.08.99-.16,1.97-.26,2.95-.94.28-1.89.55-2.85.82.24-.85.48-1.71.71-2.58ZM100.77,95.66c.18-.69.37-1.38.54-2.08.63-.46,1.24-.92,1.86-1.38-.05.78-.11,1.57-.16,2.34-.74.38-1.48.75-2.24,1.12ZM103.84,91.7c.69-.52,1.37-1.04,2.04-1.56.11.93.21,1.85.3,2.76-.83.44-1.67.88-2.51,1.31.06-.83.12-1.67.17-2.51ZM103.89,90.86c.05-.77.09-1.54.13-2.31.5-.55.98-1.09,1.47-1.64.11.83.21,1.66.31,2.48-.63.49-1.26.98-1.9,1.47ZM106.05,86.27c.59-.67,1.18-1.34,1.76-2.01.31.95.61,1.89.9,2.83-.76.62-1.54,1.23-2.32,1.85-.11-.88-.22-1.77-.34-2.66ZM105.94,85.43c-.1-.73-.2-1.46-.31-2.19.4-.66.79-1.32,1.18-1.99.26.76.51,1.52.76,2.28-.54.63-1.08,1.26-1.64,1.89ZM107.24,80.53c.42-.72.84-1.45,1.25-2.17.46.83.91,1.66,1.36,2.49-.59.71-1.18,1.42-1.78,2.12-.27-.81-.54-1.63-.82-2.44ZM108.87,77.7c.51-.91,1.01-1.81,1.5-2.71.72.87,1.42,1.74,2.11,2.62-.72.9-1.45,1.81-2.19,2.71-.47-.87-.94-1.74-1.43-2.61ZM110.7,74.38c.56-1.03,1.1-2.06,1.63-3.08,1.02.87,2.02,1.75,3.01,2.63-.79,1.05-1.61,2.11-2.44,3.16-.72-.9-1.45-1.81-2.19-2.71ZM110.26,73.85c-.66-.79-1.32-1.58-2-2.37.31-.95.61-1.89.9-2.84.9.74,1.79,1.49,2.67,2.23-.51.99-1.03,1.98-1.57,2.97ZM109.36,67.98c.35-1.16.69-2.31,1.02-3.46,1.22.68,2.42,1.36,3.6,2.06-.6,1.23-1.22,2.47-1.86,3.72-.91-.77-1.83-1.54-2.77-2.31ZM108.82,67.54c-.75-.61-1.5-1.22-2.27-1.82.13-1.04.25-2.07.36-3.09.98.52,1.94,1.04,2.89,1.57-.31,1.11-.64,2.22-.98,3.34ZM106.98,61.95c.12-1.14.23-2.27.33-3.4,1.25.41,2.48.83,3.69,1.26-.32,1.24-.66,2.5-1.02,3.77-.99-.55-1.99-1.09-3-1.62ZM106.37,61.62c-.91-.48-1.83-.96-2.76-1.43-.08-.97-.16-1.94-.25-2.91,1.12.34,2.23.69,3.32,1.05-.09,1.09-.2,2.18-.31,3.28ZM103.3,56.61c-.12-1.21-.24-2.4-.38-3.59,1.39.16,2.77.34,4.12.53-.08,1.37-.19,2.75-.3,4.14-1.14-.37-2.28-.73-3.44-1.08ZM102.64,56.41c-.95-.28-1.9-.56-2.86-.84-.28-1-.56-2-.86-2.98,1.13.11,2.24.23,3.35.35.13,1.14.25,2.3.37,3.47ZM98.73,51.93c-.33-1.12-.68-2.23-1.03-3.33,1.34-.1,2.67-.19,3.98-.27.18,1.3.35,2.62.51,3.96-1.15-.13-2.3-.25-3.46-.36ZM98.05,51.86c-1.03-.1-2.06-.18-3.09-.26-.45-.89-.91-1.77-1.37-2.64,1.16-.11,2.32-.23,3.47-.32.34,1.06.67,2.13.99,3.22ZM93.26,48.35c-.57-1.07-1.14-2.12-1.73-3.17,1.35-.38,2.68-.75,4.01-1.09.45,1.29.89,2.6,1.32,3.94-1.19.1-2.39.2-3.6.32ZM92.57,48.41c-.96.1-1.93.2-2.9.32-.64-.82-1.29-1.63-1.93-2.44,1.06-.32,2.11-.63,3.16-.93.56,1.01,1.12,2.02,1.67,3.05ZM87.31,45.76c-.72-.89-1.45-1.77-2.17-2.63,1.17-.59,2.34-1.17,3.5-1.73.65,1.11,1.3,2.24,1.94,3.38-1.09.31-2.18.64-3.27.98ZM86.64,45.96c-.98.31-1.97.62-2.96.95-.74-.64-1.49-1.26-2.23-1.88,1.03-.55,2.06-1.08,3.09-1.61.7.83,1.4,1.68,2.1,2.54ZM80.92,44.59c-.93-.77-1.87-1.53-2.8-2.27,1.1-.87,2.19-1.71,3.29-2.54.91,1.02,1.81,2.07,2.71,3.14-1.06.54-2.13,1.1-3.2,1.67ZM80.31,44.92c-.87.47-1.74.94-2.61,1.42-.91-.51-1.81-1.01-2.72-1.51.87-.72,1.74-1.42,2.61-2.11.9.72,1.8,1.45,2.71,2.19ZM74.38,44.51c-1.03-.56-2.05-1.1-3.08-1.63.87-1.02,1.75-2.02,2.62-3,1.05.79,2.1,1.61,3.16,2.44-.9.72-1.8,1.45-2.7,2.19ZM73.85,44.95c-.79.66-1.58,1.32-2.37,2-.95-.31-1.89-.61-2.83-.9.74-.91,1.49-1.8,2.24-2.67.99.51,1.98,1.03,2.97,1.57ZM67.98,45.85c-1.16-.35-2.31-.69-3.46-1.02.68-1.23,1.37-2.43,2.06-3.61,1.23.6,2.47,1.22,3.71,1.86-.77.91-1.55,1.83-2.31,2.77ZM67.54,46.38c-.61.75-1.22,1.51-1.82,2.27-1.04-.13-2.07-.25-3.09-.36.52-.98,1.04-1.94,1.57-2.9,1.11.32,2.22.64,3.34.98ZM61.95,48.23c-1.14-.12-2.27-.23-3.4-.33.41-1.25.83-2.48,1.26-3.7,1.25.32,2.51.66,3.77,1.02-.55.99-1.09,1.99-1.63,3ZM61.62,48.84c-.48.91-.95,1.83-1.42,2.76-.97.08-1.94.16-2.9.25.34-1.12.69-2.22,1.05-3.31,1.09.09,2.18.19,3.28.31ZM56.61,51.91c-1.21.12-2.4.24-3.59.38.16-1.39.34-2.76.53-4.11,1.37.08,2.74.18,4.14.29-.37,1.14-.73,2.28-1.08,3.44ZM56.41,52.57c-.28.95-.56,1.9-.84,2.86-1,.28-2,.56-2.98.86.11-1.13.23-2.24.35-3.35,1.14-.13,2.3-.25,3.47-.37ZM51.93,56.48c-1.12.33-2.23.68-3.32,1.02-.1-1.34-.19-2.67-.26-3.98,1.3-.18,2.62-.35,3.95-.51-.13,1.15-.25,2.3-.36,3.46ZM51.86,57.17c-.09,1.02-.18,2.05-.26,3.09-.89.45-1.77.91-2.64,1.37-.11-1.17-.22-2.32-.31-3.47,1.06-.34,2.13-.67,3.21-.99ZM48.35,61.95c-1.07.57-2.13,1.15-3.17,1.73-.38-1.34-.75-2.68-1.1-4.01,1.29-.45,2.61-.89,3.94-1.31.1,1.19.2,2.39.32,3.6ZM48.42,62.65c.1.96.2,1.92.32,2.89-.82.64-1.63,1.29-2.44,1.93-.32-1.06-.63-2.11-.94-3.15,1-.56,2.02-1.12,3.06-1.67ZM45.76,67.9c-.89.72-1.77,1.44-2.63,2.17-.59-1.17-1.17-2.34-1.72-3.5,1.11-.65,2.23-1.3,3.38-1.94.31,1.08.64,2.17.97,3.27ZM45.96,68.56c.31.98.62,1.97.95,2.96-.63.74-1.26,1.48-1.88,2.22-.55-1.03-1.09-2.06-1.61-3.09.83-.7,1.68-1.4,2.54-2.1ZM44.59,74.29c-.77.93-1.53,1.87-2.27,2.8-.87-1.1-1.72-2.2-2.54-3.29,1.02-.91,2.07-1.81,3.14-2.71.54,1.06,1.1,2.13,1.67,3.2ZM44.92,74.9c.47.87.94,1.74,1.42,2.61-.51.9-1.01,1.81-1.5,2.71-.72-.87-1.42-1.74-2.11-2.61.71-.9,1.44-1.8,2.19-2.7ZM44.51,80.83c-.56,1.03-1.1,2.06-1.63,3.08-1.02-.87-2.02-1.75-3-2.62.79-1.05,1.61-2.1,2.44-3.16.72.9,1.45,1.8,2.19,2.7ZM44.95,81.36c.66.79,1.32,1.58,2,2.37-.31.95-.61,1.89-.9,2.84-.9-.74-1.79-1.49-2.67-2.23.51-.99,1.03-1.98,1.57-2.97ZM45.85,87.23c-.35,1.16-.69,2.31-1.02,3.46-1.22-.68-2.42-1.36-3.6-2.06.6-1.23,1.22-2.47,1.86-3.72.91.77,1.83,1.54,2.77,2.31ZM46.38,87.67c.75.61,1.51,1.22,2.27,1.82-.13,1.04-.25,2.07-.36,3.09-.98-.52-1.94-1.04-2.9-1.57.32-1.11.64-2.22.98-3.34ZM48.23,93.26c-.12,1.14-.23,2.27-.33,3.4-1.25-.41-2.48-.83-3.7-1.26.32-1.25.66-2.5,1.02-3.77.99.55,1.99,1.09,3.01,1.63ZM48.84,93.59c.91.48,1.83.95,2.76,1.42.08.97.16,1.94.25,2.91-1.12-.34-2.22-.69-3.32-1.05.09-1.09.2-2.18.31-3.28ZM51.91,98.6c.12,1.21.24,2.4.38,3.59-1.39-.16-2.76-.34-4.11-.53.08-1.36.19-2.74.3-4.14,1.13.37,2.28.73,3.44,1.08ZM52.57,98.8c.95.28,1.9.56,2.86.84.28,1,.56,2,.86,2.98-1.13-.11-2.24-.23-3.35-.35-.13-1.14-.25-2.3-.37-3.47ZM56.48,103.28c.33,1.12.68,2.23,1.03,3.33-1.34.1-2.67.19-3.98.27-.18-1.3-.35-2.62-.51-3.96,1.15.13,2.3.25,3.46.36ZM57.17,103.35c1.02.1,2.05.18,3.09.26.45.89.91,1.77,1.37,2.64-1.16.11-2.32.22-3.47.31-.34-1.06-.67-2.13-.99-3.21ZM61.95,106.86c.57,1.07,1.14,2.12,1.72,3.17-1.35.38-2.69.75-4.01,1.09-.45-1.29-.88-2.61-1.31-3.93,1.19-.1,2.39-.21,3.59-.33ZM62.64,106.8c.96-.1,1.92-.22,2.89-.33.64.82,1.29,1.64,1.93,2.44-1.06.32-2.11.64-3.16.94-.56-1-1.11-2.02-1.67-3.05ZM67.91,109.45c.72.89,1.45,1.77,2.17,2.63-1.17.59-2.34,1.17-3.49,1.72-.65-1.11-1.3-2.23-1.95-3.38,1.08-.31,2.17-.64,3.27-.97ZM68.57,109.25c.98-.31,1.97-.62,2.96-.94.74.64,1.49,1.26,2.23,1.88-1.03.55-2.06,1.08-3.09,1.6-.7-.83-1.4-1.68-2.1-2.54ZM74.29,110.62c.93.77,1.87,1.53,2.8,2.27-1.1.87-2.19,1.71-3.28,2.54-.9-1.02-1.81-2.07-2.71-3.14,1.06-.54,2.13-1.1,3.2-1.67ZM74.9,110.29c.87-.47,1.74-.94,2.61-1.42.9.51,1.81,1.01,2.71,1.5-.87.72-1.74,1.42-2.61,2.11-.9-.71-1.8-1.44-2.7-2.19ZM80.83,110.7c1.03.56,2.05,1.1,3.07,1.63-.87,1.02-1.75,2.02-2.62,3-1.05-.79-2.1-1.6-3.15-2.44.9-.72,1.8-1.45,2.7-2.19ZM81.36,110.26c.79-.66,1.58-1.32,2.37-2,.95.31,1.89.61,2.83.9-.74.9-1.49,1.79-2.23,2.67-.99-.51-1.97-1.03-2.97-1.57ZM87.23,109.36c1.16.35,2.31.69,3.46,1.02-.68,1.22-1.36,2.42-2.06,3.6-1.23-.6-2.47-1.22-3.72-1.86.77-.91,1.54-1.83,2.31-2.77ZM87.67,108.82c.61-.75,1.22-1.51,1.82-2.27,1.03.13,2.06.26,3.08.37-.52.97-1.04,1.93-1.57,2.89-1.11-.31-2.22-.64-3.34-.98ZM93.26,106.98c1.14.12,2.27.22,3.4.32-.41,1.25-.83,2.48-1.25,3.69-1.24-.32-2.5-.66-3.77-1.02.55-.99,1.09-1.99,1.62-3ZM93.59,106.37c.48-.91.95-1.83,1.42-2.76.97-.08,1.94-.16,2.9-.25-.34,1.12-.69,2.22-1.05,3.31-1.09-.09-2.18-.19-3.28-.31ZM98.6,103.3c1.21-.12,2.4-.24,3.59-.38-.16,1.39-.34,2.76-.53,4.11-1.37-.08-2.74-.18-4.14-.29.37-1.13.73-2.28,1.08-3.44ZM98.8,102.64c.28-.95.56-1.9.84-2.86,1-.28,2-.56,2.98-.86-.11,1.13-.23,2.24-.35,3.35-1.14.13-2.3.25-3.47.37ZM103.29,98.73c1.12-.33,2.23-.68,3.32-1.02.1,1.34.19,2.67.26,3.98-1.3.18-2.62.35-3.95.51.13-1.15.25-2.3.36-3.46ZM103.35,98.04c.1-1.02.18-2.05.26-3.09.89-.45,1.77-.91,2.64-1.37.11,1.17.22,2.32.31,3.47-1.06.34-2.13.67-3.21.99ZM106.86,93.25c1.07-.57,2.12-1.14,3.16-1.72.38,1.35.75,2.69,1.09,4.01-1.29.45-2.61.88-3.94,1.31-.1-1.19-.2-2.39-.32-3.6ZM106.8,92.57c-.1-.96-.2-1.93-.32-2.9.82-.64,1.63-1.28,2.43-1.93.32,1.06.64,2.11.94,3.16-1.01.56-2.02,1.12-3.05,1.67ZM109.45,87.31c.89-.72,1.77-1.44,2.63-2.17.59,1.17,1.17,2.34,1.72,3.5-1.11.65-2.24,1.3-3.38,1.94-.31-1.09-.64-2.18-.98-3.27ZM109.25,86.65c-.31-.98-.62-1.97-.95-2.96.63-.74,1.26-1.48,1.88-2.22.55,1.03,1.08,2.06,1.61,3.09-.83.7-1.68,1.4-2.54,2.1ZM110.62,80.92c.77-.94,1.53-1.87,2.27-2.81.87,1.1,1.72,2.19,2.54,3.29-1.03.91-2.08,1.81-3.15,2.72-.54-1.06-1.1-2.13-1.67-3.2ZM113.3,77.61c.85-1.08,1.69-2.16,2.51-3.24,1.24,1.12,2.45,2.25,3.63,3.37-1.15,1.08-2.32,2.16-3.53,3.24-.85-1.12-1.72-2.25-2.61-3.37ZM116.2,73.85c1.03-1.37,2.01-2.74,2.98-4.1,1.73,1.1,3.4,2.2,5.01,3.32-1.37,1.41-2.8,2.82-4.28,4.23-1.21-1.15-2.44-2.3-3.71-3.45ZM115.72,73.42c-1.01-.9-2.04-1.8-3.09-2.7.66-1.28,1.3-2.55,1.91-3.81,1.39.83,2.75,1.66,4.09,2.5-.94,1.33-1.91,2.67-2.91,4.01ZM114.82,66.33c.7-1.46,1.37-2.91,2.02-4.35,1.83.72,3.61,1.45,5.33,2.21-1.01,1.56-2.06,3.13-3.16,4.71-1.37-.86-2.76-1.71-4.18-2.56ZM114.27,66c-1.21-.71-2.45-1.41-3.7-2.11.37-1.3.72-2.59,1.05-3.87,1.58.56,3.12,1.14,4.63,1.72-.63,1.41-1.28,2.82-1.97,4.26ZM111.77,59.39c.42-1.66.81-3.29,1.17-4.91,2.01.35,3.98.74,5.88,1.15-.72,1.81-1.5,3.66-2.33,5.53-1.55-.6-3.12-1.19-4.72-1.77ZM111.16,59.18c-1.25-.44-2.52-.87-3.8-1.29.12-1.43.23-2.85.31-4.25,1.57.23,3.11.47,4.63.73-.36,1.58-.73,3.18-1.15,4.81ZM107.72,53c.09-1.65.16-3.28.21-4.89,1.02-.02,2.04-.04,3.05-.04.89,0,1.75.02,2.62.04-.34,1.85-.72,3.73-1.14,5.65-1.55-.27-3.13-.52-4.73-.75ZM107.08,52.9c-1.39-.2-2.81-.37-4.23-.54-.16-1.37-.33-2.73-.52-4.07,1.67-.09,3.32-.14,4.95-.18-.05,1.58-.11,3.17-.2,4.79ZM101.6,47.69c-1.35.08-2.72.17-4.09.28-.44-1.36-.88-2.72-1.34-4.04,1.58-.4,3.13-.77,4.66-1.12.28,1.6.53,3.23.77,4.89ZM95.95,43.31c-.54-1.53-1.09-3.03-1.65-4.5,1.8-.79,3.58-1.53,5.33-2.21.39,1.81.75,3.66,1.08,5.57-1.57.36-3.16.74-4.77,1.15ZM95.32,43.47c-1.36.35-2.73.73-4.11,1.13-.66-1.17-1.32-2.34-1.99-3.47,1.51-.72,3.01-1.41,4.5-2.06.55,1.44,1.09,2.91,1.61,4.41ZM88.89,40.57c-.87-1.47-1.76-2.9-2.65-4.3,1.68-1.18,3.34-2.29,4.98-3.35.77,1.79,1.53,3.65,2.26,5.56-1.52.67-3.05,1.36-4.6,2.1ZM88.31,40.85c-1.19.57-2.39,1.17-3.6,1.78-.93-1.09-1.85-2.17-2.79-3.23,1.27-.95,2.54-1.87,3.79-2.76.87,1.37,1.74,2.77,2.59,4.21ZM81.49,38.91c-1.1-1.24-2.21-2.44-3.32-3.61,1.34-1.39,2.67-2.73,4-4.01,1.08,1.55,2.14,3.15,3.2,4.81-1.29.91-2.58,1.85-3.88,2.82ZM80.97,39.3c-1.12.85-2.24,1.72-3.37,2.61-1.08-.85-2.16-1.69-3.24-2.51,1.12-1.25,2.25-2.46,3.37-3.64,1.08,1.14,2.16,2.33,3.24,3.54ZM73.85,39.01c-1.37-1.03-2.74-2.01-4.1-2.97,1.1-1.73,2.21-3.41,3.32-5.02,1.4,1.37,2.81,2.79,4.23,4.28-1.15,1.21-2.3,2.44-3.45,3.71ZM73.42,39.49c-.9,1.01-1.8,2.04-2.7,3.09-1.27-.65-2.55-1.29-3.81-1.91.83-1.4,1.66-2.76,2.49-4.09,1.33.94,2.66,1.9,4.01,2.91ZM66.33,40.39c-1.46-.7-2.91-1.37-4.35-2.02.72-1.82,1.45-3.6,2.21-5.33,1.55,1,3.11,2.06,4.7,3.17-.86,1.36-1.71,2.75-2.55,4.18ZM66,40.94c-.71,1.21-1.41,2.45-2.11,3.71-1.3-.37-2.59-.72-3.87-1.05.56-1.57,1.14-3.11,1.73-4.63,1.41.63,2.83,1.28,4.25,1.97ZM59.39,43.44c-1.66-.42-3.29-.81-4.91-1.17.35-2.01.74-3.98,1.15-5.88,1.82.72,3.67,1.5,5.53,2.32-.6,1.55-1.19,3.12-1.77,4.73ZM59.18,44.04c-.44,1.25-.87,2.52-1.29,3.8-1.43-.12-2.85-.23-4.25-.31.23-1.57.47-3.12.73-4.63,1.59.36,3.19.73,4.81,1.15ZM52.9,48.14c-.2,1.39-.37,2.8-.54,4.23-1.37.16-2.73.33-4.07.52-.09-1.68-.14-3.33-.18-4.95,1.57.05,3.17.12,4.78.21ZM47.66,52.97c-1.7.24-3.36.51-5,.8-.45-2-.84-3.97-1.2-5.9.63,0,1.25-.01,1.89-.01,1.35,0,2.73.02,4.12.06.04,1.67.1,3.35.18,5.06ZM47.69,53.61c.08,1.35.17,2.72.28,4.09-1.37.44-2.72.89-4.05,1.35-.4-1.57-.77-3.12-1.12-4.66,1.6-.28,3.23-.53,4.9-.77ZM43.31,59.26c-1.53.54-3.02,1.09-4.5,1.65-.79-1.8-1.53-3.58-2.21-5.33,1.8-.39,3.66-.75,5.56-1.08.36,1.57.74,3.16,1.15,4.77ZM43.47,59.89c.35,1.36.73,2.73,1.13,4.11-1.18.66-2.34,1.32-3.48,2-.72-1.51-1.4-3.01-2.05-4.49,1.44-.55,2.91-1.09,4.4-1.61ZM40.57,66.32c-1.47.87-2.89,1.75-4.3,2.64-1.17-1.67-2.29-3.33-3.35-4.97,1.8-.78,3.65-1.53,5.55-2.27.67,1.52,1.36,3.05,2.09,4.59ZM40.85,66.91c.57,1.19,1.17,2.39,1.77,3.59-1.09.93-2.18,1.85-3.23,2.79-.95-1.27-1.86-2.54-2.75-3.79,1.37-.87,2.76-1.73,4.2-2.59ZM38.91,73.72c-1.24,1.1-2.44,2.21-3.61,3.32-1.39-1.33-2.72-2.67-4.01-4,1.54-1.07,3.15-2.13,4.8-3.19.91,1.29,1.84,2.58,2.81,3.88ZM39.3,74.23c.85,1.12,1.72,2.25,2.61,3.37-.85,1.08-1.69,2.16-2.51,3.24-1.24-1.12-2.45-2.25-3.63-3.37,1.15-1.08,2.32-2.16,3.53-3.24ZM39.01,81.36c-1.03,1.37-2.01,2.74-2.98,4.1-1.73-1.1-3.4-2.2-5.01-3.32,1.37-1.41,2.8-2.82,4.28-4.23,1.21,1.15,2.44,2.3,3.71,3.45ZM39.49,81.79c1.01.9,2.04,1.8,3.09,2.7-.66,1.28-1.3,2.55-1.91,3.81-1.39-.82-2.75-1.66-4.09-2.5.94-1.33,1.9-2.67,2.91-4.01ZM40.39,88.88c-.7,1.46-1.37,2.91-2.02,4.35-1.83-.72-3.61-1.46-5.33-2.21,1-1.55,2.06-3.12,3.17-4.7,1.36.86,2.75,1.71,4.18,2.55ZM40.94,89.21c1.21.71,2.45,1.41,3.7,2.11-.36,1.3-.72,2.59-1.05,3.87-1.58-.56-3.12-1.14-4.63-1.72.63-1.41,1.28-2.82,1.97-4.26ZM43.44,95.82c-.42,1.66-.81,3.29-1.17,4.91-2.01-.35-3.98-.74-5.88-1.15.72-1.81,1.5-3.66,2.33-5.53,1.55.6,3.12,1.19,4.72,1.77ZM44.04,96.03c1.25.44,2.52.87,3.8,1.29-.12,1.43-.23,2.85-.31,4.25-1.57-.23-3.12-.47-4.63-.73.36-1.59.73-3.19,1.15-4.81ZM47.5,102.21c-.09,1.65-.16,3.28-.21,4.9-1.92.04-3.81.04-5.66,0,.34-1.86.71-3.74,1.14-5.65,1.56.27,3.13.52,4.74.75ZM48.13,102.31c1.39.2,2.8.37,4.23.54.16,1.37.33,2.73.52,4.07-1.67.09-3.32.14-4.95.18.05-1.57.11-3.16.2-4.79ZM53.61,107.52c1.35-.08,2.72-.17,4.09-.27.44,1.36.88,2.72,1.34,4.04-1.58.4-3.13.77-4.66,1.12-.28-1.6-.53-3.23-.77-4.89ZM59.26,111.9c.54,1.53,1.09,3.03,1.65,4.5-1.8.79-3.58,1.53-5.33,2.21-.39-1.81-.75-3.66-1.08-5.57,1.57-.36,3.16-.74,4.77-1.15ZM59.89,111.74c1.36-.35,2.73-.73,4.11-1.13.66,1.17,1.32,2.34,1.99,3.47-1.51.72-3.01,1.4-4.49,2.06-.55-1.44-1.09-2.91-1.62-4.4ZM66.32,114.64c.87,1.47,1.75,2.89,2.64,4.3-1.67,1.17-3.33,2.29-4.97,3.35-.78-1.8-1.53-3.65-2.27-5.55,1.52-.67,3.05-1.36,4.59-2.09ZM66.91,114.36c1.19-.57,2.39-1.16,3.59-1.77.93,1.1,1.85,2.18,2.79,3.23-1.27.95-2.54,1.86-3.79,2.75-.87-1.37-1.73-2.77-2.58-4.21ZM73.72,116.3c1.1,1.24,2.21,2.43,3.31,3.61-1.34,1.39-2.67,2.73-4,4.01-1.07-1.54-2.13-3.15-3.19-4.8,1.29-.91,2.58-1.84,3.88-2.81ZM74.23,115.91c1.12-.85,2.25-1.72,3.37-2.61,1.08.85,2.16,1.69,3.24,2.51-1.13,1.25-2.25,2.45-3.37,3.63-1.08-1.14-2.16-2.31-3.24-3.53ZM81.36,116.2c1.37,1.03,2.74,2.01,4.1,2.98-1.1,1.73-2.21,3.4-3.32,5.01-1.4-1.37-2.81-2.79-4.22-4.28,1.15-1.2,2.3-2.44,3.45-3.71ZM81.79,115.72c.9-1.01,1.8-2.04,2.7-3.09,1.28.66,2.55,1.3,3.81,1.91-.82,1.39-1.66,2.75-2.5,4.09-1.33-.94-2.67-1.9-4.01-2.91ZM88.88,114.82c1.46.7,2.91,1.37,4.35,2.02-.72,1.82-1.45,3.6-2.21,5.33-1.55-1-3.11-2.06-4.7-3.17.86-1.36,1.71-2.75,2.55-4.18ZM89.21,114.27c.71-1.21,1.41-2.45,2.11-3.7,1.3.37,2.59.72,3.87,1.05-.56,1.57-1.14,3.11-1.73,4.63-1.41-.63-2.82-1.28-4.25-1.97ZM95.82,111.77c1.66.42,3.29.81,4.91,1.17-.35,2.01-.74,3.98-1.15,5.89-1.81-.72-3.66-1.5-5.53-2.33.6-1.55,1.19-3.12,1.77-4.73ZM96.03,111.16c.44-1.25.87-2.51,1.29-3.79,1.43.12,2.85.22,4.25.3-.23,1.57-.47,3.12-.73,4.64-1.58-.36-3.18-.73-4.81-1.15ZM102.31,107.07c.2-1.39.37-2.8.54-4.23,1.37-.16,2.73-.33,4.07-.52.09,1.68.14,3.33.18,4.95-1.57-.05-3.17-.12-4.78-.21ZM107.55,102.24c1.69-.24,3.36-.51,5-.79.45,2.01.85,3.97,1.2,5.9-.63,0-1.26.01-1.89.01-1.35,0-2.73-.02-4.12-.06-.04-1.67-.1-3.35-.18-5.06ZM107.52,101.6c-.08-1.35-.17-2.72-.28-4.09,1.37-.44,2.72-.88,4.05-1.34.4,1.58.77,3.13,1.12,4.66-1.6.28-3.23.53-4.89.77ZM111.9,95.95c1.53-.54,3.02-1.09,4.5-1.65.79,1.81,1.53,3.58,2.21,5.33-1.8.39-3.66.75-5.56,1.08-.36-1.57-.74-3.16-1.15-4.77ZM111.74,95.32c-.35-1.36-.73-2.73-1.13-4.11,1.18-.66,2.34-1.32,3.48-2,.72,1.51,1.4,3.01,2.05,4.49-1.44.55-2.91,1.09-4.4,1.61ZM114.64,88.89c1.47-.87,2.9-1.76,4.3-2.65,1.17,1.67,2.28,3.33,3.34,4.97-1.8.78-3.65,1.53-5.55,2.27-.67-1.52-1.36-3.05-2.09-4.59ZM114.36,88.31c-.57-1.19-1.17-2.39-1.78-3.6,1.1-.93,2.18-1.85,3.23-2.79.95,1.27,1.86,2.53,2.75,3.79-1.37.87-2.77,1.74-4.21,2.59ZM116.3,81.49c1.24-1.1,2.44-2.21,3.61-3.32,1.39,1.33,2.72,2.67,4.01,4-1.55,1.07-3.15,2.14-4.8,3.2-.91-1.29-1.85-2.58-2.82-3.88ZM120.37,77.74c1.51-1.43,2.96-2.87,4.35-4.3,1.93,1.35,3.78,2.71,5.54,4.08-1.84,1.44-3.78,2.88-5.81,4.29-1.31-1.36-2.66-2.71-4.07-4.07ZM125.18,72.97c1.66-1.72,3.23-3.44,4.71-5.14,2.53,1.3,4.88,2.63,7.05,3.98-.62.58-1.26,1.17-1.93,1.76-1.34,1.18-2.76,2.36-4.23,3.53-1.77-1.39-3.65-2.76-5.6-4.13ZM124.64,72.61c-1.64-1.14-3.34-2.27-5.1-3.38,1.12-1.61,2.19-3.2,3.22-4.79,2.28,1.01,4.46,2.04,6.53,3.09-1.46,1.68-3.02,3.38-4.66,5.08ZM123.11,63.9c1.35-2.12,2.62-4.21,3.79-6.28,2.91.82,5.63,1.71,8.15,2.67-.58.81-1.19,1.64-1.84,2.47-1.09,1.41-2.26,2.84-3.49,4.27-2.11-1.08-4.32-2.12-6.61-3.14ZM122.52,63.64c-1.76-.77-3.56-1.52-5.42-2.25.84-1.9,1.63-3.77,2.36-5.63,2.36.52,4.63,1.08,6.8,1.68-1.15,2.04-2.41,4.11-3.74,6.2ZM119.7,55.17c.88-2.26,1.69-4.48,2.41-6.65,1.88.16,3.72.34,5.48.58.93.13,1.84.26,2.73.41-.37.82-.76,1.65-1.18,2.49-.79,1.6-1.65,3.23-2.57,4.88-2.21-.62-4.51-1.18-6.88-1.71ZM119.06,55.03c-1.95-.42-3.94-.82-5.98-1.18.43-1.94.81-3.86,1.15-5.75,2.48.05,4.89.18,7.22.36-.71,2.13-1.51,4.32-2.39,6.56ZM114.35,47.47c.43-2.47.8-4.89,1.08-7.24,3-.36,5.87-.59,8.56-.67-.61,2.63-1.39,5.39-2.33,8.27-2.36-.19-4.81-.3-7.32-.36ZM113.7,47.46c-1.88-.03-3.8-.03-5.76,0,.05-2.08.06-4.12.03-6.11,2.34-.42,4.61-.76,6.81-1.04-.28,2.3-.65,4.7-1.08,7.15ZM107.97,40.69c-.05-2.39-.14-4.72-.31-6.97,2.72-.87,5.33-1.59,7.82-2.17-.09,2.56-.3,5.27-.63,8.1-2.24.27-4.54.63-6.89,1.04ZM107.33,40.81c-1.97.36-3.96.76-5.99,1.21-.34-1.93-.71-3.81-1.11-5.66,2.33-.9,4.6-1.72,6.81-2.44.16,2.22.25,4.52.3,6.88ZM99.5,35.97c-1.79.7-3.6,1.45-5.43,2.24-.75-1.93-1.52-3.82-2.31-5.64,2.04-1.3,4.04-2.51,6-3.62.62,2.24,1.2,4.59,1.73,7.03ZM91.5,31.98c-.97-2.23-1.98-4.38-3.01-6.43,2.22-1.88,4.4-3.6,6.52-5.11.92,2.44,1.77,5.08,2.57,7.88-2,1.13-4.03,2.35-6.08,3.66ZM90.97,32.32c-1.68,1.08-3.37,2.21-5.07,3.4-1.07-1.68-2.16-3.31-3.25-4.88,1.8-1.73,3.59-3.36,5.36-4.88,1.01,2.02,2,4.14,2.96,6.36ZM82.28,30.31c-1.44-2.06-2.89-4.03-4.36-5.89,1.87-2.38,3.74-4.57,5.59-6.54,1.43,2.29,2.83,4.8,4.2,7.5-1.8,1.54-3.62,3.19-5.43,4.93ZM81.81,30.76c-1.36,1.31-2.71,2.66-4.07,4.07-1.43-1.51-2.87-2.96-4.3-4.35,1.35-1.94,2.71-3.79,4.07-5.54,1.44,1.84,2.88,3.79,4.3,5.82ZM72.97,30.04c-1.72-1.65-3.43-3.23-5.13-4.7.87-1.67,1.75-3.29,2.65-4.83.44-.76.89-1.5,1.34-2.22.58.62,1.16,1.25,1.74,1.92,1.18,1.34,2.36,2.76,3.53,4.23-1.39,1.77-2.76,3.65-4.13,5.6ZM72.61,30.57c-1.14,1.64-2.27,3.34-3.38,5.1-1.6-1.12-3.2-2.19-4.78-3.21,1-2.27,2.03-4.46,3.1-6.54,1.67,1.45,3.36,3.01,5.06,4.66ZM63.9,32.1c-2.12-1.35-4.21-2.62-6.28-3.79.82-2.91,1.72-5.64,2.68-8.17,2.19,1.57,4.45,3.36,6.74,5.34-1.08,2.11-2.12,4.32-3.14,6.62ZM63.64,32.7c-.77,1.76-1.52,3.56-2.25,5.42-1.9-.84-3.77-1.63-5.63-2.36.52-2.36,1.08-4.63,1.68-6.81,2.02,1.15,4.09,2.4,6.19,3.75ZM55.17,35.51c-2.26-.89-4.49-1.7-6.67-2.42.24-2.9.57-5.65,1-8.23,2.38,1.08,4.85,2.34,7.39,3.76-.62,2.21-1.19,4.51-1.71,6.89ZM55.03,36.15c-.42,1.95-.82,3.94-1.18,5.98-1.95-.43-3.86-.81-5.75-1.15.05-2.49.16-4.91.34-7.22,2.15.71,4.35,1.52,6.59,2.39ZM47.46,41.51c-.03,1.88-.03,3.8,0,5.76-2.08-.05-4.12-.06-6.11-.03-.41-2.32-.76-4.59-1.03-6.8,2.32.28,4.71.64,7.15,1.07ZM40.69,47.24c-2.39.05-4.71.14-6.96.31-.87-2.71-1.59-5.32-2.17-7.81.85.03,1.72.07,2.61.12,1.78.11,3.62.28,5.49.49.27,2.24.63,4.54,1.04,6.88ZM40.81,47.87c.36,1.97.76,3.97,1.21,6-1.93.34-3.81.71-5.65,1.11-.9-2.33-1.72-4.6-2.44-6.81,2.21-.15,4.51-.25,6.88-.29ZM35.74,55.12c-2.45.54-4.83,1.12-7.11,1.76-1.48-2.64-2.77-5.2-3.88-7.67,2.66-.44,5.51-.77,8.53-1,.73,2.25,1.56,4.56,2.46,6.91ZM35.97,55.72c.7,1.79,1.45,3.6,2.24,5.43-1.93.75-3.81,1.52-5.64,2.31-1.3-2.04-2.52-4.04-3.63-6,2.24-.62,4.59-1.2,7.03-1.73ZM31.98,63.71c-2.22.97-4.37,1.97-6.42,3-1.22-1.44-2.38-2.87-3.46-4.29-.57-.75-1.12-1.5-1.65-2.23,2.44-.92,5.07-1.77,7.86-2.56,1.13,2,2.35,4.03,3.66,6.08ZM32.33,64.25c1.08,1.68,2.21,3.36,3.4,5.06-1.68,1.07-3.3,2.16-4.88,3.25-1.71-1.79-3.34-3.57-4.86-5.35,2.02-1.02,4.15-2,6.34-2.96ZM30.31,72.93c-2.05,1.44-4.02,2.89-5.88,4.35-1.48-1.17-2.9-2.34-4.24-3.52-.79-.69-1.54-1.38-2.27-2.06.85-.53,1.72-1.05,2.63-1.58,1.55-.89,3.17-1.76,4.85-2.62,1.54,1.8,3.18,3.61,4.92,5.42ZM30.76,73.4c1.31,1.36,2.66,2.71,4.07,4.07-1.51,1.43-2.96,2.87-4.35,4.3-1.93-1.35-3.79-2.71-5.55-4.08,1.83-1.43,3.78-2.86,5.82-4.29ZM30.04,82.24c-1.66,1.72-3.23,3.44-4.71,5.14-2.53-1.31-4.9-2.64-7.07-4,1.87-1.75,3.94-3.51,6.17-5.28,1.78,1.39,3.66,2.77,5.61,4.14ZM30.57,82.6c1.64,1.14,3.34,2.27,5.1,3.38-1.12,1.61-2.19,3.2-3.22,4.79-2.28-1.01-4.46-2.04-6.53-3.09,1.46-1.68,3.02-3.38,4.66-5.08ZM32.1,91.31c-1.35,2.12-2.62,4.21-3.79,6.28-2.91-.82-5.63-1.71-8.15-2.67.59-.81,1.19-1.64,1.84-2.47,1.09-1.41,2.26-2.84,3.49-4.27,2.11,1.08,4.32,2.12,6.61,3.14ZM32.69,91.57c1.76.77,3.56,1.52,5.42,2.25-.84,1.9-1.63,3.77-2.36,5.63-2.36-.52-4.63-1.08-6.81-1.68,1.15-2.02,2.4-4.09,3.75-6.19ZM35.51,100.04c-.88,2.26-1.7,4.49-2.41,6.66-1.88-.16-3.71-.35-5.48-.59-.94-.13-1.85-.27-2.74-.41,1.08-2.37,2.33-4.84,3.75-7.37,2.21.62,4.52,1.19,6.89,1.71ZM36.15,100.18c1.95.42,3.94.82,5.98,1.18-.43,1.95-.81,3.86-1.15,5.75-2.48-.05-4.9-.17-7.23-.35.71-2.14,1.52-4.33,2.4-6.58ZM40.86,107.74c-.44,2.47-.8,4.9-1.08,7.25-3,.36-5.87.58-8.56.66.61-2.63,1.39-5.4,2.33-8.28,2.36.19,4.8.31,7.31.37ZM41.51,107.75c.91.02,1.8.04,2.73.04,1,0,2.01-.02,3.03-.04-.05,2.08-.06,4.12-.03,6.12-2.33.42-4.6.77-6.8,1.04.28-2.32.64-4.72,1.08-7.16ZM47.88,114.4c1.97-.36,3.96-.76,5.99-1.21.34,1.93.71,3.81,1.11,5.66-2.33.9-4.6,1.72-6.82,2.44-.15-2.21-.25-4.51-.29-6.88ZM55.12,119.47c.54,2.45,1.12,4.83,1.76,7.11-2.64,1.48-5.2,2.77-7.66,3.88-.44-2.66-.77-5.51-1-8.53,2.25-.73,4.56-1.56,6.9-2.46ZM55.72,119.24c1.79-.7,3.6-1.45,5.43-2.24.75,1.93,1.52,3.81,2.31,5.64-2.04,1.3-4.04,2.52-6,3.63-.62-2.24-1.2-4.59-1.73-7.03ZM63.71,123.23c.97,2.23,1.98,4.38,3.01,6.43-2.22,1.88-4.4,3.59-6.52,5.11-.92-2.44-1.77-5.08-2.57-7.88,2-1.13,4.03-2.35,6.08-3.66ZM64.25,122.88c1.68-1.08,3.36-2.21,5.06-3.4,1.07,1.68,2.16,3.3,3.25,4.88-1.8,1.72-3.58,3.36-5.35,4.87-1.02-2.03-2.01-4.15-2.97-6.35ZM72.93,124.9c1.44,2.05,2.89,4.02,4.35,5.88-1.17,1.48-2.34,2.9-3.52,4.24-.69.79-1.38,1.54-2.06,2.27-.53-.85-1.05-1.72-1.58-2.63-.89-1.55-1.76-3.17-2.62-4.85,1.8-1.54,3.61-3.18,5.42-4.92ZM73.4,124.45c1.36-1.31,2.71-2.67,4.07-4.07,1.43,1.51,2.87,2.96,4.3,4.35-1.35,1.93-2.71,3.79-4.08,5.54-1.43-1.83-2.86-3.77-4.29-5.82ZM82.24,125.17c1.72,1.65,3.43,3.23,5.13,4.7-.87,1.67-1.75,3.29-2.65,4.83-.45.77-.9,1.51-1.34,2.23-1.74-1.87-3.51-3.92-5.27-6.15,1.39-1.78,2.77-3.65,4.13-5.61ZM82.6,124.64c1.14-1.64,2.27-3.34,3.38-5.1,1.6,1.12,3.2,2.19,4.78,3.21-1,2.27-2.03,4.46-3.1,6.54-1.67-1.45-3.36-3.01-5.06-4.66ZM91.31,123.11c2.12,1.35,4.21,2.62,6.28,3.79-.82,2.91-1.72,5.64-2.68,8.16-2.19-1.58-4.45-3.35-6.74-5.33,1.08-2.11,2.13-4.33,3.14-6.62ZM91.57,122.52c.77-1.76,1.52-3.56,2.25-5.42,1.9.84,3.77,1.63,5.63,2.36-.52,2.36-1.08,4.63-1.68,6.81-2.02-1.15-4.09-2.4-6.19-3.75ZM100.04,119.7c2.26.89,4.49,1.7,6.67,2.42-.24,2.9-.57,5.65-1,8.23-2.38-1.08-4.85-2.34-7.39-3.76.62-2.21,1.19-4.52,1.71-6.89ZM100.18,119.06c.42-1.95.82-3.94,1.18-5.98,1.95.43,3.86.81,5.75,1.15-.05,2.5-.16,4.91-.34,7.23-2.14-.71-4.34-1.52-6.59-2.4ZM107.74,114.35c2.47.44,4.9.8,7.25,1.08.36,3,.58,5.87.66,8.56-2.63-.61-5.39-1.39-8.27-2.33.19-2.36.3-4.81.36-7.32ZM107.75,113.7c.03-1.88.03-3.8,0-5.76,1.34.03,2.68.06,3.99.06.72,0,1.42-.02,2.12-.03.42,2.34.77,4.61,1.05,6.81-2.31-.28-4.7-.65-7.16-1.08ZM114.52,107.96c2.39-.05,4.71-.15,6.96-.31.87,2.72,1.6,5.34,2.18,7.84-2.56-.09-5.27-.3-8.1-.63-.27-2.24-.63-4.55-1.04-6.9ZM114.4,107.34c-.36-1.97-.76-3.97-1.21-6,1.93-.34,3.81-.71,5.65-1.11.9,2.33,1.72,4.6,2.44,6.81-2.21.15-4.51.25-6.88.29ZM119.47,100.09c2.45-.54,4.82-1.12,7.1-1.76.92,1.65,1.78,3.28,2.57,4.88.47.95.9,1.88,1.31,2.79-2.66.44-5.5.77-8.52,1-.73-2.25-1.56-4.56-2.46-6.91ZM119.24,99.49c-.7-1.79-1.45-3.6-2.24-5.43,1.93-.75,3.81-1.52,5.64-2.31,1.29,2.02,2.5,4.03,3.62,6.01-2.24.62-4.58,1.2-7.02,1.73ZM123.23,91.5c2.22-.97,4.37-1.97,6.42-3,1.22,1.44,2.38,2.87,3.46,4.29.57.75,1.12,1.5,1.65,2.23-2.44.92-5.07,1.77-7.86,2.56-1.13-2-2.35-4.03-3.66-6.08ZM122.88,90.96c-1.08-1.68-2.21-3.36-3.4-5.06,1.68-1.07,3.3-2.16,4.88-3.25,1.71,1.79,3.34,3.57,4.86,5.35-2.02,1.02-4.15,2-6.34,2.96ZM124.9,82.28c2.05-1.44,4.02-2.89,5.88-4.35,1.48,1.17,2.9,2.34,4.24,3.52.79.69,1.54,1.38,2.27,2.06-.85.53-1.72,1.05-2.63,1.58-1.55.89-3.17,1.76-4.85,2.62-1.54-1.8-3.18-3.61-4.92-5.42ZM135.44,80.96c-1.32-1.15-2.71-2.3-4.16-3.45,1.44-1.15,2.83-2.3,4.14-3.46.71-.63,1.4-1.26,2.07-1.88,2.92,1.85,5.49,3.74,7.66,5.64-2.06,1.78-4.51,3.56-7.32,5.33-.77-.72-1.56-1.45-2.4-2.19ZM137.95,71.73c2.54-2.42,4.7-4.78,6.45-7.05,3.03,1.78,5.44,3.7,7.16,5.71-1.28,2.29-3.27,4.63-5.94,7-2.15-1.89-4.72-3.78-7.67-5.66ZM137.4,71.37c-.77-.48-1.55-.96-2.37-1.44-1.51-.88-3.1-1.75-4.73-2.6,1.2-1.4,2.34-2.8,3.41-4.18.69-.89,1.33-1.76,1.95-2.63,3.06,1.19,5.8,2.47,8.19,3.83-1.75,2.25-3.9,4.6-6.45,7.01ZM136.02,60.01c1.95-2.77,3.55-5.41,4.79-7.89,3.16,1.12,5.77,2.45,7.76,3.98-.82,2.42-2.28,5.02-4.35,7.76-2.37-1.36-5.12-2.64-8.2-3.84ZM135.41,59.77c-.99-.38-2-.75-3.05-1.11-1.66-.56-3.38-1.1-5.15-1.6.9-1.61,1.74-3.21,2.51-4.78.44-.9.86-1.79,1.25-2.66,3.45.6,6.55,1.37,9.24,2.28-1.24,2.47-2.85,5.1-4.8,7.87ZM131.23,49.02c1.42-3.21,2.51-6.22,3.25-8.99,3.48.5,6.43,1.36,8.77,2.58-.29,2.6-1.22,5.52-2.77,8.72-2.71-.93-5.81-1.7-9.26-2.31ZM130.58,48.9c-.94-.16-1.91-.31-2.91-.44-1.73-.23-3.53-.42-5.37-.58.57-1.76,1.09-3.48,1.54-5.17.29-1.08.55-2.13.79-3.16.61-.01,1.23-.03,1.83-.03,2.65,0,5.12.15,7.38.44-.74,2.75-1.84,5.74-3.26,8.95ZM124.13,38.93c-1.06.03-2.14.08-3.26.15-1.75.11-3.54.29-5.38.5.21-1.83.37-3.63.48-5.38.06-.95.1-1.88.13-2.79,3.38-.76,6.53-1.24,9.41-1.43-.2,2.74-.67,5.74-1.39,8.94ZM115.5,30.91c-.89.2-1.79.42-2.71.67-1.69.44-3.42.95-5.18,1.51-.14-1.84-.32-3.64-.55-5.37-.14-1.11-.31-2.19-.48-3.24,3-1.32,5.85-2.35,8.5-3.08.37,2.86.5,6.04.41,9.51ZM106.47,23.86c-.58-3.34-1.32-6.35-2.2-8.99,3-1.42,5.79-2.31,8.3-2.64,1.14,2.31,1.95,5.19,2.43,8.55-2.64.72-5.49,1.76-8.53,3.08ZM105.87,24.12c-.96.43-1.94.88-2.94,1.37-1.57.77-3.17,1.62-4.78,2.51-.51-1.77-1.04-3.5-1.6-5.16-.33-.96-.66-1.89-1-2.79,2.84-1.99,5.57-3.64,8.15-4.91.87,2.62,1.6,5.63,2.17,8.97ZM95.31,19.48c-1.27-3.27-2.62-6.17-4.05-8.65,2.8-2.1,5.5-3.6,8.01-4.4,1.63,2.04,3.05,4.77,4.22,8.13-2.57,1.26-5.3,2.91-8.18,4.91ZM94.79,19.84c-.79.56-1.58,1.14-2.39,1.76-1.39,1.06-2.8,2.2-4.2,3.39-.84-1.64-1.69-3.23-2.57-4.75-.56-.97-1.12-1.9-1.69-2.8,2.32-2.43,4.6-4.51,6.81-6.22,1.44,2.5,2.79,5.39,4.03,8.63ZM83.6,16.89c-1.78-2.79-3.57-5.25-5.36-7.31,2.29-2.55,4.56-4.49,6.78-5.76,1.91,1.68,3.72,3.98,5.42,6.84-2.2,1.7-4.49,3.79-6.84,6.23ZM83.17,17.34c-.73.78-1.47,1.58-2.21,2.42-1.15,1.32-2.3,2.71-3.45,4.15-1.15-1.44-2.3-2.83-3.46-4.14-.63-.71-1.25-1.39-1.86-2.05,1.88-2.96,3.77-5.53,5.64-7.68,1.8,2.08,3.58,4.52,5.34,7.29ZM71.73,17.26c-2.42-2.54-4.78-4.7-7.05-6.45,1.79-3.03,3.71-5.45,5.73-7.17,2.31,1.3,4.66,3.3,7,5.93-1.89,2.15-3.79,4.73-5.68,7.69ZM71.37,17.81c-.48.77-.96,1.55-1.43,2.37-.88,1.51-1.75,3.1-2.6,4.73-1.4-1.2-2.8-2.34-4.18-3.41-.89-.69-1.76-1.33-2.63-1.95,1.19-3.06,2.47-5.8,3.83-8.19,2.25,1.75,4.6,3.9,7.01,6.44ZM60.01,19.19c-2.77-1.95-5.41-3.56-7.9-4.79,1.11-3.12,2.45-5.74,4-7.75,2.41.82,5.01,2.28,7.75,4.34-1.36,2.37-2.64,5.12-3.85,8.21ZM59.78,19.78c-.38.99-.75,2.01-1.12,3.07-.56,1.66-1.1,3.38-1.6,5.16-1.61-.9-3.21-1.74-4.78-2.51-.91-.45-1.8-.86-2.67-1.26.6-3.42,1.36-6.52,2.29-9.25,2.5,1.25,5.14,2.85,7.88,4.79ZM49.02,23.98c-3.21-1.42-6.21-2.51-8.97-3.25.5-3.52,1.36-6.47,2.57-8.78,2.63.3,5.56,1.23,8.72,2.75-.93,2.71-1.7,5.82-2.31,9.28ZM48.91,24.61c-.16.95-.31,1.92-.44,2.92-.23,1.73-.42,3.53-.58,5.37-1.76-.57-3.48-1.09-5.17-1.54-1.08-.29-2.12-.54-3.15-.78-.08-3.39.05-6.47.4-9.21,2.78.75,5.78,1.84,8.95,3.25ZM38.93,31.09c.03,1.06.08,2.13.15,3.25.11,1.75.29,3.54.5,5.38-1.83-.21-3.63-.37-5.38-.48-.95-.06-1.88-.1-2.78-.13-.76-3.38-1.24-6.53-1.43-9.4,2.71.2,5.7.67,8.94,1.39ZM28.83,39.69c.68,0,1.38.02,2.08.03.2.88.42,1.78.66,2.69.44,1.69.95,3.42,1.51,5.18-1.84.14-3.64.32-5.37.55-1.11.14-2.18.31-3.23.48-1.32-3-2.36-5.84-3.08-8.49,2.26-.29,4.73-.44,7.43-.44ZM23.86,48.74c-3.33.58-6.34,1.31-8.97,2.19-1.44-3.03-2.34-5.81-2.67-8.3,2.29-1.13,5.15-1.94,8.55-2.42.72,2.64,1.76,5.49,3.08,8.53ZM24.11,49.32c.43.97.89,1.96,1.39,2.97.77,1.57,1.62,3.17,2.51,4.78-1.77.51-3.5,1.04-5.15,1.6-.95.32-1.87.66-2.77.99-2.02-2.87-3.67-5.6-4.93-8.16,2.65-.88,5.65-1.61,8.95-2.18ZM19.48,59.9c-3.27,1.26-6.16,2.62-8.64,4.05-2.14-2.84-3.61-5.54-4.4-8.03,2.07-1.65,4.8-3.06,8.11-4.21,1.26,2.57,2.91,5.32,4.92,8.19ZM19.84,60.42c.56.79,1.14,1.58,1.76,2.39,1.06,1.39,2.2,2.8,3.39,4.2-1.64.84-3.23,1.69-4.75,2.57-.97.56-1.89,1.11-2.78,1.67-2.45-2.34-4.54-4.62-6.24-6.8,2.5-1.44,5.39-2.78,8.62-4.03ZM16.9,71.61c-2.8,1.78-5.26,3.58-7.32,5.37-2.52-2.27-4.46-4.55-5.75-6.79,1.68-1.91,3.98-3.72,6.83-5.42,1.7,2.2,3.79,4.49,6.23,6.84ZM17.37,72.06c.77.72,1.56,1.45,2.4,2.19,1.32,1.15,2.71,2.3,4.16,3.45-1.44,1.15-2.83,2.3-4.14,3.46-.71.63-1.4,1.26-2.07,1.88-2.92-1.85-5.49-3.74-7.66-5.64,2.06-1.78,4.51-3.56,7.32-5.33ZM17.26,83.48c-2.54,2.42-4.7,4.78-6.45,7.05-3.03-1.78-5.44-3.7-7.16-5.71,1.28-2.29,3.27-4.63,5.94-7,2.15,1.89,4.72,3.78,7.67,5.66ZM17.79,83.83c.77.48,1.56.96,2.38,1.44,1.51.88,3.1,1.75,4.73,2.6-1.2,1.4-2.34,2.8-3.41,4.18-.69.89-1.33,1.76-1.95,2.63-3.06-1.19-5.8-2.47-8.19-3.84,1.76-2.28,3.92-4.63,6.43-7.02ZM19.19,95.2c-1.95,2.77-3.55,5.41-4.79,7.89-3.16-1.12-5.76-2.45-7.75-3.98.83-2.45,2.3-5.05,4.33-7.77,2.37,1.36,5.12,2.64,8.21,3.85ZM19.8,95.44c.99.38,2,.75,3.05,1.11,1.66.56,3.38,1.1,5.16,1.6-.9,1.61-1.74,3.21-2.51,4.78-.44.9-.86,1.79-1.25,2.66-3.45-.6-6.55-1.37-9.24-2.28,1.24-2.47,2.85-5.1,4.8-7.87ZM23.98,106.19c-1.42,3.21-2.51,6.21-3.25,8.98-3.47-.5-6.43-1.35-8.77-2.57.29-2.59,1.22-5.52,2.77-8.71,2.71.93,5.81,1.7,9.26,2.31ZM24.61,106.3c.95.16,1.92.31,2.92.44,1.73.23,3.54.41,5.37.57-.57,1.76-1.09,3.49-1.55,5.18-.29,1.08-.55,2.13-.79,3.17-3.35.08-6.44-.06-9.21-.41.75-2.78,1.84-5.78,3.25-8.95ZM31.08,116.28c1.06-.03,2.14-.08,3.26-.15,1.75-.11,3.54-.29,5.38-.5-.21,1.83-.37,3.63-.48,5.38-.06.95-.1,1.88-.13,2.79-3.38.76-6.53,1.24-9.41,1.43.2-2.74.67-5.74,1.39-8.94ZM39.73,124.29c.88-.2,1.78-.42,2.69-.66,1.69-.44,3.42-.95,5.18-1.51.14,1.84.32,3.64.55,5.37.14,1.11.31,2.18.48,3.23-3,1.32-5.85,2.36-8.5,3.08-.36-2.83-.49-6.01-.4-9.51ZM48.74,131.35c.58,3.34,1.31,6.34,2.2,8.98-3,1.42-5.79,2.33-8.31,2.65-1.13-2.29-1.93-5.17-2.41-8.56,2.64-.72,5.48-1.74,8.52-3.07ZM49.33,131.1c.97-.43,1.95-.89,2.95-1.39,1.57-.77,3.17-1.62,4.78-2.51.51,1.77,1.04,3.5,1.6,5.16.33.96.66,1.88,1,2.78-2.84,1.99-5.57,3.64-8.16,4.91-.88-2.65-1.61-5.65-2.18-8.95ZM59.9,135.74c1.26,3.27,2.62,6.16,4.05,8.63-2.84,2.13-5.53,3.61-8.02,4.39-1.65-2.06-3.06-4.8-4.22-8.11,2.57-1.26,5.31-2.9,8.19-4.92ZM60.42,135.37c.79-.56,1.58-1.14,2.39-1.75,1.39-1.06,2.8-2.2,4.2-3.39.84,1.64,1.69,3.23,2.57,4.75.56.97,1.12,1.88,1.68,2.78-2.34,2.45-4.62,4.54-6.81,6.24-1.44-2.5-2.79-5.39-4.03-8.63ZM71.61,138.32c1.78,2.8,3.57,5.23,5.36,7.3-2.29,2.56-4.57,4.49-6.78,5.77-1.91-1.68-3.72-3.98-5.42-6.84,2.21-1.7,4.49-3.78,6.84-6.23ZM72.06,137.84c.72-.77,1.45-1.56,2.19-2.4,1.15-1.32,2.3-2.71,3.45-4.16,1.15,1.44,2.3,2.83,3.46,4.14.63.71,1.25,1.39,1.87,2.05-1.88,2.96-3.76,5.52-5.64,7.67-1.77-2.06-3.55-4.51-5.32-7.3ZM83.48,137.95c2.42,2.54,4.78,4.7,7.05,6.45-1.78,3.03-3.7,5.44-5.71,7.16-2.29-1.28-4.64-3.28-7-5.95,1.89-2.15,3.78-4.71,5.66-7.66ZM83.82,137.42c.48-.77.97-1.56,1.45-2.39.88-1.51,1.75-3.1,2.6-4.73,1.4,1.2,2.8,2.34,4.18,3.41.89.69,1.76,1.33,2.63,1.95-1.19,3.06-2.47,5.8-3.84,8.19-2.28-1.76-4.63-3.92-7.02-6.43ZM95.19,136.03c2.77,1.95,5.42,3.55,7.91,4.79-1.11,3.12-2.45,5.73-3.99,7.75-2.44-.83-5.05-2.3-7.76-4.33,1.36-2.37,2.64-5.12,3.85-8.2ZM95.43,135.43c.38-.99.75-2.01,1.11-3.07.56-1.66,1.1-3.38,1.6-5.16,1.61.9,3.21,1.74,4.78,2.51.91.45,1.8.86,2.67,1.26-.6,3.42-1.36,6.52-2.29,9.25-2.5-1.25-5.14-2.86-7.88-4.79ZM106.19,131.23c3.22,1.42,6.21,2.49,8.98,3.23-.5,3.48-1.35,6.44-2.57,8.79-2.63-.29-5.56-1.23-8.72-2.75.93-2.71,1.7-5.81,2.31-9.26ZM106.3,130.6c.16-.95.31-1.92.44-2.92.23-1.73.42-3.53.58-5.37,1.76.57,3.48,1.09,5.17,1.54,1.08.29,2.13.55,3.17.78.08,3.35-.06,6.44-.41,9.21-2.78-.75-5.78-1.84-8.95-3.25ZM116.28,124.13c-.03-1.06-.08-2.14-.15-3.26-.11-1.75-.29-3.54-.5-5.37,1.83.21,3.63.37,5.38.48.95.06,1.88.1,2.79.13.76,3.38,1.24,6.53,1.43,9.41-2.74-.2-5.74-.67-8.94-1.39ZM124.3,115.5c-.2-.89-.42-1.79-.67-2.71-.44-1.7-.95-3.43-1.51-5.19,1.84-.14,3.64-.31,5.37-.54,1.1-.14,2.17-.3,3.21-.48,1.34,3.03,2.38,5.88,3.1,8.5-2.86.37-6.04.5-9.5.41ZM131.35,106.47c3.33-.58,6.34-1.31,8.97-2.19,1.44,3.03,2.34,5.81,2.67,8.29-2.31,1.14-5.2,1.95-8.55,2.43-.72-2.64-1.76-5.49-3.08-8.53ZM131.1,105.89c-.43-.97-.89-1.96-1.39-2.97-.77-1.57-1.62-3.17-2.51-4.78,1.77-.51,3.5-1.04,5.16-1.6.95-.32,1.87-.66,2.77-.99,2.02,2.87,3.67,5.6,4.93,8.16-2.65.88-5.65,1.61-8.95,2.18ZM135.73,95.31c3.27-1.26,6.16-2.62,8.64-4.05,2.14,2.84,3.61,5.54,4.4,8.03-2.07,1.65-4.8,3.06-8.11,4.21-1.26-2.57-2.91-5.32-4.92-8.19ZM135.38,94.79c-.56-.79-1.14-1.58-1.76-2.39-1.06-1.39-2.2-2.8-3.39-4.2,1.64-.84,3.23-1.69,4.75-2.57.97-.56,1.89-1.11,2.78-1.67,2.45,2.34,4.54,4.62,6.24,6.8-2.5,1.44-5.39,2.78-8.62,4.03ZM138.32,83.6c2.8-1.78,5.26-3.58,7.32-5.37,2.52,2.27,4.46,4.55,5.75,6.79-1.68,1.91-3.98,3.72-6.83,5.42-1.7-2.2-3.79-4.49-6.24-6.84ZM153.12,62.76c.44,2.24,0,4.6-1.24,7.04-1.72-1.96-4.12-3.84-7.12-5.61,2.01-2.69,3.46-5.26,4.32-7.66,2.2,1.83,3.59,3.92,4.04,6.24ZM148.66,48.03c.91,2.18.91,4.68.1,7.43-2.01-1.5-4.58-2.81-7.68-3.92,1.51-3.14,2.44-6.03,2.77-8.61,2.29,1.31,3.94,3.01,4.81,5.1ZM141.77,35.1c1.24,1.87,1.74,4.17,1.55,6.83-2.33-1.17-5.25-2-8.69-2.5.81-3.19,1.16-6.07,1.03-8.58,2.71.85,4.79,2.25,6.11,4.24ZM132.03,23.18c1.67,1.67,2.63,3.98,2.92,6.83-2.47-.63-5.41-.86-8.76-.69.2-3.48-.03-6.52-.69-9.04,2.69.33,4.91,1.27,6.54,2.9ZM114.66,12.07c2.24,0,4.21.53,5.85,1.64,1.91,1.29,3.27,3.28,4.11,5.86-2.61-.17-5.64.19-9.01,1.06-.48-3.33-1.27-6.18-2.37-8.48.48-.04.96-.07,1.42-.07ZM103.31,5.75c1.28,0,2.49.23,3.62.69,2.21.91,3.97,2.69,5.33,5.19-2.48.36-5.23,1.25-8.2,2.66-1.15-3.28-2.53-5.98-4.12-8.04,1.17-.32,2.3-.5,3.38-.5ZM91.12,2c.61,0,1.21.06,1.8.18,2.19.45,4.17,1.72,5.92,3.73-2.47.82-5.13,2.3-7.91,4.38-1.68-2.82-3.47-5.1-5.33-6.78,1.89-.99,3.74-1.51,5.51-1.51ZM77.61.64c2.39,0,4.71.96,6.91,2.76-2.2,1.3-4.44,3.22-6.7,5.72-2.32-2.6-4.63-4.59-6.89-5.91,2.13-1.67,4.37-2.57,6.68-2.57ZM62.76,2.09c2.27-.45,4.64,0,7.05,1.23-1.97,1.73-3.85,4.12-5.63,7.13-2.69-2.01-5.26-3.46-7.66-4.32,1.81-2.18,3.89-3.58,6.24-4.04ZM48.03,6.55c1.14-.47,2.36-.71,3.66-.71,1.2,0,2.46.21,3.78.6-1.5,2.01-2.81,4.59-3.92,7.69-3.13-1.51-6.02-2.44-8.61-2.77,1.33-2.32,3.03-3.95,5.09-4.81ZM35.1,13.44c1.63-1.08,3.57-1.6,5.78-1.6.34,0,.7.02,1.06.05-1.17,2.33-2,5.25-2.5,8.7-3.19-.81-6.06-1.15-8.56-1.03.85-2.71,2.23-4.8,4.23-6.12ZM23.18,23.18c1.69-1.69,4.01-2.63,6.83-2.92-.63,2.47-.86,5.41-.69,8.77-3.48-.2-6.52.03-9.05.7.32-2.69,1.27-4.91,2.9-6.54ZM13.71,34.7c1.27-1.9,3.25-3.27,5.86-4.11-.17,2.61.19,5.64,1.06,9.02-3.33.48-6.17,1.27-8.47,2.36-.26-2.85.23-5.31,1.55-7.27ZM6.45,48.27c.9-2.18,2.66-3.97,5.18-5.33.36,2.48,1.25,5.23,2.66,8.21-3.28,1.15-5.98,2.53-8.05,4.13-.7-2.58-.65-4.93.2-7ZM2.18,62.29c.45-2.22,1.74-4.2,3.73-5.93.82,2.48,2.3,5.13,4.38,7.92-2.83,1.69-5.11,3.47-6.79,5.33-1.32-2.51-1.8-4.98-1.33-7.32ZM.64,77.61c0-2.39.96-4.71,2.76-6.91,1.3,2.2,3.22,4.44,5.72,6.7-2.6,2.32-4.59,4.63-5.91,6.89-1.67-2.13-2.57-4.37-2.57-6.68ZM2.09,92.45c-.44-2.24,0-4.6,1.24-7.04,1.72,1.96,4.12,3.84,7.12,5.61-2.01,2.69-3.46,5.26-4.32,7.66-2.2-1.83-3.59-3.92-4.04-6.24ZM6.55,107.18c-.92-2.21-.91-4.71-.1-7.43,2.01,1.5,4.58,2.81,7.68,3.92-1.51,3.14-2.44,6.03-2.77,8.62-2.29-1.31-3.94-3.01-4.81-5.1ZM13.44,120.11c-1.24-1.87-1.74-4.17-1.55-6.83,2.33,1.17,5.24,2.01,8.69,2.51-.81,3.19-1.15,6.06-1.03,8.57-2.71-.84-4.79-2.25-6.11-4.24ZM23.18,132.03c-1.69-1.69-2.63-4.01-2.92-6.83,1.94.5,4.17.75,6.67.75.68,0,1.38-.02,2.1-.06-.2,3.48.03,6.51.7,9.04-2.69-.32-4.91-1.27-6.54-2.9ZM34.7,141.5c-1.92-1.29-3.27-3.28-4.11-5.86.43.03.86.05,1.31.05,2.29,0,4.88-.39,7.7-1.11.48,3.33,1.27,6.17,2.37,8.47-2.82.26-5.29-.22-7.27-1.55ZM48.27,148.76c-2.18-.9-3.96-2.66-5.32-5.18,2.48-.36,5.23-1.25,8.2-2.66,1.15,3.28,2.53,5.98,4.12,8.04-2.58.7-4.93.65-7-.2ZM64.09,153.21c-.61,0-1.21-.06-1.8-.18-2.22-.45-4.2-1.74-5.94-3.74,2.48-.82,5.14-2.29,7.93-4.38,1.68,2.82,3.47,5.1,5.32,6.78-1.89.99-3.74,1.51-5.51,1.51ZM77.61,154.57c-2.39,0-4.71-.96-6.91-2.76,2.2-1.3,4.44-3.21,6.7-5.71,2.32,2.6,4.63,4.59,6.89,5.9-2.13,1.67-4.37,2.57-6.68,2.57ZM92.45,153.13c-2.24.44-4.6,0-7.04-1.24,1.96-1.72,3.84-4.12,5.61-7.11,2.69,2.01,5.26,3.47,7.66,4.32-1.81,2.18-3.89,3.58-6.23,4.04ZM107.18,148.66c-1.14.48-2.37.71-3.66.71-1.2,0-2.47-.21-3.78-.6,1.5-2.01,2.81-4.58,3.92-7.68,3.14,1.51,6.03,2.44,8.62,2.77-1.31,2.29-3.01,3.93-5.1,4.8ZM120.11,141.77c-1.89,1.25-4.2,1.75-6.84,1.56,1.17-2.33,2.01-5.26,2.5-8.71,2.76.7,5.29,1.07,7.53,1.07.35,0,.69-.02,1.03-.04-.85,2.71-2.23,4.8-4.23,6.12ZM132.03,132.03c-1.69,1.69-4.01,2.64-6.83,2.93.63-2.47.86-5.41.69-8.76.8.05,1.58.08,2.33.08,2.52,0,4.76-.26,6.71-.77-.33,2.72-1.28,4.92-2.89,6.54ZM141.5,120.51c-1.29,1.91-3.28,3.27-5.86,4.11.17-2.61-.19-5.63-1.06-9,3.33-.48,6.17-1.27,8.47-2.36.26,2.85-.24,5.3-1.55,7.26ZM148.76,106.94c-.91,2.21-2.69,3.97-5.19,5.33-.36-2.48-1.25-5.23-2.66-8.2,3.28-1.15,5.98-2.53,8.05-4.13.7,2.58.65,4.93-.2,7ZM153.03,92.92c-.45,2.22-1.74,4.2-3.73,5.93-.82-2.48-2.3-5.13-4.38-7.92,2.83-1.69,5.11-3.47,6.79-5.33,1.32,2.51,1.8,4.98,1.33,7.32Z"/></g></svg>