<svg xmlns="http://www.w3.org/2000/svg" xmlns:xlink="http://www.w3.org/1999/xlink" viewBox="0 0 346.38 57"><defs><linearGradient id="a" y1="28.15" x2="56.29" y2="28.15" gradientUnits="userSpaceOnUse"><stop offset="0" stop-color="#009f9a"/><stop offset="0.3" stop-color="#40b37b"/><stop offset="0.78" stop-color="#a0d14d"/><stop offset="1" stop-color="#c6dd3a"/></linearGradient></defs><path d="M28.15,9.71a4.87,4.87,0,0,0,3.43-1.42h0a4.86,4.86,0,1,0-3.43,1.42Zm11.64,1.93a4.87,4.87,0,1,0,3.44,1.43A4.83,4.83,0,0,0,39.79,11.64ZM54.87,24.71a4.86,4.86,0,1,0,0,6.87h0A4.85,4.85,0,0,0,54.87,24.71ZM16.5,11.64a4.88,4.88,0,1,0,3.43,1.43A4.79,4.79,0,0,0,16.5,11.64ZM28.15,33a4.83,4.83,0,0,0,3.43-1.42h0A4.86,4.86,0,1,0,28.15,33Zm8.21,3.36a4.86,4.86,0,0,0,6.87,6.87h0a4.86,4.86,0,0,0-6.87-6.87ZM1.42,24.71a4.86,4.86,0,0,0,6.87,6.87h0a4.86,4.86,0,0,0-6.87-6.87ZM13.07,36.36a4.85,4.85,0,1,0,6.86,6.87h0a4.85,4.85,0,0,0-6.86-6.87ZM28.15,46.58a4.86,4.86,0,1,0,3.43,8.29,4.86,4.86,0,0,0-3.43-8.29Z" style="fill:url(#a)"/><path d="M177.85,16.46a13.09,13.09,0,0,1,8.89-3.38,15.09,15.09,0,0,1,10.75,4l1.63-1.86a17.57,17.57,0,0,0-12.24-4.4,16,16,0,0,0-9,2.68Z" style="fill:#b2b3b0"/><path d="M186.74,29.81h11.18v9.61a17.13,17.13,0,0,1-10.66,3.83A14.09,14.09,0,0,1,177.85,40v2.91a17.24,17.24,0,0,0,9.32,2.53,20.09,20.09,0,0,0,13.14-5V27.52H186.74Z" style="fill:#b2b3b0"/><path d="M309.9,31c0,8.08-4.35,12.19-11.14,12.19-7.08,0-11.33-4.54-11.33-12.43V11.4h-2.49V31c0,9.37,5.69,14.44,13.72,14.44s13.72-5.12,13.72-14.73V11.4H309.9Z" style="fill:#b2b3b0"/><path d="M236.27,21v-.1a8.84,8.84,0,0,0-2.54-6.22c-2-2-5.3-3.3-9.41-3.3H210.26V44.88h2.48V31h10.95l10.67,13.87h3.15l-11-14.3C232.11,29.81,236.27,26.61,236.27,21Zm-23.53,7.74V13.7h11.43c6.07,0,9.61,2.82,9.61,7.32v.09c0,4.83-4.16,7.65-9.75,7.65Z" style="fill:#b2b3b0"/><path d="M334,11.4H321.8V44.88h2.49V32.4h9c7,0,13.05-3.64,13.05-10.67v-.09C346.38,15.18,341.31,11.4,334,11.4Zm9.94,10.48c0,5-4.21,8.22-10.42,8.22h-9.18V13.7h9.47c6,0,10.13,2.77,10.13,8.08Z" style="fill:#b2b3b0"/><path d="M260.22,10.83c-10.14,0-16.88,8.18-16.88,17.31v.1c0,9.13,6.65,17.21,16.79,17.21S277,37.27,277,28.14c.05-.05.05-.05,0-.1C277,18.91,270.36,10.83,260.22,10.83Zm14.2,17.41c0,8.27-5.93,15-14.2,15s-14.29-6.79-14.29-15.06V28c0-8.27,5.92-15,14.2-15s14.29,6.79,14.29,15.06Z" style="fill:#b2b3b0"/><path d="M70.35,28.24v-.1c0-9.61,7.74-17.4,18.07-17.4s18,7.7,18,17.31v.09c0,9.61-7.75,17.41-18.07,17.41S70.35,37.85,70.35,28.24Zm26.58,0v-.1c0-4.83-3.49-9-8.6-9s-8.47,4.11-8.47,8.94v.09c0,4.83,3.49,9,8.56,9S96.93,33.07,96.93,28.24Z" style="fill:#000000"/><path d="M118,19.54h-10V11.41h29.35v8.13h-10V44.88H118Z" style="fill:#000000"/><path d="M139.06,39.9l5.16-6.16a17.23,17.23,0,0,0,10.86,4c2.48,0,3.82-.86,3.82-2.29v-.1c0-1.38-1.1-2.15-5.64-3.2-7.12-1.63-12.62-3.63-12.62-10.52v-.09c0-6.22,4.92-10.71,13-10.71,5.69,0,10.14,1.53,13.77,4.44l-4.63,6.55a16.81,16.81,0,0,0-9.38-3.3c-2.24,0-3.34,1-3.34,2.15v.1c0,1.53,1.15,2.2,5.78,3.25,7.7,1.67,12.48,4.16,12.48,10.42v.1c0,6.84-5.4,10.9-13.53,10.9A23.33,23.33,0,0,1,139.06,39.9Z" style="fill:#000000"/></svg>