<?xml version="1.0" encoding="UTF-8"?><svg id="logo-aymerich" xmlns="http://www.w3.org/2000/svg" viewBox="0 0 238.93 51.28"><path fill="#000000" d="M.88,21.7c.11-1.83,.57-3.35,1.37-4.56,.8-1.21,1.83-2.18,3.07-2.91,1.24-.73,2.64-1.25,4.2-1.56,1.55-.31,3.12-.47,4.69-.47,1.43,0,2.87,.1,4.34,.3,1.46,.2,2.8,.6,4.01,1.18,1.21,.59,2.2,1.4,2.96,2.44,.77,1.04,1.15,2.42,1.15,4.14v14.76c0,1.28,.07,2.51,.22,3.68,.15,1.17,.4,2.05,.77,2.63h-7.9c-.15-.44-.27-.89-.36-1.34-.09-.46-.16-.92-.19-1.4-1.24,1.28-2.71,2.18-4.39,2.69-1.68,.51-3.4,.77-5.16,.77-1.35,0-2.62-.16-3.79-.49-1.17-.33-2.2-.84-3.07-1.54-.88-.69-1.56-1.57-2.06-2.63-.49-1.06-.74-2.32-.74-3.79,0-1.61,.28-2.94,.85-3.98,.57-1.04,1.3-1.87,2.2-2.5,.9-.62,1.92-1.09,3.07-1.4,1.15-.31,2.31-.56,3.48-.74,1.17-.18,2.32-.33,3.46-.44,1.13-.11,2.14-.27,3.02-.49,.88-.22,1.57-.54,2.09-.96,.51-.42,.75-1.03,.71-1.84,0-.84-.14-1.51-.41-2-.27-.49-.64-.88-1.1-1.15-.46-.27-.99-.46-1.59-.55-.6-.09-1.25-.14-1.95-.14-1.54,0-2.74,.33-3.62,.99-.88,.66-1.39,1.76-1.54,3.29H.88Zm18,5.76c-.33,.29-.74,.52-1.24,.69-.49,.16-1.02,.3-1.59,.41-.57,.11-1.16,.2-1.78,.27-.62,.07-1.24,.16-1.87,.27-.59,.11-1.16,.26-1.73,.44-.57,.18-1.06,.43-1.48,.74-.42,.31-.76,.7-1.02,1.18-.26,.48-.38,1.08-.38,1.81s.13,1.28,.38,1.76c.26,.48,.6,.85,1.04,1.13,.44,.27,.95,.47,1.54,.58,.58,.11,1.19,.16,1.81,.16,1.54,0,2.73-.26,3.57-.77,.84-.51,1.46-1.12,1.87-1.84,.4-.71,.65-1.44,.74-2.17,.09-.73,.14-1.32,.14-1.76v-2.91Z"></path><path fill="#000000" d="M43.36,49.8c-1.5,.99-3.59,1.48-6.26,1.48-.81,0-1.6-.03-2.39-.08-.79-.05-1.58-.12-2.39-.19v-6.42c.73,.07,1.48,.15,2.25,.22,.77,.07,1.54,.09,2.31,.06,1.02-.11,1.78-.51,2.28-1.21,.49-.7,.74-1.46,.74-2.31,0-.62-.11-1.21-.33-1.76L29.64,12.97h8.29l6.42,19.43h.11l6.2-19.43h8.07l-11.85,31.89c-.84,2.3-2.01,3.95-3.51,4.94Z"></path><path fill="#000000" d="M69.48,12.97v3.84h.11c1.02-1.46,2.26-2.6,3.7-3.4,1.44-.8,3.1-1.21,4.97-1.21s3.43,.35,4.91,1.04c1.48,.7,2.61,1.92,3.38,3.68,.84-1.24,1.98-2.34,3.43-3.29,1.45-.95,3.16-1.43,5.13-1.43,1.5,0,2.89,.18,4.17,.55,1.28,.37,2.38,.95,3.29,1.76,.91,.81,1.63,1.86,2.14,3.16,.51,1.3,.77,2.86,.77,4.69v18.99h-7.79V25.27c0-.95-.04-1.85-.11-2.69-.07-.84-.27-1.57-.6-2.2-.33-.62-.81-1.12-1.45-1.48-.64-.37-1.51-.55-2.61-.55s-1.99,.21-2.66,.63c-.68,.42-1.21,.97-1.59,1.65-.38,.68-.64,1.45-.77,2.3-.13,.86-.19,1.73-.19,2.61v15.81h-7.79v-15.91c0-.84-.02-1.67-.05-2.5-.04-.82-.19-1.58-.47-2.28-.27-.69-.73-1.25-1.37-1.67-.64-.42-1.58-.63-2.83-.63-.37,0-.85,.08-1.45,.25-.6,.16-1.19,.48-1.76,.93-.57,.46-1.05,1.12-1.45,1.98-.4,.86-.6,1.98-.6,3.38v16.46h-7.79V12.97h7.35Z"></path><path fill="#000000" d="M120.31,34.54c1.17,1.13,2.85,1.7,5.05,1.7,1.57,0,2.93-.39,4.06-1.18,1.13-.79,1.83-1.62,2.09-2.5h6.86c-1.1,3.4-2.78,5.84-5.05,7.3-2.27,1.46-5.01,2.2-8.23,2.2-2.23,0-4.24-.36-6.04-1.07-1.79-.71-3.31-1.73-4.55-3.05-1.24-1.32-2.2-2.89-2.88-4.72-.68-1.83-1.02-3.84-1.02-6.04s.35-4.1,1.04-5.93c.69-1.83,1.68-3.41,2.96-4.75,1.28-1.34,2.81-2.39,4.58-3.16,1.77-.77,3.74-1.15,5.9-1.15,2.41,0,4.52,.47,6.31,1.4,1.79,.93,3.27,2.19,4.42,3.76,1.15,1.57,1.98,3.37,2.5,5.38,.51,2.01,.69,4.12,.55,6.31h-20.47c.11,2.52,.75,4.35,1.92,5.49Zm8.81-14.93c-.93-1.02-2.35-1.54-4.25-1.54-1.24,0-2.28,.21-3.1,.63-.82,.42-1.48,.94-1.98,1.56-.49,.62-.84,1.28-1.04,1.98-.2,.7-.32,1.32-.36,1.87h12.68c-.37-1.98-1.02-3.48-1.95-4.5Z"></path><path fill="#000000" d="M151.43,12.97v5.27h.11c.37-.88,.86-1.69,1.48-2.44,.62-.75,1.34-1.39,2.14-1.92,.8-.53,1.66-.94,2.58-1.23,.91-.29,1.87-.44,2.85-.44,.51,0,1.08,.09,1.7,.27v7.24c-.37-.07-.81-.14-1.32-.19-.51-.05-1.01-.08-1.48-.08-1.43,0-2.63,.24-3.62,.71-.99,.48-1.78,1.13-2.39,1.95-.6,.82-1.03,1.78-1.29,2.88-.26,1.1-.38,2.29-.38,3.57v12.79h-7.79V12.97h7.41Z"></path><path fill="#000000" d="M173.94,12.97v28.37h-7.79V12.97h7.79Z"></path><path fill="#000000" d="M193.82,18.08c-1.24,0-2.29,.28-3.13,.85-.84,.57-1.53,1.3-2.06,2.2-.53,.9-.91,1.88-1.12,2.96-.22,1.08-.33,2.15-.33,3.21s.11,2.07,.33,3.13c.22,1.06,.58,2.02,1.07,2.88,.49,.86,1.16,1.56,2,2.11,.84,.55,1.87,.82,3.07,.82,1.87,0,3.3-.52,4.31-1.56,1.01-1.04,1.64-2.44,1.89-4.2h7.52c-.51,3.77-1.98,6.64-4.39,8.62-2.41,1.98-5.51,2.96-9.27,2.96-2.12,0-4.07-.36-5.84-1.07-1.77-.71-3.28-1.71-4.53-2.99-1.24-1.28-2.21-2.81-2.91-4.58-.7-1.77-1.04-3.72-1.04-5.84s.32-4.23,.96-6.12c.64-1.88,1.58-3.51,2.83-4.88,1.24-1.37,2.76-2.44,4.55-3.21,1.79-.77,3.84-1.15,6.15-1.15,1.68,0,3.3,.22,4.86,.66,1.55,.44,2.94,1.11,4.17,2,1.23,.9,2.22,2.01,2.99,3.35,.77,1.34,1.21,2.92,1.32,4.75h-7.63c-.51-3.26-2.43-4.88-5.76-4.88Z"></path><path fill="#000000" d="M220.1,2.16v14.76h.16c.99-1.65,2.25-2.84,3.79-3.59,1.54-.75,3.04-1.12,4.5-1.12,2.09,0,3.8,.28,5.13,.85,1.34,.57,2.39,1.35,3.16,2.36,.77,1.01,1.31,2.23,1.62,3.68,.31,1.45,.47,3.05,.47,4.8v17.45h-7.79V25.32c0-2.34-.37-4.09-1.1-5.24-.73-1.15-2.03-1.73-3.9-1.73-2.12,0-3.66,.63-4.61,1.89-.95,1.26-1.43,3.34-1.43,6.23v14.87h-7.79V2.16h7.79Z"></path><circle fill="#000000" cx="170.04" cy="4.37" r="4.37"></circle></svg>