<?xml version="1.0" encoding="UTF-8"?>
<svg id="Capa_1" data-name="Capa 1" xmlns="http://www.w3.org/2000/svg" version="1.1" viewBox="0 0 438.5 73.3">
  <defs>
    <style>
      .cls-1 {
        fill: #5e666f;
      }

      .cls-1, .cls-2, .cls-3, .cls-4, .cls-5 {
        stroke-width: 0px;
      }

      .cls-2, .cls-3 {
        fill: #5e666f;
      }

      .cls-3 {
        fill-rule: evenodd;
      }

      .cls-6 {
        fill: none;
        stroke: #3f7067;
        stroke-width: 1.6px;
      }

      .cls-4 {
        fill: #a59c8e;
      }

      .cls-5 {
        fill: #3f7067;
      }
    </style>
  </defs>
  <line class="cls-6" x1="228.4" y1="18.1" x2="228.4" y2="70"/>
  <path class="cls-1" d="M438.3,63.6c-.2-2.5-2.2-2.9-4-2.9-2.8,0-3.6,1.7-3.6,3,0,3.3,5.5,2.2,5.5,3.7s-.3.9-1.5.9-1.9-.6-1.9-1.3h-2.4c0,2.4,2.2,3,4.2,3s3.9-.5,3.9-3-5.5-2.2-5.5-3.6.2-.9,1.4-.9,1.5.6,1.6,1.2h2.3ZM428.9,63.6c.1-1.5-1.1-2.9-2.6-3-.2,0-.3,0-.5,0-1.1,0-2.1.5-2.6,1.5h0v-1.2h-2.3v8.8h2.3v-5c-.1-1,.6-1.9,1.6-2,0,0,.2,0,.2,0,1.5,0,1.5,1.1,1.5,1.7v5.3h2.3v-6.2ZM416.9,65.3c0,1.1-.3,2.7-2.1,2.7s-2.1-1.6-2.1-2.7.3-2.7,2.1-2.7,2.1,1.6,2.1,2.7M419.2,65.3c0-2.5-2-4.5-4.5-4.5s-4.5,2-4.5,4.5,2,4.5,4.5,4.5,4.5-2,4.5-4.5M408.5,57.7h-2.3v2.2h2.3v-2.2ZM406.2,69.7h2.3v-8.8h-2.3v8.8ZM403.2,58.5h-2.2v2.4h-1.2v1.7h1.2v5.4c0,1.1.4,1.9,2.4,1.9h1.4v-1.8h-.5c-1,0-1-.2-1-.7v-4.8h1.4v-1.7h-1.4v-2.4ZM398.5,60.9h-2.3v5.1c.1,1-.5,1.9-1.5,2,0,0-.2,0-.3,0-.7,0-1.5-.3-1.5-1.6v-5.5h-2.3v5.8c0,2.2,1.2,3.2,3,3.2,1.1,0,2.1-.5,2.7-1.5h0v1.2h2.2v-8.8ZM388.3,57.8h-2.3v11.9h2.3v-11.9ZM382,65.3c0,1.1-.3,2.7-2.1,2.7s-2.1-1.6-2.1-2.7.3-2.7,2.1-2.7,2.1,1.6,2.1,2.7M384.4,65.3c.2-2.5-1.7-4.6-4.2-4.8-2.5-.2-4.6,1.7-4.8,4.2,0,.2,0,.4,0,.6-.2,2.5,1.7,4.6,4.2,4.8s4.6-1.7,4.8-4.2c0-.2,0-.4,0-.6M373.9,63.6c-.2-2.5-2.2-2.9-4-2.9-2.8,0-3.6,1.7-3.6,3,0,3.3,5.5,2.2,5.5,3.7s-.3.9-1.5.9-1.9-.6-1.9-1.3h-2.4c0,2.4,2.2,3,4.2,3s3.9-.5,3.9-3-5.5-2.2-5.5-3.6.2-.9,1.4-.9,1.5.6,1.6,1.2h2.3ZM355.8,67.2c-.5.5-1.1.8-1.8.8-.9,0-1.7-.6-1.8-1.5,0,0,0,0,0,0,0-1,.4-1.3,1.4-2l2.2,2.7ZM358.5,67.1c.8-1,1.3-2.3,1.4-3.6h-2c0,.7-.3,1.4-.6,1.9l-1.7-2.1c1.1-.5,1.9-1.6,2-2.8,0-1.5-1.3-2.8-2.8-2.7,0,0,0,0-.1,0-1.9,0-3.2,1.1-3.2,2.7,0,.9.4,1.8,1,2.5l-.2.2c-2,1.2-2.3,2.3-2.3,3.5,0,1.9,1.6,3.4,3.5,3.4,0,0,.1,0,.2,0,1.3,0,2.5-.4,3.4-1.3l.8,1h2.8l-2.1-2.6ZM355.5,60.5c0,.6-.5,1.1-1.1,1.5-.4-.4-.8-.9-.9-1.5.1-.5.7-.9,1.2-.8.4,0,.7.4.8.8M343.6,63.5c-.2-2.5-2.2-2.9-4-2.9-2.8,0-3.6,1.7-3.6,3,0,3.3,5.5,2.2,5.5,3.7s-.3.9-1.5.9-1.9-.6-1.9-1.3h-2.4c0,2.4,2.2,3,4.2,3s3.9-.5,3.9-3-5.5-2.2-5.5-3.6.2-.9,1.4-.9,1.5.6,1.6,1.2h2.3ZM333.4,58.5h-2.3v2.4h-1.2v1.7h1.2v5.3c0,1.1.4,1.9,2.4,1.9h1.4v-1.8h-.5c-.9,0-1-.2-1-.7v-4.8h1.4v-1.7h-1.4v-2.4ZM328.6,63.6c.1-1.5-1.1-2.9-2.6-3-.2,0-.3,0-.5,0-1.1,0-2.1.5-2.6,1.5h0v-1.2h-2.2v8.8h2.3v-5c-.1-1,.6-1.9,1.6-2,0,0,.2,0,.2,0,1.5,0,1.5,1.1,1.5,1.7v5.3h2.3v-6.2ZM313.2,64.4c.1-1.2.7-1.8,1.8-1.8,1,0,1.8.8,1.8,1.8,0,0,0,0,0,0h-3.6ZM316.7,67.1c-.2.6-.8,1-1.5,1-1.9,0-2-1.5-2.1-2.2h6v-.5c0-4-2.4-4.8-4.1-4.8-3.9,0-4.2,3.4-4.2,4.5,0,3.6,1.9,4.8,4.4,4.8,1.8,0,3.4-1.1,3.9-2.8h-2.3ZM309.3,57.7h-2.3v2.2h2.3v-2.2ZM307,69.7h2.3v-8.8h-2.3v8.8ZM298.6,65.3c0-1.4.5-2.7,2-2.7s2,1.4,2,2.8-.6,2.5-2.1,2.5-1.9-1.6-1.9-2.7M304.8,57.8h-2.3v4.2h0c-.5-.9-1.5-1.4-2.5-1.4-1.9,0-3.7,1.5-3.7,4.5s1.1,4.7,3.7,4.7c1,0,2-.5,2.5-1.3h0v1.1h2.3v-11.9ZM289.3,64.4c.1-1.2.7-1.8,1.8-1.8,1,0,1.8.8,1.8,1.8,0,0,0,0,0,0h-3.6ZM292.8,67.1c-.2.6-.8,1-1.5,1-1.9,0-2-1.5-2.1-2.2h6v-.4c0-4-2.4-4.8-4.1-4.8-3.9,0-4.2,3.4-4.2,4.5,0,3.6,1.9,4.8,4.4,4.8,1.8,0,3.4-1.1,3.9-2.8h-2.3ZM281.1,69.7h2.3v-4.6c-.1-1,.6-2,1.6-2.1.2,0,.4,0,.5,0,.2,0,.4,0,.7,0v-2.3c-.1,0-.3,0-.5,0-1.4,0-1.9.9-2.4,1.8h0v-1.6h-2.2v8.8ZM273,65.3c0-2.1,1-2.7,1.8-2.7,1.3,0,2,1.2,2,2.6s-.4,2.6-2,2.6-1.8-1.3-1.8-2.4M276.9,60.9v1.3h0c-.5-1-1.5-1.6-2.6-1.5-1.9,0-3.6,1.5-3.6,4.5s1.7,4.6,3.8,4.6c1,0,1.9-.4,2.4-1.3h0v1.1c0,1.4-.6,2-1.8,2s-1.5-.4-1.6-.9h-2.5c.1,1.9,2,2.7,3.8,2.7,4.3,0,4.5-2.5,4.5-4.1v-8.3h-2.2ZM268.9,63.6c.1-1.5-1.1-2.9-2.6-3-.2,0-.3,0-.5,0-1.1,0-2.1.5-2.6,1.5h0v-1.2h-2.2v8.8h2.3v-5c-.1-1,.6-1.9,1.6-2,0,0,.2,0,.2,0,1.5,0,1.5,1.1,1.5,1.7v5.3h2.3v-6.2ZM258.7,57.7h-2.3v2.2h2.3v-2.2ZM256.4,69.7h2.3v-8.8h-2.3v8.8Z"/>
  <path class="cls-1" d="M392.9,41h-2.5l-1.8,6.5h0l-1.9-6.5h-2.6l3.2,9.2c-.2,1.2-.7,1.3-1.5,1.3-.1,0-.3,0-.4,0v1.8h1c2,0,2.3-.4,3.4-3.7l3.1-8.6ZM382.1,38.6h-2.3v2.4h-1.2v1.7h1.2v5.3c0,1.1.4,1.9,2.4,1.9h1.4v-1.8c-.2,0-.3,0-.5,0-.9,0-1-.2-1-.7v-4.7h1.4v-1.7h-1.4v-2.4ZM377.3,38h-2.3v11.8h2.3v-11.8ZM370.6,46.7c0,1-1,1.8-2.1,1.7-.6,0-1-.4-1.1-.9,0,0,0,0,0-.1,0-1,.7-1.2,1.6-1.3.6,0,1.1-.2,1.6-.5v1.1ZM372.9,43.4c0-2.2-2.3-2.5-3.5-2.5-1.8,0-3.7.4-3.9,3.1h2.2c0-.7.6-1.2,1.2-1.2,0,0,.1,0,.2,0,.6,0,1.5,0,1.5,1s-.5.7-.8.7l-2.1.3c-1.5,0-2.6,1.3-2.6,2.8,0,1.4,1,2.5,2.4,2.6.1,0,.2,0,.3,0,1.1,0,2.1-.4,2.9-1.3,0,.3,0,.7.2,1h2.5v-.3c-.3,0-.5-.3-.5-1.4v-4.7ZM363.5,37.9h-2.3v2.1h2.3v-2.1ZM361.2,49.9h2.3v-8.9h-2.3v8.9ZM357.2,46.7c0,.8-.7,1.5-1.6,1.5-1.8,0-1.8-1.9-1.8-2.9s.4-2.5,1.8-2.5c.8,0,1.5.6,1.5,1.4h2.3c-.1-2-1.8-3.5-3.8-3.4,0,0,0,0,0,0-3,0-4.2,2-4.2,4.9s.8,4.4,4.1,4.4c2,.1,3.8-1.4,4-3.4h-2.3ZM344.5,44.6c.1-1.2.7-1.8,1.8-1.8,1,0,1.7.8,1.7,1.8h-3.5ZM348,47.3c-.2.6-.8,1-1.5,1-1.9,0-2-1.5-2.1-2.2h6v-.4c0-4-2.4-4.8-4.1-4.8-3.9,0-4.2,3.4-4.2,4.5,0,3.6,1.9,4.8,4.4,4.8,1.8,0,3.4-1.1,3.9-2.8h-2.3ZM334.8,41h-2.2v12.3h2.3v-4.6h0c.5.9,1.5,1.4,2.5,1.3,2.6,0,3.7-2.3,3.7-4.7s-1.7-4.5-3.6-4.5c-1.1,0-2.1.5-2.6,1.5h0v-1.3ZM334.8,45.6c0-1.4.4-2.8,2-2.8s2,1.3,2,2.7-.4,2.7-1.9,2.7-2-1.2-2-2.5M330.8,43.7c-.2-2.5-2.2-2.9-4-2.9-2.8,0-3.6,1.7-3.6,2.9,0,3.3,5.5,2.2,5.5,3.7s-.3.9-1.5.9-1.9-.5-1.9-1.3h-2.4c0,2.3,2.2,3,4.2,3s3.9-.5,3.9-3-5.5-2.2-5.5-3.6.2-.9,1.4-.9,1.5.6,1.6,1.2h2.3ZM316.8,43.7c0-1.5-1.1-2.9-2.6-2.9-.1,0-.3,0-.4,0-1,0-2,.5-2.5,1.4h0v-4.1h-2.5v11.8h2.3v-5c-.1-1,.6-1.9,1.6-2,0,0,.2,0,.2,0,1.5,0,1.5,1.1,1.5,1.7v5.3h2.3v-6.2ZM300.7,45.4c0-2.1,1-2.7,1.8-2.7,1.3,0,2,1.2,2,2.6s-.4,2.5-2,2.5-1.8-1.3-1.8-2.5M304.5,41v1.3h0c-.5-1-1.5-1.6-2.6-1.5-1.9,0-3.7,1.5-3.7,4.5s1.7,4.5,3.8,4.5c1,0,1.9-.4,2.4-1.3h0v1.1c0,1.4-.6,2-1.8,2s-1.5-.5-1.6-.9h-2.5c.1,1.9,2,2.7,3.8,2.7,4.3,0,4.5-2.5,4.5-4v-8.3h-2.2ZM296.5,41h-2.3v5.1c.1,1-.5,1.9-1.5,2,0,0-.2,0-.3,0-.7,0-1.5-.3-1.5-1.6v-5.5h-2.3v5.8c0,2.2,1.2,3.2,3,3.2,1.1,0,2.1-.5,2.7-1.5h0v1.2h2.2v-8.8ZM284.5,45.4c0,1.1-.3,2.7-2.1,2.7s-2.1-1.6-2.1-2.7.3-2.7,2.1-2.7,2.1,1.5,2.1,2.7M286.9,45.4c0-2.5-2-4.5-4.5-4.5s-4.5,2-4.5,4.5,2,4.5,4.5,4.5,4.5-2,4.5-4.5M272,49.8h2.3v-4.6c-.1-1,.6-2,1.6-2.1.2,0,.4,0,.5,0,.2,0,.4,0,.7,0v-2.3c-.1,0-.3,0-.5,0-1.1,0-2.1.7-2.4,1.8h0v-1.6h-2.2v8.8ZM269.8,43.7c0-1.5-1.1-2.9-2.6-2.9-.1,0-.3,0-.4,0-1,0-2,.5-2.5,1.4h0v-4.1h-2.3v11.8h2.3v-5c-.1-1,.6-1.9,1.6-2,0,0,.2,0,.2,0,1.5,0,1.5,1.1,1.5,1.7v5.3h2.3v-6.2ZM258.9,38.6h-2.3v2.4h-1.2v1.7h1.2v5.3c0,1.1.4,1.9,2.4,1.9h1.4v-1.8c-.2,0-.3,0-.5,0-1,0-1-.2-1-.7v-4.7h1.4v-1.7h-1.4v-2.4Z"/>
  <path class="cls-1" d="M375.8,23.9c-.2-2.5-2.2-2.9-4-2.9-2.7,0-3.5,1.6-3.5,2.9,0,3.3,5.5,2.2,5.5,3.7s-.3.9-1.5.9-1.9-.5-1.9-1.3h-2.4c0,2.4,2.2,3,4.2,3s3.9-.5,3.9-3-5.5-2.2-5.5-3.6.2-.9,1.4-.9,1.5.6,1.6,1.2h2.3ZM361,24.7c.1-1.2.7-1.9,1.8-1.9,1,0,1.8.8,1.8,1.8,0,0,0,0,0,0h-3.6ZM364.5,27.4c-.2.6-.8,1-1.5,1-1.9,0-2-1.5-2.1-2.1h6v-.4c0-4-2.4-4.8-4.1-4.8-3.9,0-4.2,3.4-4.2,4.4,0,3.6,1.9,4.8,4.4,4.8,1.8,0,3.4-1.1,3.9-2.8h-2.3ZM358,21.2h-2.5l-1.9,6.5h0l-1.8-6.5h-2.6l3.2,8.8h2.4l3.1-8.8ZM347.9,18h-2.3v2.1h2.3v-2.1ZM345.6,30h2.3v-8.8h-2.3v8.8ZM343.3,18.1h-2.3v11.9h2.3v-11.9ZM328.2,25.6c0-2,1-2.7,1.8-2.7,1.3,0,2,1.2,2,2.6s-.4,2.5-2,2.5-1.8-1.3-1.8-2.5M332,21.2v1.3h0c-.5-1-1.5-1.6-2.6-1.5-1.9,0-3.7,1.5-3.7,4.5s1.7,4.5,3.8,4.5c1,0,1.9-.4,2.4-1.3h0v1.1c0,1.4-.6,2-1.8,2s-1.5-.5-1.6-.9h-2.5c.1,1.9,2,2.7,3.8,2.7,4.3,0,4.5-2.5,4.5-4v-8.3h-2.3ZM324,23.9c0-1.5-1.1-2.9-2.6-3-.1,0-.3,0-.4,0-1.1,0-2.1.5-2.6,1.5h0v-1.3h-2.2v8.8h2.3v-5c-.1-1,.6-1.9,1.6-2,0,0,.2,0,.2,0,1.5,0,1.5,1.1,1.5,1.7v5.3h2.2v-6.1ZM313.9,18h-2.3v2.1h2.3v-2.1ZM311.5,30h2.3v-8.8h-2.3v8.8ZM310.2,21.2h-2.5l-1.9,6.5h0l-1.9-6.5h-2.6l3.2,8.8h2.4l3.2-8.8ZM298.3,25.6c0,1.1-.3,2.7-2.1,2.7s-2.2-1.6-2.2-2.7.3-2.7,2.1-2.7,2.1,1.5,2.1,2.7M300.6,25.6c0-2.5-2-4.5-4.5-4.5s-4.5,2-4.5,4.5,2,4.5,4.5,4.5,4.5-2,4.5-4.5h0M285.7,30h2.3v-4.6c-.1-1,.6-2,1.6-2.1.2,0,.4,0,.5,0,.2,0,.4,0,.7,0v-2.3c-.1,0-.3,0-.5,0-1.1,0-2,.7-2.4,1.7h0v-1.5h-2.2v8.8ZM277.8,21.2h-2.2v12.2h2.3v-4.6h0c.5.9,1.5,1.4,2.5,1.4,2.6,0,3.7-2.3,3.7-4.7s-1.7-4.5-3.7-4.5c-1.1,0-2.1.5-2.6,1.5h0v-1.2ZM277.8,25.8c0-1.4.4-2.8,2-2.8s2,1.3,2,2.7-.4,2.7-1.9,2.7-2-1.2-2-2.5M273.6,23.9c0-1.5-1.1-2.9-2.7-2.9-.1,0-.3,0-.4,0-1,0-1.9.5-2.4,1.4-.5-.9-1.4-1.5-2.5-1.4-1.1,0-2.1.6-2.5,1.5h0v-1.3h-2.3v8.8h2.3v-5.4c0-1,.4-1.7,1.4-1.7s1.4,1,1.4,1.8v5.3h2.3v-5.3c0-1,.4-1.8,1.6-1.8s1.3.4,1.3,1.7v5.4h2.3v-6.1ZM258.9,18.1h-2.5v11.9h2.5v-11.9Z"/>
  <g>
    <g>
      <g>
        <path class="cls-3" d="M44.7,54.1h3.4v-11.1c0-1.2-.1-4-.1-4,0,0,1.2,1.3,2.2,2.2l6.4,4.9h.5l6.4-4.9c1.1-1,2.2-2.2,2.2-2.2,0,0,0,2.8,0,4v11.1h3.4v-21.6h-.4l-11.9,9.6-11.8-9.6h-.4v21.6Z"/>
        <polygon class="cls-3" points="105.1 54.1 120.9 54.1 120.9 50.7 108.5 50.7 108.5 32.8 105.1 32.8 105.1 54.1"/>
        <rect class="cls-2" x="128.4" y="32.8" width="3.4" height="21.4"/>
        <path class="cls-3" d="M161.4,54.4h.5v-21.6h-3.4v11.7c0,1.2.2,2.9.2,2.9,0,0-1.3-1.3-2.3-2.2l-13.9-12.7h-.5v21.6h3.4v-11.8c0-1.3-.2-2.9-.2-2.9,0,0,1.3,1.3,2.3,2.2l13.9,12.7Z"/>
        <path class="cls-3" d="M168.1,54.1h3.8l1.6-2.9h11.7l1.4,2.9h4.1l-11.1-21.6h-.5l-11.1,21.6ZM175.1,48.2l3.1-6.5c.6-1.3,1.3-3.3,1.3-3.3,0,0,.6,2.1,1.3,3.3l3.1,6.5h-8.8Z"/>
        <path class="cls-3" d="M87.1,54.1c6.2,0,11.1-4.6,11.1-11.1s-4.9-11.1-11.1-11.1-11.1,4.6-11.1,11.1,4.9,11.1,11.1,11.1ZM87.1,51c-4.4,0-7.6-3.4-7.6-7.9s3.1-7.9,7.6-7.9,7.5,3.4,7.5,7.9-3.1,7.9-7.5,7.9Z"/>
      </g>
      <g>
        <path class="cls-5" d="M35.2,51c-.1,0-.2,0-.3,0-11.3,0-20.4-9.1-20.4-20.4s9.1-20.4,20.4-20.4,20.4,9.1,20.4,20.4h3.2c0-13-10.6-23.6-23.6-23.6S11.3,17.5,11.3,30.5s10.6,23.6,23.6,23.6.2,0,.4,0v-3.2Z"/>
        <g>
          <path class="cls-5" d="M26.2,40.9c.5.2,1-.4,1-.7,0-.3-.3-.8-.5-1.3-.2-.5-.4-.4-.8-.4-.4,0-2,.3-3.3.6-.2,0-.3.2-.3.4,0,.4,0,.8.7,1.1.8.3,1.4,0,1.4,0-.2-.3-.3-.8,0-.9.4,0,.5-.2,1.1-.2.6,0,.6,0,.8.5.2.5-.2.8-.2.8Z"/>
          <path class="cls-5" d="M29.1,11L.5,0S-.1,1.4-.1,2.9c0,1.8.9,5.9,3.8,7.4l14.4,8.4,2.2,5.7,2.5.9-7.7,4.2-8.7,4.7c-.8.4-.6,1.4.2,1.4h5.3s0,0,0,0h3.3s0,0,0,0h2.2s6.3-4.6,6.3-4.6c-.2.8-2.3,4.1-2.3,5.2,0,.9.5,2,.7,2,.5,0,1.9,0,1.9,0,0,0,1-1.6,2.3-3.5,1.2-1.9,2.9-2.7,4.3-3.2,1.4-.4,3.1-.7,6.6-2.2,3.5-1.5,4.6-3.5,4.7-4.5.1-.9,0-1,.2-2.9,0-1.9,1-3,2.1-3s1.6.8,1.6.8c.7-.6.7-2.3,0-2.6-.8-.3-4.4-1.6-5.1-1.9-.7-.2-1-.1-1.4,0-.7.3-2.4,1.1-2.9,1.3-1,.5-1.5,1.8-1.5,1.8l-3,1.6v-4.4c0-1.9-1-3.7-2.5-4.3l-.5-.2Z"/>
        </g>
      </g>
    </g>
    <g>
      <path class="cls-4" d="M142.1,69.7c-.7,0-1.3-.2-1.9-.5-.5-.3-.9-.7-1.2-1.3-.3-.6-.4-1.2-.4-2s.1-1.4.4-2c.3-.6.7-1,1.2-1.3.5-.3,1.1-.5,1.9-.5s1,0,1.4.2c.4.2.8.4,1.1.7l-.3.7c-.3-.3-.6-.5-1-.7s-.7-.2-1.1-.2c-.8,0-1.5.3-1.9.8s-.7,1.3-.7,2.2.2,1.7.7,2.2,1.1.8,1.9.8.8,0,1.1-.2c.3-.1.7-.4,1-.7l.3.7c-.3.3-.7.5-1.1.7-.4.2-.9.2-1.4.2Z"/>
      <path class="cls-4" d="M149,69.7c-.7,0-1.3-.2-1.8-.5-.5-.3-.9-.7-1.2-1.3-.3-.6-.4-1.2-.4-2s.1-1.4.4-2c.3-.6.7-1,1.2-1.3.5-.3,1.1-.5,1.8-.5s1.3.2,1.8.5c.5.3.9.7,1.2,1.3.3.6.4,1.2.4,2s-.1,1.4-.4,2-.7,1-1.2,1.3c-.5.3-1.1.5-1.8.5ZM149,69c.8,0,1.4-.3,1.8-.8.4-.5.6-1.3.6-2.2s-.2-1.7-.6-2.2c-.4-.5-1-.8-1.8-.8s-1.4.3-1.8.8c-.4.5-.6,1.3-.6,2.2s.2,1.7.6,2.2,1,.8,1.8.8Z"/>
      <path class="cls-4" d="M154.2,69.6v-7.3h.7l2.8,5.3,2.8-5.3h.7v7.3h-.8v-5.7l-2.4,4.6h-.6l-2.5-4.6v5.7h-.8Z"/>
      <path class="cls-4" d="M163.4,69.6v-7.3h2.9c.8,0,1.4.2,1.8.6s.6.9.6,1.6-.2,1.2-.6,1.6c-.4.4-1,.6-1.8.6h-2.1v2.9h-.9ZM164.2,66h1.9c1.1,0,1.7-.5,1.7-1.5s-.6-1.5-1.7-1.5h-1.9v3Z"/>
      <path class="cls-4" d="M168.8,69.6l3.2-7.3h.7l3.2,7.3h-.9l-.8-1.9h-3.8l-.8,1.9h-.9ZM172.4,63.3l-1.6,3.7h3.2l-1.6-3.7h0Z"/>
      <path class="cls-4" d="M177.4,69.6v-7.3h.7l4.4,5.9v-5.9h.8v7.3h-.6l-4.4-5.9v5.9h-.8Z"/>
      <path class="cls-4" d="M187.1,69.6v-3.5l-2.8-3.9h1l2.3,3.1,2.2-3.1h1l-2.8,3.9v3.5h-.9Z"/>
    </g>
    <path class="cls-4" d="M85.1,69.6l3.2-7.3h.7l3.2,7.3h-.9l-.8-1.9h-3.8l-.8,1.9h-.9ZM88.7,63.3l-1.6,3.7h3.2l-1.6-3.7h0Z"/>
    <g>
      <g>
        <path class="cls-4" d="M117.8,62.1h1.4v6.7h1.9v1.2h-3.3v-7.9Z"/>
        <path class="cls-4" d="M121.7,62.1h2.3c.1,0,.2,0,.4,0,.1,0,.3,0,.4,0,.1,0,.3,0,.4.2.1,0,.3.2.4.3.2.2.3.5.4.7,0,.3,0,.6,0,.9v3.7c0,.3,0,.5,0,.8,0,.3-.1.5-.3.7-.1.2-.3.4-.6.5-.3.1-.6.2-1.1.2h-2.3v-7.9ZM123.2,68.8h.7c0,0,.1,0,.1,0,0,0,0,0,0,0,.1,0,.2,0,.3-.1,0,0,.1-.1.2-.2,0,0,0-.2,0-.3,0,0,0-.2,0-.2v-3.9c0-.2,0-.3,0-.4,0-.1,0-.2-.1-.2,0,0-.2,0-.3-.1-.1,0-.2,0-.4,0h-.6v5.6Z"/>
        <path class="cls-4" d="M113.9,62.1h1.7l1.5,7.9h-1.4l-.2-1.3h-1.4l-.2,1.3h-1.4l1.5-7.9ZM114.2,67.5h1.1l-.5-3.4-.6,3.4Z"/>
        <path class="cls-4" d="M110.4,68c0,.1,0,.2,0,.4,0,.1,0,.2,0,.3,0,0-.1.2-.2.2,0,0-.2,0-.4,0s-.3,0-.4,0c0,0-.2-.1-.2-.2,0,0,0-.2,0-.3,0-.1,0-.2,0-.3v-4.2c0,0,0-.2,0-.3,0-.1,0-.2,0-.3,0,0,.1-.2.2-.2,0,0,.2,0,.4,0s.3,0,.4,0c0,0,.2.1.2.2,0,0,0,.2.1.3,0,.1,0,.2,0,.4v.9h1.4v-1.1c0-.1,0-.3,0-.5,0-.2-.1-.4-.2-.6-.1-.2-.3-.4-.6-.5-.3-.1-.7-.2-1.2-.2s-.2,0-.3,0c-.1,0-.3,0-.5,0-.2,0-.3.1-.5.2-.2,0-.3.2-.5.4-.2.2-.3.4-.3.6,0,.2,0,.5,0,.8v4.3c0,.1,0,.2,0,.4,0,.1,0,.3,0,.4,0,.1,0,.3.2.4,0,.1.2.2.4.3.2.1.5.2.8.3.3,0,.5,0,.7,0,.5,0,.9,0,1.2-.2.3-.1.5-.3.6-.5.1-.2.2-.4.2-.7,0-.2,0-.4,0-.6v-1.1h-1.4v1Z"/>
        <path class="cls-4" d="M127.3,62.1h1.4v7.9h-1.4v-7.9Z"/>
        <path class="cls-4" d="M132.9,68c0,.1,0,.2,0,.4,0,.1,0,.2,0,.3,0,0-.1.2-.2.2,0,0-.2,0-.4,0s-.3,0-.4,0c0,0-.2-.1-.2-.2,0,0,0-.2,0-.3,0-.1,0-.2,0-.3v-4.2c0,0,0-.2,0-.3,0-.1,0-.2,0-.3,0,0,.1-.2.2-.2,0,0,.2,0,.4,0s.3,0,.4,0c0,0,.2.1.2.2,0,0,0,.2.1.3,0,.1,0,.2,0,.4v.9h1.4v-1.1c0-.1,0-.3,0-.5,0-.2-.1-.4-.2-.6-.1-.2-.3-.4-.6-.5-.3-.1-.7-.2-1.2-.2s-.2,0-.3,0c-.1,0-.3,0-.5,0-.2,0-.3.1-.5.2-.2,0-.3.2-.5.4-.2.2-.3.4-.3.6,0,.2,0,.5,0,.8v4.3c0,.1,0,.2,0,.4,0,.1,0,.3,0,.4,0,.1,0,.3.2.4,0,.1.2.2.4.3.2.1.5.2.8.3.3,0,.5,0,.7,0,.5,0,.9,0,1.2-.2.3-.1.5-.3.6-.5.1-.2.2-.4.2-.7,0-.2,0-.4,0-.6v-1.1h-1.4v1Z"/>
      </g>
      <path class="cls-4" d="M102.2,64.4l2.2,3.7-1,1.8h-4.5l-1-1.8h4.8l-1.2-2.2.9-1.6ZM101,65.8l1.2-2.2,2.4,4.1,1-1.8-2.3-3.9h-2l-2.2,3.7h1.8ZM101,66.2h-2.5l2.4-4.1h-2l-2.3,3.9,1,1.8h4.3l-.9-1.6Z"/>
    </g>
  </g>
</svg>